M48
METRIC,LZ,000.000
;FILE_FORMAT=3:3
;TYPE=PLATED
;Layer: PTH_Through
;EasyEDA v6.5.22, 2022-11-10 11:50:32
;78093d0df57e497ba92d4915601d0112,b20a208c93c440fcb0453c65c4fa92e7,10
;Gerber Generator version 0.2
;Holesize 1 = 0.950 mm
T01C0.950
;Holesize 2 = 1.000 mm
T02C1.000
;Holesize 3 = 1.300 mm
T03C1.300
%
G05
G90
T01
X014584Y-130312G85X014588Y-130308
X012816Y-132080G85X012820Y-132076
X011048Y-133848G85X011052Y-133844
X009281Y-135615G85X009284Y-135612
X-007355Y-129104G85X-007350Y-129104
X-009855Y-129104G85X-009850Y-129104
X-012355Y-129104G85X-012350Y-129104
X-007101Y-117070G85X-007096Y-117070
X-009601Y-117070G85X-009596Y-117070
X-012101Y-117070G85X-012096Y-117070
X015059Y-141139G85X015055Y-141142
X016827Y-139371G85X016823Y-139374
X018594Y-137603G85X018591Y-137607
X020362Y-135835G85X020358Y-135839
T02
X-007218Y-123008G85X-007218Y-123008
X-009718Y-123008G85X-009718Y-123008
X022754Y-117070G85X022754Y-117070
X020254Y-117070G85X020254Y-117070
X-018768Y-117324G85X-018768Y-117324
X-021268Y-117324G85X-021268Y-117324
X-007338Y-135454G85X-007338Y-135454
X-009838Y-135454G85X-009838Y-135454
X001396Y-137414G85X001396Y-137414
X-001144Y-134874G85X-001144Y-134874
X001396Y-134874G85X001396Y-134874
X001396Y-132334G85X001396Y-132334
X001396Y-129794G85X001396Y-129794
X001396Y-127254G85X001396Y-127254
X001396Y-124714G85X001396Y-124714
X001396Y-122174G85X001396Y-122174
X001396Y-119634G85X001396Y-119634
X001396Y-117094G85X001396Y-117094
X001396Y-114554G85X001396Y-114554
X-001144Y-114554G85X-001144Y-114554
X-001144Y-117094G85X-001144Y-117094
X-001144Y-119634G85X-001144Y-119634
X-001144Y-122174G85X-001144Y-122174
X-001144Y-124714G85X-001144Y-124714
X-001144Y-127254G85X-001144Y-127254
X-001144Y-129794G85X-001144Y-129794
X-001144Y-132334G85X-001144Y-132334
X-001144Y-137414G85X-001144Y-137414
T03
X009202Y-118040G85X009197Y-118040
X014202Y-118040G85X014197Y-118040
M30
