G04 Layer: BoardOutlineLayer*
G04 EasyEDA v6.5.22, 2022-11-10 11:50:32*
G04 78093d0df57e497ba92d4915601d0112,b20a208c93c440fcb0453c65c4fa92e7,10*
G04 Gerber Generator version 0.2*
G04 Scale: 100 percent, Rotated: No, Reflected: No *
G04 Dimensions in millimeters *
G04 leading zeros omitted , absolute positions ,4 integer and 5 decimal *
%FSLAX45Y45*%
%MOMM*%

%ADD10C,0.2540*%
D10*
X-2546390Y-12596401D02*
G01*
X-2546390Y-11549702D01*
X1367200Y-11406202D02*
G01*
X2430299Y-11406202D01*
X-2404889Y-11403101D02*
G01*
X-1328691Y-11403101D01*
X-1805792Y-13295599D02*
G01*
X-2376190Y-12929999D01*
X1436702Y-14406496D02*
G01*
X1192502Y-14162295D01*
X2319200Y-13683597D02*
G01*
X1596600Y-14406196D01*
X2160501Y-13354197D02*
G01*
X2327600Y-13520498D01*
X2405100Y-12930200D02*
G01*
X2159800Y-13090199D01*
X2580497Y-11539501D02*
G01*
X2580497Y-12615900D01*
G75*
G01*
X2435901Y-11405004D02*
G02*
X2577699Y-11531503I18J-142702D01*
G75*
G01*
X2577699Y-11531503D02*
G02*
X2580498Y-11539502I-9911J-7958D01*
G75*
G01*
X2580498Y-12615901D02*
G02*
X2410800Y-12928199I-370127J-1133D01*
G75*
G01*
X2410800Y-12928199D02*
G02*
X2405101Y-12930200I-6317J8875D01*
G75*
G01*
X2159800Y-13090200D02*
G03*
X2160501Y-13354197I133124J-131646D01*
G75*
G01*
X2327600Y-13520499D02*
G02*
X2327699Y-13679899I-79524J-79749D01*
G75*
G01*
X2327699Y-13679899D02*
G02*
X2319200Y-13683597I-8729J8446D01*
G75*
G01*
X1596601Y-14406197D02*
G02*
X1439901Y-14408798I-79701J80079D01*
G75*
G01*
X1439901Y-14408798D02*
G02*
X1436703Y-14406496I4639J9820D01*
G75*
G01*
X1192502Y-14162296D02*
G02*
X1190701Y-14159997I6705J7108D01*
G75*
G01*
X1190701Y-14159997D02*
G03*
X1042601Y-14111498I-103238J-64881D01*
G75*
G01*
X1042601Y-14111498D02*
G02*
X1000003Y-14139697I-832226J1210910D01*
G75*
G01*
X1000003Y-14139697D02*
G02*
X773603Y-14263497I-976332J1516565D01*
G75*
G01*
X773603Y-14263497D02*
G02*
X769902Y-14266098I-7663J6970D01*
G75*
G01*
X-1509392Y-13593298D02*
G03*
X-1805793Y-13295600I-832153J-532121D01*
G75*
G01*
X-2376190Y-12930000D02*
G02*
X-2546391Y-12596401I202296J313428D01*
G75*
G01*
X-2546391Y-11549703D02*
G02*
X-2545591Y-11545303I12784J-52D01*
G75*
G01*
X-2545591Y-11545303D02*
G02*
X-2411992Y-11405304I142605J-2340D01*
G75*
G01*
X-2411992Y-11405304D02*
G02*
X-2404890Y-11403101I6772J-9286D01*
G75*
G01*
X-1328692Y-11403101D02*
G02*
X1367201Y-11406203I1346552J-1213729D01*
G75*
G01*
X2430300Y-11406203D02*
G02*
X2435901Y-11405004I5693J-12915D01*
G75*
G01*
X769902Y-14266098D02*
G02*
X-1509392Y-13593298I-752071J1649421D01*

%LPD*%
M02*
