G04 Layer: BottomSolderMaskLayer*
G04 EasyEDA v6.5.22, 2022-11-10 11:50:32*
G04 78093d0df57e497ba92d4915601d0112,b20a208c93c440fcb0453c65c4fa92e7,10*
G04 Gerber Generator version 0.2*
G04 Scale: 100 percent, Rotated: No, Reflected: No *
G04 Dimensions in millimeters *
G04 leading zeros omitted , absolute positions ,4 integer and 5 decimal *
%FSLAX45Y45*%
%MOMM*%

%ADD10C,0.2000*%
%ADD11C,0.3556*%
%ADD12C,2.0516*%
%ADD13C,1.8016*%

%LPD*%
D10*
X-558800Y-14222963D02*
G01*
X-558800Y-14079781D01*
X-558800Y-14222963D02*
G01*
X-497436Y-14222963D01*
X-476981Y-14216146D01*
X-470164Y-14209326D01*
X-463346Y-14195691D01*
X-463346Y-14182054D01*
X-470164Y-14168417D01*
X-476981Y-14161599D01*
X-497436Y-14154782D01*
X-558800Y-14154782D01*
X-511073Y-14154782D02*
G01*
X-463346Y-14079781D01*
X-384253Y-14175237D02*
G01*
X-397891Y-14168417D01*
X-411528Y-14154782D01*
X-418345Y-14134327D01*
X-418345Y-14120690D01*
X-411528Y-14100235D01*
X-397891Y-14086601D01*
X-384253Y-14079781D01*
X-363799Y-14079781D01*
X-350164Y-14086601D01*
X-336527Y-14100235D01*
X-329709Y-14120690D01*
X-329709Y-14134327D01*
X-336527Y-14154782D01*
X-350164Y-14168417D01*
X-363799Y-14175237D01*
X-384253Y-14175237D01*
X-202892Y-14175237D02*
G01*
X-202892Y-14079781D01*
X-202892Y-14154782D02*
G01*
X-216527Y-14168417D01*
X-230164Y-14175237D01*
X-250619Y-14175237D01*
X-264253Y-14168417D01*
X-277891Y-14154782D01*
X-284708Y-14134327D01*
X-284708Y-14120690D01*
X-277891Y-14100235D01*
X-264253Y-14086601D01*
X-250619Y-14079781D01*
X-230164Y-14079781D01*
X-216527Y-14086601D01*
X-202892Y-14100235D01*
X-76073Y-14222963D02*
G01*
X-76073Y-14079781D01*
X-76073Y-14154782D02*
G01*
X-89710Y-14168417D01*
X-103347Y-14175237D01*
X-123799Y-14175237D01*
X-137436Y-14168417D01*
X-151074Y-14154782D01*
X-157891Y-14134327D01*
X-157891Y-14120690D01*
X-151074Y-14100235D01*
X-137436Y-14086601D01*
X-123799Y-14079781D01*
X-103347Y-14079781D01*
X-89710Y-14086601D01*
X-76073Y-14100235D01*
X-31074Y-14222963D02*
G01*
X-31074Y-14079781D01*
X37106Y-14175237D02*
G01*
X-31074Y-14107053D01*
X-3799Y-14134327D02*
G01*
X43926Y-14079781D01*
X88925Y-14222963D02*
G01*
X95745Y-14216146D01*
X102562Y-14222963D01*
X95745Y-14229781D01*
X88925Y-14222963D01*
X95745Y-14175237D02*
G01*
X95745Y-14079781D01*
X147561Y-14222963D02*
G01*
X147561Y-14079781D01*
X192562Y-14222963D02*
G01*
X192562Y-14079781D01*
X237561Y-14141145D02*
G01*
X360288Y-14141145D01*
X418924Y-14222963D02*
G01*
X493925Y-14222963D01*
X453016Y-14168417D01*
X473471Y-14168417D01*
X487105Y-14161599D01*
X493925Y-14154782D01*
X500743Y-14134327D01*
X500743Y-14120690D01*
X493925Y-14100235D01*
X480288Y-14086601D01*
X459833Y-14079781D01*
X439379Y-14079781D01*
X418924Y-14086601D01*
X412107Y-14093418D01*
X405290Y-14107053D01*
X627560Y-14202509D02*
G01*
X620742Y-14216146D01*
X600288Y-14222963D01*
X586651Y-14222963D01*
X566199Y-14216146D01*
X552561Y-14195691D01*
X545744Y-14161599D01*
X545744Y-14127507D01*
X552561Y-14100235D01*
X566199Y-14086601D01*
X586651Y-14079781D01*
X593471Y-14079781D01*
X613925Y-14086601D01*
X627560Y-14100235D01*
X634380Y-14120690D01*
X634380Y-14127507D01*
X627560Y-14147962D01*
X613925Y-14161599D01*
X593471Y-14168417D01*
X586651Y-14168417D01*
X566199Y-14161599D01*
X552561Y-14147962D01*
X545744Y-14127507D01*
X-635000Y-11099109D02*
G01*
X-635000Y-11003653D01*
X-635000Y-11099109D02*
G01*
X-598637Y-11003653D01*
X-562272Y-11099109D02*
G01*
X-598637Y-11003653D01*
X-562272Y-11099109D02*
G01*
X-562272Y-11003653D01*
X-477728Y-11067290D02*
G01*
X-477728Y-11003653D01*
X-477728Y-11053653D02*
G01*
X-486818Y-11062746D01*
X-495909Y-11067290D01*
X-509546Y-11067290D01*
X-518637Y-11062746D01*
X-527728Y-11053653D01*
X-532272Y-11040018D01*
X-532272Y-11030927D01*
X-527728Y-11017290D01*
X-518637Y-11008199D01*
X-509546Y-11003653D01*
X-495909Y-11003653D01*
X-486818Y-11008199D01*
X-477728Y-11017290D01*
X-393181Y-11099109D02*
G01*
X-393181Y-11003653D01*
X-393181Y-11053653D02*
G01*
X-402272Y-11062746D01*
X-411363Y-11067290D01*
X-425000Y-11067290D01*
X-434091Y-11062746D01*
X-443181Y-11053653D01*
X-447728Y-11040018D01*
X-447728Y-11030927D01*
X-443181Y-11017290D01*
X-434091Y-11008199D01*
X-425000Y-11003653D01*
X-411363Y-11003653D01*
X-402272Y-11008199D01*
X-393181Y-11017290D01*
X-363181Y-11040018D02*
G01*
X-308637Y-11040018D01*
X-308637Y-11049109D01*
X-313182Y-11058199D01*
X-317728Y-11062746D01*
X-326819Y-11067290D01*
X-340453Y-11067290D01*
X-349547Y-11062746D01*
X-358637Y-11053653D01*
X-363181Y-11040018D01*
X-363181Y-11030927D01*
X-358637Y-11017290D01*
X-349547Y-11008199D01*
X-340453Y-11003653D01*
X-326819Y-11003653D01*
X-317728Y-11008199D01*
X-308637Y-11017290D01*
X-208638Y-11099109D02*
G01*
X-208638Y-11003653D01*
X-208638Y-11053653D02*
G01*
X-199547Y-11062746D01*
X-190454Y-11067290D01*
X-176819Y-11067290D01*
X-167728Y-11062746D01*
X-158638Y-11053653D01*
X-154091Y-11040018D01*
X-154091Y-11030927D01*
X-158638Y-11017290D01*
X-167728Y-11008199D01*
X-176819Y-11003653D01*
X-190454Y-11003653D01*
X-199547Y-11008199D01*
X-208638Y-11017290D01*
X-119547Y-11067290D02*
G01*
X-92273Y-11003653D01*
X-65001Y-11067290D02*
G01*
X-92273Y-11003653D01*
X-101363Y-10985472D01*
X-110454Y-10976381D01*
X-119547Y-10971837D01*
X-124091Y-10971837D01*
X34998Y-11099109D02*
G01*
X34998Y-11003653D01*
X34998Y-11099109D02*
G01*
X98635Y-11003653D01*
X98635Y-11099109D02*
G01*
X98635Y-11003653D01*
X151361Y-11067290D02*
G01*
X142270Y-11062746D01*
X133179Y-11053653D01*
X128635Y-11040018D01*
X128635Y-11030927D01*
X133179Y-11017290D01*
X142270Y-11008199D01*
X151361Y-11003653D01*
X164998Y-11003653D01*
X174089Y-11008199D01*
X183179Y-11017290D01*
X187726Y-11030927D01*
X187726Y-11040018D01*
X183179Y-11053653D01*
X174089Y-11062746D01*
X164998Y-11067290D01*
X151361Y-11067290D01*
X272270Y-11053653D02*
G01*
X263179Y-11062746D01*
X254088Y-11067290D01*
X240451Y-11067290D01*
X231360Y-11062746D01*
X222270Y-11053653D01*
X217726Y-11040018D01*
X217726Y-11030927D01*
X222270Y-11017290D01*
X231360Y-11008199D01*
X240451Y-11003653D01*
X254088Y-11003653D01*
X263179Y-11008199D01*
X272270Y-11017290D01*
X315907Y-11099109D02*
G01*
X315907Y-11021837D01*
X320451Y-11008199D01*
X329544Y-11003653D01*
X338635Y-11003653D01*
X302270Y-11067290D02*
G01*
X334088Y-11067290D01*
X368635Y-11067290D02*
G01*
X368635Y-11021837D01*
X373179Y-11008199D01*
X382270Y-11003653D01*
X395907Y-11003653D01*
X404997Y-11008199D01*
X418635Y-11021837D01*
X418635Y-11067290D02*
G01*
X418635Y-11003653D01*
X498635Y-11053653D02*
G01*
X494088Y-11062746D01*
X480451Y-11067290D01*
X466816Y-11067290D01*
X453179Y-11062746D01*
X448635Y-11053653D01*
X453179Y-11044562D01*
X462269Y-11040018D01*
X484997Y-11035471D01*
X494088Y-11030927D01*
X498635Y-11021837D01*
X498635Y-11017290D01*
X494088Y-11008199D01*
X480451Y-11003653D01*
X466816Y-11003653D01*
X453179Y-11008199D01*
X448635Y-11017290D01*
X537725Y-11099109D02*
G01*
X587725Y-11099109D01*
X560451Y-11062746D01*
X574088Y-11062746D01*
X583178Y-11058199D01*
X587725Y-11053653D01*
X592269Y-11040018D01*
X592269Y-11030927D01*
X587725Y-11017290D01*
X578634Y-11008199D01*
X564997Y-11003653D01*
X551360Y-11003653D01*
X537725Y-11008199D01*
X533179Y-11012746D01*
X528634Y-11021837D01*
X622269Y-11099109D02*
G01*
X622269Y-11003653D01*
X622269Y-11099109D02*
G01*
X654088Y-11099109D01*
X667725Y-11094562D01*
X676816Y-11085471D01*
X681360Y-11076381D01*
X685906Y-11062746D01*
X685906Y-11040018D01*
X681360Y-11026381D01*
X676816Y-11017290D01*
X667725Y-11008199D01*
X654088Y-11003653D01*
X622269Y-11003653D01*
X-751037Y-11251509D02*
G01*
X-787400Y-11156053D01*
X-751037Y-11251509D02*
G01*
X-714672Y-11156053D01*
X-773762Y-11187871D02*
G01*
X-728309Y-11187871D01*
X-614672Y-11251509D02*
G01*
X-614672Y-11156053D01*
X-614672Y-11251509D02*
G01*
X-578309Y-11156053D01*
X-541947Y-11251509D02*
G01*
X-578309Y-11156053D01*
X-541947Y-11251509D02*
G01*
X-541947Y-11156053D01*
X-457400Y-11219690D02*
G01*
X-457400Y-11156053D01*
X-457400Y-11206053D02*
G01*
X-466491Y-11215146D01*
X-475581Y-11219690D01*
X-489219Y-11219690D01*
X-498309Y-11215146D01*
X-507400Y-11206053D01*
X-511947Y-11192418D01*
X-511947Y-11183327D01*
X-507400Y-11169690D01*
X-498309Y-11160599D01*
X-489219Y-11156053D01*
X-475581Y-11156053D01*
X-466491Y-11160599D01*
X-457400Y-11169690D01*
X-427400Y-11251509D02*
G01*
X-427400Y-11156053D01*
X-381947Y-11219690D02*
G01*
X-427400Y-11174237D01*
X-409219Y-11192418D02*
G01*
X-377400Y-11156053D01*
X-347400Y-11192418D02*
G01*
X-292854Y-11192418D01*
X-292854Y-11201509D01*
X-297400Y-11210599D01*
X-301947Y-11215146D01*
X-311038Y-11219690D01*
X-324672Y-11219690D01*
X-333763Y-11215146D01*
X-342854Y-11206053D01*
X-347400Y-11192418D01*
X-347400Y-11183327D01*
X-342854Y-11169690D01*
X-333763Y-11160599D01*
X-324672Y-11156053D01*
X-311038Y-11156053D01*
X-301947Y-11160599D01*
X-292854Y-11169690D01*
X-262854Y-11219690D02*
G01*
X-262854Y-11156053D01*
X-262854Y-11192418D02*
G01*
X-258310Y-11206053D01*
X-249219Y-11215146D01*
X-240129Y-11219690D01*
X-226491Y-11219690D01*
X-196491Y-11251509D02*
G01*
X-196491Y-11156053D01*
X-196491Y-11206053D02*
G01*
X-187401Y-11215146D01*
X-178310Y-11219690D01*
X-164673Y-11219690D01*
X-155582Y-11215146D01*
X-146491Y-11206053D01*
X-141947Y-11192418D01*
X-141947Y-11183327D01*
X-146491Y-11169690D01*
X-155582Y-11160599D01*
X-164673Y-11156053D01*
X-178310Y-11156053D01*
X-187401Y-11160599D01*
X-196491Y-11169690D01*
X-89220Y-11219690D02*
G01*
X-98310Y-11215146D01*
X-107401Y-11206053D01*
X-111947Y-11192418D01*
X-111947Y-11183327D01*
X-107401Y-11169690D01*
X-98310Y-11160599D01*
X-89220Y-11156053D01*
X-75582Y-11156053D01*
X-66492Y-11160599D01*
X-57401Y-11169690D01*
X-52854Y-11183327D01*
X-52854Y-11192418D01*
X-57401Y-11206053D01*
X-66492Y-11215146D01*
X-75582Y-11219690D01*
X-89220Y-11219690D01*
X31689Y-11219690D02*
G01*
X31689Y-11146962D01*
X27144Y-11133328D01*
X22598Y-11128781D01*
X13507Y-11124237D01*
X-129Y-11124237D01*
X-9220Y-11128781D01*
X31689Y-11206053D02*
G01*
X22598Y-11215146D01*
X13507Y-11219690D01*
X-129Y-11219690D01*
X-9220Y-11215146D01*
X-18310Y-11206053D01*
X-22854Y-11192418D01*
X-22854Y-11183327D01*
X-18310Y-11169690D01*
X-9220Y-11160599D01*
X-129Y-11156053D01*
X13507Y-11156053D01*
X22598Y-11160599D01*
X31689Y-11169690D01*
X116235Y-11219690D02*
G01*
X116235Y-11156053D01*
X116235Y-11206053D02*
G01*
X107144Y-11215146D01*
X98051Y-11219690D01*
X84416Y-11219690D01*
X75326Y-11215146D01*
X66235Y-11206053D01*
X61688Y-11192418D01*
X61688Y-11183327D01*
X66235Y-11169690D01*
X75326Y-11160599D01*
X84416Y-11156053D01*
X98051Y-11156053D01*
X107144Y-11160599D01*
X116235Y-11169690D01*
X146235Y-11219690D02*
G01*
X146235Y-11156053D01*
X146235Y-11201509D02*
G01*
X159870Y-11215146D01*
X168960Y-11219690D01*
X182598Y-11219690D01*
X191688Y-11215146D01*
X196235Y-11201509D01*
X196235Y-11156053D01*
X276235Y-11206053D02*
G01*
X271688Y-11215146D01*
X258051Y-11219690D01*
X244416Y-11219690D01*
X230779Y-11215146D01*
X226235Y-11206053D01*
X230779Y-11196962D01*
X239869Y-11192418D01*
X262597Y-11187871D01*
X271688Y-11183327D01*
X276235Y-11174237D01*
X276235Y-11169690D01*
X271688Y-11160599D01*
X258051Y-11156053D01*
X244416Y-11156053D01*
X230779Y-11160599D01*
X226235Y-11169690D01*
X376234Y-11219690D02*
G01*
X376234Y-11124237D01*
X376234Y-11206053D02*
G01*
X385325Y-11215146D01*
X394416Y-11219690D01*
X408051Y-11219690D01*
X417144Y-11215146D01*
X426234Y-11206053D01*
X430778Y-11192418D01*
X430778Y-11183327D01*
X426234Y-11169690D01*
X417144Y-11160599D01*
X408051Y-11156053D01*
X394416Y-11156053D01*
X385325Y-11160599D01*
X376234Y-11169690D01*
X460778Y-11219690D02*
G01*
X460778Y-11156053D01*
X460778Y-11192418D02*
G01*
X465325Y-11206053D01*
X474416Y-11215146D01*
X483506Y-11219690D01*
X497144Y-11219690D01*
X549869Y-11219690D02*
G01*
X540778Y-11215146D01*
X531688Y-11206053D01*
X527143Y-11192418D01*
X527143Y-11183327D01*
X531688Y-11169690D01*
X540778Y-11160599D01*
X549869Y-11156053D01*
X563506Y-11156053D01*
X572597Y-11160599D01*
X581687Y-11169690D01*
X586234Y-11183327D01*
X586234Y-11192418D01*
X581687Y-11206053D01*
X572597Y-11215146D01*
X563506Y-11219690D01*
X549869Y-11219690D01*
X634415Y-11251509D02*
G01*
X638959Y-11246962D01*
X643506Y-11251509D01*
X638959Y-11256053D01*
X634415Y-11251509D01*
X638959Y-11219690D02*
G01*
X638959Y-11142418D01*
X634415Y-11128781D01*
X625325Y-11124237D01*
X616234Y-11124237D01*
X673506Y-11192418D02*
G01*
X728050Y-11192418D01*
X728050Y-11201509D01*
X723506Y-11210599D01*
X718959Y-11215146D01*
X709869Y-11219690D01*
X696234Y-11219690D01*
X687143Y-11215146D01*
X678050Y-11206053D01*
X673506Y-11192418D01*
X673506Y-11183327D01*
X678050Y-11169690D01*
X687143Y-11160599D01*
X696234Y-11156053D01*
X709869Y-11156053D01*
X718959Y-11160599D01*
X728050Y-11169690D01*
X812596Y-11206053D02*
G01*
X803506Y-11215146D01*
X794415Y-11219690D01*
X780778Y-11219690D01*
X771687Y-11215146D01*
X762596Y-11206053D01*
X758050Y-11192418D01*
X758050Y-11183327D01*
X762596Y-11169690D01*
X771687Y-11160599D01*
X780778Y-11156053D01*
X794415Y-11156053D01*
X803506Y-11160599D01*
X812596Y-11169690D01*
X856234Y-11251509D02*
G01*
X856234Y-11174237D01*
X860778Y-11160599D01*
X869868Y-11156053D01*
X878959Y-11156053D01*
X842596Y-11219690D02*
G01*
X874415Y-11219690D01*
D11*
X1265250Y-12781226D02*
G01*
X1277160Y-12778790D01*
X1290132Y-12777343D01*
X1290368Y-12777330D02*
G01*
X1297693Y-12776194D01*
X1306012Y-12773108D01*
X1314076Y-12768541D01*
X1322915Y-12762036D01*
X1323279Y-12761739D02*
G01*
X1331107Y-12755900D01*
X1339037Y-12750749D01*
X1344863Y-12747703D01*
X1348709Y-12746586D01*
X1348828Y-12746583D02*
G01*
X1411117Y-12759786D01*
X1412052Y-12760007D02*
G01*
X1468780Y-12773431D01*
X1648490Y-12727531D01*
X1811746Y-12561242D01*
X1719943Y-12499751D01*
X1719943Y-12478966D01*
X1719943Y-12478966D02*
G01*
X1725914Y-12386218D01*
X1726003Y-12384996D02*
G01*
X1729602Y-12335924D01*
X1730359Y-12309683D01*
X1730334Y-12309647D02*
G01*
X1729933Y-12309426D01*
X1729473Y-12309375D01*
X1727903Y-12309726D01*
X1725645Y-12310803D01*
X1723496Y-12312180D01*
X1723407Y-12312246D02*
G01*
X1710702Y-12320168D01*
X1693928Y-12329779D01*
X1693527Y-12330000D02*
G01*
X1668843Y-12343856D01*
X1641129Y-12306183D01*
X1641129Y-12306183D02*
G01*
X1581472Y-12224217D01*
X1580936Y-12223473D02*
G01*
X1559511Y-12194898D01*
X1553283Y-12188416D01*
X1549196Y-12186201D01*
X1547522Y-12186498D01*
X1546189Y-12187854D01*
X1544482Y-12193104D01*
X1543446Y-12202909D01*
X1542854Y-12221154D01*
X1542829Y-12222607D02*
G01*
X1541947Y-12240237D01*
X1540050Y-12253582D01*
X1537185Y-12262500D01*
X1535402Y-12264981D01*
X1533458Y-12265906D01*
X1533301Y-12265911D02*
G01*
X1531066Y-12265253D01*
X1528267Y-12263638D01*
X1525094Y-12261273D01*
X1521739Y-12258245D01*
X1521609Y-12258116D02*
G01*
X1517647Y-12252086D01*
X1514292Y-12242058D01*
X1511261Y-12227026D01*
X1507883Y-12202878D01*
X1507754Y-12201819D02*
G01*
X1503065Y-12166981D01*
X1501040Y-12156833D01*
X1499577Y-12153325D01*
X1499524Y-12153320D02*
G01*
X1491460Y-12161873D01*
X1475638Y-12181014D01*
X1475275Y-12181469D02*
G01*
X1460342Y-12200130D01*
X1454068Y-12207057D01*
X1451066Y-12209612D01*
X1451025Y-12209614D02*
G01*
X1376448Y-12152114D01*
X1375242Y-12151154D02*
G01*
X1302059Y-12092261D01*
X1300759Y-12118677D01*
X1300759Y-12118677D02*
G01*
X1299832Y-12130420D01*
X1298125Y-12138433D01*
X1295656Y-12142381D01*
X1293870Y-12143127D01*
X1291737Y-12142856D01*
X1286294Y-12139190D01*
X1278376Y-12130392D01*
X1253840Y-12095312D01*
X1252692Y-12093562D02*
G01*
X1229050Y-12059338D01*
X1221879Y-12050141D01*
X1218526Y-12047194D01*
X1218483Y-12047225D02*
G01*
X1215654Y-12056628D01*
X1211633Y-12077923D01*
X1211554Y-12078403D02*
G01*
X1208506Y-12094420D01*
X1205600Y-12103033D01*
X1204135Y-12105342D01*
X1202039Y-12107400D01*
X1199469Y-12108901D01*
X1195407Y-12110359D01*
X1195097Y-12110450D02*
G01*
X1189685Y-12111558D01*
X1186390Y-12111530D01*
X1183838Y-12110359D01*
X1182151Y-12108284D01*
X1180508Y-12104207D01*
X1179118Y-12098106D01*
X1176174Y-12076468D01*
X1176045Y-12075373D02*
G01*
X1173192Y-12057095D01*
X1171600Y-12050344D01*
X1170454Y-12047687D01*
X1170416Y-12047659D02*
G01*
X1167384Y-12049887D01*
X1160365Y-12058474D01*
X1135872Y-12093204D01*
X1135339Y-12093994D02*
G01*
X1110007Y-12128637D01*
X1100325Y-12139731D01*
X1095199Y-12143760D01*
X1095067Y-12143793D02*
G01*
X1092370Y-12144085D01*
X1090645Y-12143785D01*
X1089413Y-12142774D01*
X1088626Y-12140869D01*
X1088169Y-12134024D01*
X1088953Y-12119818D01*
X1089004Y-12119109D02*
G01*
X1089779Y-12101258D01*
X1089416Y-12095081D01*
X1088610Y-12092698D01*
X1088570Y-12092696D02*
G01*
X1013564Y-12150196D01*
X1012357Y-12151154D02*
G01*
X936203Y-12209607D01*
X936142Y-12209614D02*
G01*
X933742Y-12207577D01*
X928598Y-12201690D01*
X913107Y-12181933D01*
X912756Y-12181469D02*
G01*
X904280Y-12170892D01*
X896896Y-12162467D01*
X891557Y-12157196D01*
X889746Y-12155835D01*
X888563Y-12155464D01*
X888507Y-12155484D02*
G01*
X884803Y-12170107D01*
X879518Y-12204926D01*
X879414Y-12205718D02*
G01*
X876066Y-12232147D01*
X873079Y-12246803D01*
X869421Y-12255098D01*
X864082Y-12260112D01*
X863823Y-12260280D02*
G01*
X859934Y-12262612D01*
X855705Y-12264341D01*
X852619Y-12264847D01*
X851570Y-12264682D01*
X850874Y-12264229D01*
X850833Y-12264179D02*
G01*
X849480Y-12260193D01*
X848126Y-12251133D01*
X846096Y-12224095D01*
X846068Y-12223473D02*
G01*
X843970Y-12197082D01*
X842413Y-12186973D01*
X840925Y-12181972D01*
X840872Y-12181900D02*
G01*
X839985Y-12181514D01*
X838906Y-12181586D01*
X837775Y-12182020D01*
X836294Y-12182962D01*
X833155Y-12185929D01*
X829744Y-12190366D01*
X829614Y-12190562D02*
G01*
X771131Y-12272535D01*
X770288Y-12273704D02*
G01*
X718756Y-12343856D01*
X694507Y-12330432D01*
X694507Y-12330432D02*
G01*
X664286Y-12312312D01*
X664192Y-12312246D02*
G01*
X661954Y-12310803D01*
X659917Y-12309810D01*
X658233Y-12309381D01*
X657666Y-12309426D01*
X657291Y-12309622D01*
X657265Y-12309647D02*
G01*
X662358Y-12399540D01*
X662459Y-12401019D02*
G01*
X666109Y-12464133D01*
X666396Y-12496617D01*
X666358Y-12496721D02*
G01*
X662277Y-12501153D01*
X652790Y-12508844D01*
X620750Y-12531735D01*
X620024Y-12532230D02*
G01*
X575853Y-12561676D01*
X744306Y-12730129D01*
X920120Y-12772999D01*
X976848Y-12760007D01*
X976848Y-12760007D02*
G01*
X1039106Y-12746586D01*
X1039205Y-12746583D02*
G01*
X1042682Y-12747635D01*
X1048786Y-12750805D01*
X1056380Y-12755557D01*
X1063576Y-12760639D01*
X1063889Y-12760873D02*
G01*
X1074877Y-12768493D01*
X1085697Y-12773581D01*
X1099766Y-12777424D01*
X1119253Y-12780665D01*
X1120183Y-12780794D02*
G01*
X1139263Y-12783479D01*
X1153126Y-12784416D01*
X1164374Y-12783779D01*
X1175603Y-12781356D01*
X1176045Y-12781226D02*
G01*
X1185674Y-12779027D01*
X1193952Y-12778254D01*
X1201978Y-12778755D01*
X1211178Y-12780690D01*
X1211554Y-12780794D02*
G01*
X1225791Y-12783784D01*
X1239702Y-12784907D01*
X1253477Y-12784007D01*
X1264782Y-12781381D01*
X1363550Y-12412710D02*
G01*
X1357538Y-12408974D01*
X1349138Y-12401793D01*
X1339253Y-12391885D01*
X1330139Y-12381539D01*
X1329773Y-12381097D02*
G01*
X1308554Y-12354684D01*
X1320246Y-12349487D01*
X1320246Y-12349487D02*
G01*
X1329717Y-12346343D01*
X1340076Y-12344659D01*
X1362659Y-12345494D01*
X1383449Y-12351636D01*
X1392280Y-12356698D01*
X1398623Y-12362395D01*
X1399059Y-12362911D02*
G01*
X1401427Y-12367069D01*
X1403220Y-12372718D01*
X1405069Y-12388082D01*
X1404114Y-12403650D01*
X1400566Y-12415779D01*
X1400360Y-12416175D02*
G01*
X1398503Y-12419251D01*
X1397086Y-12421102D01*
X1395524Y-12422522D01*
X1394109Y-12423261D01*
X1392547Y-12423594D01*
X1390609Y-12423510D01*
X1388143Y-12422911D01*
X1385448Y-12421908D01*
X1385204Y-12421803D02*
G01*
X1363746Y-12412789D01*
X983775Y-12404483D02*
G01*
X981875Y-12392535D01*
X982606Y-12381456D01*
X985794Y-12371435D01*
X991814Y-12361999D01*
X1000290Y-12354278D01*
X1010099Y-12348888D01*
X1022667Y-12345156D01*
X1035875Y-12343866D01*
X1037038Y-12343856D02*
G01*
X1053904Y-12345614D01*
X1062578Y-12347831D01*
X1069941Y-12350610D01*
X1075436Y-12353696D01*
X1078631Y-12357064D01*
X1078608Y-12359754D01*
X1075959Y-12361875D01*
X1075580Y-12362045D02*
G01*
X1072865Y-12364435D01*
X1067940Y-12369739D01*
X1055933Y-12384211D01*
X1055659Y-12384562D02*
G01*
X1040831Y-12399187D01*
X1020853Y-12413467D01*
X1002985Y-12422441D01*
X995923Y-12424194D01*
X991839Y-12423683D01*
X991570Y-12423536D02*
G01*
X989987Y-12421351D01*
X987912Y-12416889D01*
X983853Y-12404768D01*
X1244465Y-12292324D02*
G01*
X1241638Y-12286663D01*
X1237617Y-12281331D01*
X1232408Y-12276310D01*
X1227350Y-12272944D01*
X1227145Y-12272838D02*
G01*
X1218638Y-12267392D01*
X1215377Y-12264255D01*
X1213015Y-12261093D01*
X1211234Y-12257610D01*
X1209989Y-12253752D01*
X1208958Y-12244252D01*
X1208956Y-12243826D02*
G01*
X1209042Y-12239805D01*
X1209421Y-12237773D01*
X1210315Y-12236571D01*
X1211607Y-12236193D01*
X1213772Y-12236422D01*
X1216875Y-12237316D01*
X1229545Y-12242269D01*
X1230175Y-12242525D02*
G01*
X1239324Y-12246810D01*
X1242395Y-12248954D01*
X1244899Y-12251402D01*
X1246797Y-12254039D01*
X1248544Y-12257476D01*
X1251709Y-12267598D01*
X1251826Y-12268075D02*
G01*
X1254975Y-12282962D01*
X1256309Y-12294702D01*
X1255613Y-12302157D01*
X1254546Y-12304082D01*
X1252847Y-12304880D01*
X1252692Y-12304885D02*
G01*
X1251844Y-12304649D01*
X1250883Y-12303970D01*
X1248669Y-12301339D01*
X1246444Y-12297389D01*
X1244531Y-12292533D01*
X1137071Y-12263313D02*
G01*
X1138547Y-12259477D01*
X1140759Y-12255784D01*
X1143657Y-12252266D01*
X1147518Y-12248690D01*
X1156809Y-12242642D01*
X1168191Y-12237920D01*
X1168684Y-12237763D02*
G01*
X1171374Y-12237135D01*
X1173711Y-12236823D01*
X1175390Y-12236891D01*
X1176660Y-12237331D01*
X1177632Y-12238245D01*
X1178171Y-12239401D01*
X1178511Y-12241080D01*
X1178643Y-12243620D01*
X1178643Y-12243826D02*
G01*
X1178392Y-12249081D01*
X1177610Y-12253752D01*
X1176365Y-12257610D01*
X1174584Y-12261093D01*
X1172222Y-12264255D01*
X1169238Y-12267161D01*
X1160856Y-12272632D01*
X1160454Y-12272838D02*
G01*
X1155123Y-12276566D01*
X1149761Y-12281771D01*
X1145448Y-12287509D01*
X1142781Y-12292957D01*
X1142700Y-12293191D02*
G01*
X1137505Y-12307049D01*
X1136205Y-12290160D01*
X1136205Y-12290160D02*
G01*
X1135816Y-12275405D01*
X1136241Y-12268603D01*
X1137033Y-12263470D01*
X1117584Y-12203551D02*
G01*
X1125192Y-12179495D01*
X1135131Y-12157163D01*
X1135339Y-12156785D02*
G01*
X1148331Y-12133834D01*
X1148331Y-12176272D01*
X1148331Y-12176272D02*
G01*
X1148059Y-12196536D01*
X1147191Y-12209061D01*
X1145494Y-12216107D01*
X1144346Y-12217679D01*
X1142829Y-12218273D01*
X1142700Y-12218276D02*
G01*
X1139817Y-12218908D01*
X1136246Y-12220727D01*
X1132497Y-12223450D01*
X1128974Y-12226795D01*
X1128844Y-12226937D02*
G01*
X1124544Y-12231044D01*
X1120752Y-12233208D01*
X1118067Y-12233168D01*
X1116190Y-12231240D01*
X1115080Y-12227100D01*
X1114933Y-12221456D01*
X1115644Y-12214131D01*
X1117406Y-12204379D01*
X1252260Y-12222172D02*
G01*
X1244577Y-12215380D01*
X1241435Y-12208748D01*
X1240017Y-12197199D01*
X1239702Y-12174385D01*
X1239702Y-12173239D02*
G01*
X1239268Y-12133834D01*
X1252260Y-12156351D01*
X1252260Y-12156351D02*
G01*
X1263342Y-12179833D01*
X1271102Y-12204275D01*
X1273695Y-12223823D01*
X1272448Y-12229442D01*
X1269888Y-12231253D01*
X1269580Y-12231268D02*
G01*
X1267038Y-12230628D01*
X1263286Y-12228898D01*
X1258150Y-12225987D01*
X1252468Y-12222317D01*
X1166952Y-12203120D02*
G01*
X1167465Y-12201860D01*
X1167767Y-12200592D01*
X1167871Y-12199452D01*
X1167780Y-12198073D01*
X1167457Y-12196815D01*
X1167053Y-12195947D01*
X1166482Y-12195149D01*
X1165717Y-12194499D01*
X1165651Y-12194458D02*
G01*
X1162334Y-12191913D01*
X1161166Y-12189843D01*
X1161803Y-12188057D01*
X1164231Y-12186559D01*
X1168869Y-12185274D01*
X1174988Y-12184407D01*
X1193342Y-12183633D01*
X1194231Y-12183633D02*
G01*
X1211661Y-12183884D01*
X1220492Y-12184766D01*
X1223088Y-12185583D01*
X1224539Y-12186701D01*
X1225024Y-12188169D01*
X1224607Y-12190382D01*
X1224546Y-12190562D02*
G01*
X1222758Y-12197219D01*
X1222187Y-12200481D01*
X1221948Y-12203447D01*
X1221948Y-12203551D02*
G01*
X1221686Y-12205002D01*
X1220642Y-12206414D01*
X1216296Y-12208258D01*
X1207838Y-12209289D01*
X1194010Y-12209614D01*
X1193365Y-12209614D02*
G01*
X1178689Y-12209307D01*
X1170741Y-12208316D01*
X1168455Y-12207499D01*
X1167208Y-12206528D01*
X1166652Y-12205202D01*
X1166901Y-12203275D01*
X1280007Y-12781107D02*
G01*
X1303685Y-12775869D01*
X1311661Y-12773538D01*
X1314879Y-12771993D01*
X1314922Y-12771940D02*
G01*
X1321005Y-12765595D01*
X1330413Y-12756860D01*
X1330634Y-12756664D02*
G01*
X1344165Y-12744444D01*
X1469864Y-12774559D01*
X1650121Y-12730914D01*
X1729993Y-12648422D01*
X1729993Y-12648422D02*
G01*
X1811149Y-12562504D01*
X1811174Y-12562441D02*
G01*
X1808223Y-12559154D01*
X1798627Y-12551747D01*
X1767837Y-12531051D01*
X1767093Y-12530579D02*
G01*
X1722137Y-12501773D01*
X1723882Y-12478204D01*
X1723882Y-12478204D02*
G01*
X1730786Y-12385098D01*
X1734357Y-12312789D02*
G01*
X1705137Y-12327816D01*
X1704677Y-12328065D02*
G01*
X1683445Y-12339142D01*
X1673745Y-12343338D01*
X1673689Y-12343340D02*
G01*
X1670723Y-12340899D01*
X1665284Y-12334615D01*
X1649166Y-12313285D01*
X1648813Y-12312789D02*
G01*
X1590070Y-12230729D01*
X1589453Y-12229861D02*
G01*
X1551919Y-12177923D01*
X1548864Y-12200618D01*
X1548864Y-12200618D02*
G01*
X1547004Y-12223589D01*
X1546245Y-12243061D01*
X1546245Y-12243391D02*
G01*
X1545610Y-12258230D01*
X1544701Y-12262424D01*
X1543245Y-12265106D01*
X1541127Y-12266391D01*
X1538511Y-12266444D01*
X1534462Y-12265248D01*
X1529242Y-12262827D01*
X1528787Y-12262596D02*
G01*
X1522051Y-12257900D01*
X1518371Y-12251446D01*
X1515290Y-12238583D01*
X1511498Y-12212777D01*
X1511327Y-12211530D02*
G01*
X1506664Y-12179096D01*
X1502653Y-12160575D01*
X1502600Y-12160465D02*
G01*
X1501236Y-12159569D01*
X1498379Y-12160625D01*
X1488904Y-12169358D01*
X1475531Y-12185690D01*
X1459260Y-12208266D01*
X1458516Y-12209348D02*
G01*
X1451254Y-12206053D01*
X1433802Y-12194125D01*
X1379913Y-12152754D01*
X1378645Y-12151735D02*
G01*
X1301828Y-12090196D01*
X1301828Y-12116384D01*
X1301828Y-12116384D02*
G01*
X1301297Y-12130039D01*
X1299707Y-12138411D01*
X1297139Y-12142426D01*
X1295227Y-12143112D01*
X1292923Y-12142724D01*
X1286454Y-12138126D01*
X1278498Y-12129231D01*
X1253693Y-12094169D01*
X1252509Y-12092378D02*
G01*
X1219776Y-12042185D01*
X1214975Y-12069683D01*
X1214975Y-12069683D02*
G01*
X1211539Y-12091715D01*
X1210175Y-12104055D01*
X1210172Y-12104161D02*
G01*
X1209969Y-12105881D01*
X1209403Y-12107204D01*
X1208450Y-12108281D01*
X1207086Y-12109122D01*
X1205293Y-12109737D01*
X1202837Y-12110156D01*
X1196507Y-12110285D01*
X1196207Y-12110272D02*
G01*
X1186682Y-12109048D01*
X1184104Y-12107075D01*
X1182349Y-12104108D01*
X1179065Y-12092292D01*
X1173347Y-12059927D01*
X1173076Y-12058335D02*
G01*
X1170457Y-12041748D01*
X1137285Y-12092378D01*
X1137285Y-12092378D02*
G01*
X1122319Y-12114578D01*
X1110556Y-12130336D01*
X1102207Y-12139358D01*
X1096459Y-12143018D01*
X1092949Y-12142729D01*
X1090086Y-12138472D01*
X1088496Y-12130059D01*
X1087968Y-12117600D01*
X1087965Y-12116384D02*
G01*
X1087965Y-12090196D01*
X1013333Y-12149990D01*
X1013333Y-12149990D02*
G01*
X958918Y-12193137D01*
X935705Y-12209790D01*
X935642Y-12209785D02*
G01*
X932746Y-12207306D01*
X927021Y-12200900D01*
X911131Y-12181027D01*
X910765Y-12180542D02*
G01*
X894577Y-12160839D01*
X890739Y-12158228D01*
X888083Y-12158774D01*
X885781Y-12162881D01*
X883828Y-12170968D01*
X878288Y-12211677D01*
X878029Y-12213711D02*
G01*
X874717Y-12238718D01*
X872109Y-12250524D01*
X868192Y-12257722D01*
X861347Y-12262426D01*
X861009Y-12262596D02*
G01*
X856361Y-12264727D01*
X851949Y-12266107D01*
X848537Y-12266584D01*
X847082Y-12266467D01*
X846223Y-12266127D01*
X846167Y-12266086D02*
G01*
X845207Y-12262807D01*
X844339Y-12255893D01*
X843551Y-12237278D01*
X843549Y-12236846D02*
G01*
X842761Y-12213633D01*
X840971Y-12194336D01*
X840930Y-12194072D02*
G01*
X838311Y-12177923D01*
X802960Y-12226805D01*
X802960Y-12226805D02*
G01*
X744435Y-12307882D01*
X744037Y-12308423D02*
G01*
X725840Y-12332558D01*
X717047Y-12342436D01*
X716978Y-12342467D02*
G01*
X713465Y-12341814D01*
X706577Y-12339022D01*
X685165Y-12328326D01*
X684679Y-12328065D02*
G01*
X655873Y-12311915D01*
X655873Y-12328936D01*
X655873Y-12328936D02*
G01*
X662315Y-12420645D01*
X662421Y-12421903D02*
G01*
X668530Y-12498283D01*
X658055Y-12507010D01*
X658055Y-12507010D02*
G01*
X637768Y-12521364D01*
X613242Y-12537208D01*
X612665Y-12537564D02*
G01*
X588276Y-12553876D01*
X580859Y-12559517D01*
X578612Y-12561963D01*
X578622Y-12562004D02*
G01*
X658906Y-12646614D01*
X660237Y-12647988D02*
G01*
X740984Y-12730914D01*
X919058Y-12774996D01*
X1045629Y-12744444D01*
X1056977Y-12754919D01*
X1056977Y-12754919D02*
G01*
X1070546Y-12766304D01*
X1081636Y-12772867D01*
X1094760Y-12777226D01*
X1117003Y-12781785D01*
X1118082Y-12781978D02*
G01*
X1138758Y-12785758D01*
X1151221Y-12786888D01*
X1161770Y-12785849D01*
X1174262Y-12782174D01*
X1174821Y-12781978D02*
G01*
X1187317Y-12778366D01*
X1195280Y-12777396D01*
X1202542Y-12778282D01*
X1213606Y-12781798D01*
X1214102Y-12781978D02*
G01*
X1228699Y-12786608D01*
X1238864Y-12787767D01*
X1252542Y-12786405D01*
X1278735Y-12781366D01*
X1177439Y-12730477D02*
G01*
X1168420Y-12733091D01*
X1157864Y-12734693D01*
X1146083Y-12735148D01*
X1133033Y-12734457D01*
X1132484Y-12734406D02*
G01*
X1113670Y-12731716D01*
X1099858Y-12726494D01*
X1085969Y-12716918D01*
X1064948Y-12698229D01*
X1063960Y-12697307D02*
G01*
X1012164Y-12651541D01*
X1011585Y-12651041D02*
G01*
X974531Y-12618351D01*
X974486Y-12618308D02*
G01*
X933665Y-12581785D01*
X891997Y-12542801D02*
G01*
X891969Y-12538410D01*
X893086Y-12529926D01*
X897976Y-12505814D01*
X898108Y-12505265D02*
G01*
X905527Y-12472095D01*
X889815Y-12444597D01*
X889815Y-12444597D02*
G01*
X879030Y-12424509D01*
X874105Y-12413228D01*
X874102Y-12413173D02*
G01*
X874341Y-12412370D01*
X875027Y-12411544D01*
X877590Y-12409873D01*
X881644Y-12408207D01*
X886973Y-12406680D01*
X887196Y-12406627D02*
G01*
X891016Y-12405616D01*
X893709Y-12404552D01*
X895926Y-12403236D01*
X897724Y-12401608D01*
X899167Y-12399601D01*
X900308Y-12397155D01*
X901209Y-12394204D01*
X901981Y-12390366D01*
X902035Y-12390041D02*
G01*
X917745Y-12277166D01*
X917747Y-12276998D02*
G01*
X917816Y-12275665D01*
X918006Y-12274783D01*
X918298Y-12274262D01*
X918748Y-12274008D01*
X919408Y-12274097D01*
X920181Y-12274506D01*
X921296Y-12275378D01*
X922444Y-12276460D01*
X922548Y-12276561D02*
G01*
X924458Y-12277359D01*
X927765Y-12276759D01*
X937341Y-12271649D01*
X954199Y-12259612D01*
X980272Y-12239117D01*
X981471Y-12238154D02*
G01*
X1023033Y-12205444D01*
X1037714Y-12194951D01*
X1037772Y-12194946D02*
G01*
X1038189Y-12195083D01*
X1038603Y-12195530D01*
X1039309Y-12197323D01*
X1039774Y-12200036D01*
X1039954Y-12203531D01*
X1039954Y-12203673D02*
G01*
X1040302Y-12207252D01*
X1041293Y-12209668D01*
X1042997Y-12211245D01*
X1045491Y-12211997D01*
X1049169Y-12211893D01*
X1053541Y-12210968D01*
X1065982Y-12206538D01*
X1066579Y-12206292D02*
G01*
X1091722Y-12197181D01*
X1091895Y-12197128D02*
G01*
X1095405Y-12196099D01*
X1097633Y-12195703D01*
X1099098Y-12195815D01*
X1100124Y-12196544D01*
X1100599Y-12197849D01*
X1100660Y-12200059D01*
X1099390Y-12208497D01*
X1099314Y-12208911D02*
G01*
X1098577Y-12216394D01*
X1098986Y-12224242D01*
X1100541Y-12232175D01*
X1103111Y-12239599D01*
X1103241Y-12239899D02*
G01*
X1106007Y-12249106D01*
X1108151Y-12262868D01*
X1109786Y-12299668D01*
X1109789Y-12300567D02*
G01*
X1111046Y-12342632D01*
X1114295Y-12374839D01*
X1120345Y-12403056D01*
X1128501Y-12423376D01*
X1139352Y-12438623D01*
X1153124Y-12449213D01*
X1170033Y-12455552D01*
X1192151Y-12458103D01*
X1194026Y-12458128D02*
G01*
X1216621Y-12456683D01*
X1234978Y-12451552D01*
X1248516Y-12442967D01*
X1259111Y-12430140D01*
X1267086Y-12412545D01*
X1272760Y-12389647D01*
X1276456Y-12360922D01*
X1278600Y-12322611D01*
X1278696Y-12319335D02*
G01*
X1281668Y-12266543D01*
X1283997Y-12250564D01*
X1287282Y-12239345D01*
X1287426Y-12239028D02*
G01*
X1290553Y-12230907D01*
X1291790Y-12224186D01*
X1291521Y-12217468D01*
X1289712Y-12209688D01*
X1289608Y-12209348D02*
G01*
X1288100Y-12203991D01*
X1287330Y-12199358D01*
X1287381Y-12196180D01*
X1287764Y-12195218D01*
X1288247Y-12194946D01*
X1288300Y-12194946D02*
G01*
X1298120Y-12197509D01*
X1316687Y-12203531D01*
X1317104Y-12203673D02*
G01*
X1336728Y-12210084D01*
X1345163Y-12211598D01*
X1347325Y-12211143D01*
X1348884Y-12209632D01*
X1349616Y-12207044D01*
X1349839Y-12201880D01*
X1349839Y-12201491D02*
G01*
X1350195Y-12198167D01*
X1351305Y-12196696D01*
X1354046Y-12196818D01*
X1358386Y-12198977D01*
X1373134Y-12209546D01*
X1404625Y-12234740D01*
X1406141Y-12235972D02*
G01*
X1451500Y-12270884D01*
X1461935Y-12276665D01*
X1464886Y-12277341D01*
X1467124Y-12276675D01*
X1467246Y-12276561D02*
G01*
X1468241Y-12275652D01*
X1469100Y-12275014D01*
X1469824Y-12274603D01*
X1470576Y-12274336D01*
X1471198Y-12274313D01*
X1471635Y-12274511D01*
X1471924Y-12274925D01*
X1472046Y-12275624D01*
X1472046Y-12275690D02*
G01*
X1480632Y-12338009D01*
X1480776Y-12338977D02*
G01*
X1489504Y-12400892D01*
X1489506Y-12400953D02*
G01*
X1489684Y-12401382D01*
X1490411Y-12402037D01*
X1493149Y-12403503D01*
X1497236Y-12405065D01*
X1502389Y-12406574D01*
X1502600Y-12406627D02*
G01*
X1507964Y-12408222D01*
X1512069Y-12410086D01*
X1514767Y-12412108D01*
X1515455Y-12413089D01*
X1515691Y-12413968D01*
X1515694Y-12414046D02*
G01*
X1514495Y-12417742D01*
X1511241Y-12424455D01*
X1499806Y-12444603D01*
X1499544Y-12445034D02*
G01*
X1483395Y-12471659D01*
X1501726Y-12541928D01*
X1492125Y-12549784D01*
X1492125Y-12549784D02*
G01*
X1452044Y-12585974D01*
X1451533Y-12586446D02*
G01*
X1354856Y-12671907D01*
X1353766Y-12672865D02*
G01*
X1293482Y-12723329D01*
X1279898Y-12730853D01*
X1263685Y-12734737D01*
X1262984Y-12734841D02*
G01*
X1249580Y-12736413D01*
X1239034Y-12736370D01*
X1228864Y-12734818D01*
X1217228Y-12731518D01*
X1216720Y-12731351D02*
G01*
X1203893Y-12727719D01*
X1195771Y-12726659D01*
X1187853Y-12727470D01*
X1177907Y-12730322D01*
X1411815Y-12715201D02*
G01*
X1362496Y-12703416D01*
X1407452Y-12663700D01*
X1407452Y-12663700D02*
G01*
X1469572Y-12608537D01*
X1469864Y-12608270D02*
G01*
X1478826Y-12600726D01*
X1485333Y-12596804D01*
X1488165Y-12595900D01*
X1490893Y-12595618D01*
X1497101Y-12596832D01*
X1497363Y-12596921D02*
G01*
X1511206Y-12600218D01*
X1526877Y-12599921D01*
X1547149Y-12596230D01*
X1575071Y-12588582D01*
X1576359Y-12588191D02*
G01*
X1617388Y-12575971D01*
X1638338Y-12534945D01*
X1638338Y-12534945D02*
G01*
X1652577Y-12506695D01*
X1658142Y-12493701D01*
X1658858Y-12490604D01*
X1658371Y-12488463D01*
X1656791Y-12488031D01*
X1653052Y-12489002D01*
X1652739Y-12489116D02*
G01*
X1642165Y-12492497D01*
X1635452Y-12494315D01*
X1635282Y-12494353D02*
G01*
X1624807Y-12496972D01*
X1631353Y-12478641D01*
X1631353Y-12478641D02*
G01*
X1636156Y-12463330D01*
X1637682Y-12452837D01*
X1636494Y-12444984D01*
X1632447Y-12438712D01*
X1632226Y-12438489D02*
G01*
X1630052Y-12436373D01*
X1627662Y-12433589D01*
X1625663Y-12430803D01*
X1624398Y-12428517D01*
X1624370Y-12428448D02*
G01*
X1618566Y-12417767D01*
X1603311Y-12392324D01*
X1602983Y-12391786D02*
G01*
X1583781Y-12359490D01*
X1577670Y-12378692D01*
X1577670Y-12378692D02*
G01*
X1570700Y-12398756D01*
X1570687Y-12398771D02*
G01*
X1549143Y-12391232D01*
X1517647Y-12377506D01*
X1517439Y-12377384D02*
G01*
X1515290Y-12373653D01*
X1512930Y-12365494D01*
X1510852Y-12354288D01*
X1509623Y-12343414D01*
X1509582Y-12342903D02*
G01*
X1506707Y-12320094D01*
X1503949Y-12305913D01*
X1503908Y-12305804D02*
G01*
X1503382Y-12302888D01*
X1504320Y-12301786D01*
X1510129Y-12302967D01*
X1523550Y-12309609D01*
X1544728Y-12321753D01*
X1545808Y-12322390D02*
G01*
X1567205Y-12333940D01*
X1575704Y-12337773D01*
X1579758Y-12338974D01*
X1579852Y-12338977D02*
G01*
X1581172Y-12338695D01*
X1582310Y-12337862D01*
X1583265Y-12336492D01*
X1584106Y-12334415D01*
X1585165Y-12328751D01*
X1585526Y-12320996D01*
X1585526Y-12320645D02*
G01*
X1586034Y-12310844D01*
X1586379Y-12308423D01*
X1586890Y-12306731D01*
X1587444Y-12306033D01*
X1588368Y-12306015D01*
X1589460Y-12306830D01*
X1591071Y-12308692D01*
X1591200Y-12308860D02*
G01*
X1628198Y-12359629D01*
X1628734Y-12360361D02*
G01*
X1661032Y-12404879D01*
X1671507Y-12397897D01*
X1671507Y-12397897D02*
G01*
X1675871Y-12395230D01*
X1679582Y-12393259D01*
X1682310Y-12392190D01*
X1683232Y-12392055D01*
X1683702Y-12392197D01*
X1683727Y-12392223D02*
G01*
X1683763Y-12404780D01*
X1681599Y-12442901D01*
X1681546Y-12443726D02*
G01*
X1677766Y-12497831D01*
X1679013Y-12518732D01*
X1681500Y-12525123D01*
X1686509Y-12531222D01*
X1708802Y-12546032D01*
X1709915Y-12546728D02*
G01*
X1732635Y-12561806D01*
X1739849Y-12567127D01*
X1742645Y-12569819D01*
X1742650Y-12569860D02*
G01*
X1726564Y-12587859D01*
X1684695Y-12630434D01*
X1683727Y-12631402D02*
G01*
X1624807Y-12690322D01*
X1554101Y-12708219D01*
X1554101Y-12708219D02*
G01*
X1472239Y-12726969D01*
X1472046Y-12726984D02*
G01*
X1449130Y-12723421D01*
X1412628Y-12715397D01*
X840059Y-12709527D02*
G01*
X767171Y-12691633D01*
X706940Y-12632275D01*
X706940Y-12632275D02*
G01*
X664766Y-12589502D01*
X647153Y-12570345D01*
X647143Y-12570297D02*
G01*
X649356Y-12568036D01*
X655754Y-12563193D01*
X679343Y-12547081D01*
X679879Y-12546728D02*
G01*
X712612Y-12525778D01*
X712612Y-12503083D01*
X712612Y-12503083D02*
G01*
X708314Y-12437899D01*
X708248Y-12437178D02*
G01*
X706046Y-12405316D01*
X706465Y-12391819D01*
X706503Y-12391786D02*
G01*
X706981Y-12391621D01*
X707910Y-12391783D01*
X710382Y-12392944D01*
X713303Y-12394877D01*
X716833Y-12397767D01*
X716978Y-12397897D02*
G01*
X721481Y-12401829D01*
X724199Y-12403081D01*
X727438Y-12402527D01*
X730780Y-12400153D01*
X742010Y-12387176D01*
X768916Y-12350803D01*
X770224Y-12349015D02*
G01*
X802960Y-12304059D01*
X810816Y-12342903D01*
X847478Y-12321080D01*
X847478Y-12321080D02*
G01*
X872357Y-12306924D01*
X884994Y-12300557D01*
X885014Y-12300567D02*
G01*
X884654Y-12311791D01*
X881600Y-12338799D01*
X881522Y-12339411D02*
G01*
X876721Y-12377384D01*
X848786Y-12389167D01*
X848786Y-12389167D02*
G01*
X829551Y-12396005D01*
X823633Y-12396998D01*
X819581Y-12396630D01*
X816457Y-12394768D01*
X814468Y-12391313D01*
X813338Y-12385702D01*
X813000Y-12378060D01*
X812998Y-12377384D02*
G01*
X812698Y-12370968D01*
X811735Y-12366754D01*
X810214Y-12364895D01*
X807999Y-12364974D01*
X803615Y-12368453D01*
X797557Y-12376002D01*
X778888Y-12405276D01*
X778080Y-12406627D02*
G01*
X751022Y-12452454D01*
X757567Y-12474277D01*
X757567Y-12474277D02*
G01*
X761245Y-12488133D01*
X761575Y-12491935D01*
X760994Y-12494155D01*
X759299Y-12495319D01*
X756686Y-12495354D01*
X752182Y-12494272D01*
X745469Y-12491943D01*
X744910Y-12491735D02*
G01*
X740338Y-12490094D01*
X735871Y-12488923D01*
X732848Y-12488608D01*
X731913Y-12488755D01*
X731408Y-12489078D01*
X731380Y-12489116D02*
G01*
X735589Y-12502626D01*
X751291Y-12534059D01*
X769919Y-12566434D01*
X779645Y-12579002D01*
X779828Y-12579027D02*
G01*
X797300Y-12583015D01*
X826721Y-12591475D01*
X827402Y-12591684D02*
G01*
X849426Y-12598146D01*
X863737Y-12601285D01*
X874275Y-12602014D01*
X883351Y-12600515D01*
X883704Y-12600414D02*
G01*
X896541Y-12597317D01*
X903754Y-12597450D01*
X910427Y-12600536D01*
X921605Y-12609576D01*
X922111Y-12610015D02*
G01*
X962718Y-12645438D01*
X963140Y-12645804D02*
G01*
X1008212Y-12686090D01*
X1008529Y-12686395D02*
G01*
X1028171Y-12703853D01*
X1002421Y-12709527D01*
X1002421Y-12709527D02*
G01*
X955202Y-12720782D01*
X954846Y-12720876D02*
G01*
X932276Y-12725641D01*
X915128Y-12725676D01*
X891138Y-12721656D01*
X842418Y-12710111D01*
X1408760Y-12440671D02*
G01*
X1415082Y-12433033D01*
X1420190Y-12424156D01*
X1426733Y-12402990D01*
X1427398Y-12380490D01*
X1425287Y-12369170D01*
X1421780Y-12359393D01*
X1421419Y-12358616D02*
G01*
X1412458Y-12344554D01*
X1407071Y-12339518D01*
X1400721Y-12335454D01*
X1392532Y-12332037D01*
X1383565Y-12329688D01*
X1359687Y-12326823D01*
X1358569Y-12326754D02*
G01*
X1339766Y-12326360D01*
X1328125Y-12327356D01*
X1317866Y-12330097D01*
X1306690Y-12335225D01*
X1306195Y-12335484D02*
G01*
X1298973Y-12339647D01*
X1292786Y-12343678D01*
X1287919Y-12347392D01*
X1285709Y-12349820D01*
X1285681Y-12349886D02*
G01*
X1285593Y-12350932D01*
X1285925Y-12352451D01*
X1287757Y-12356416D01*
X1291295Y-12361829D01*
X1295537Y-12367135D01*
X1295720Y-12367346D02*
G01*
X1322092Y-12400612D01*
X1322341Y-12400953D02*
G01*
X1333919Y-12413835D01*
X1347274Y-12423866D01*
X1366139Y-12433899D01*
X1394726Y-12446220D01*
X1396103Y-12446779D02*
G01*
X1397170Y-12446947D01*
X1398457Y-12446830D01*
X1401777Y-12445690D01*
X1405168Y-12443691D01*
X1408630Y-12440800D01*
X1370789Y-12414920D02*
G01*
X1361211Y-12409378D01*
X1350604Y-12401598D01*
X1329588Y-12381509D01*
X1321445Y-12371395D01*
X1315796Y-12362319D01*
X1313395Y-12355563D01*
X1314251Y-12351019D01*
X1314485Y-12350760D02*
G01*
X1319298Y-12348578D01*
X1327995Y-12346940D01*
X1353154Y-12345522D01*
X1353766Y-12345522D02*
G01*
X1378508Y-12346934D01*
X1387172Y-12348809D01*
X1394073Y-12351626D01*
X1399446Y-12355504D01*
X1403525Y-12360574D01*
X1406758Y-12367544D01*
X1409052Y-12376205D01*
X1409197Y-12376947D02*
G01*
X1409682Y-12390823D01*
X1407266Y-12407041D01*
X1402621Y-12421229D01*
X1400243Y-12424920D01*
X1398046Y-12426256D01*
X1397850Y-12426266D02*
G01*
X1388247Y-12422886D01*
X1371168Y-12415103D01*
X1024679Y-12433251D02*
G01*
X1040950Y-12424603D01*
X1053050Y-12416375D01*
X1062464Y-12407706D01*
X1072283Y-12395824D01*
X1072690Y-12395278D02*
G01*
X1087310Y-12376020D01*
X1097871Y-12363127D01*
X1098003Y-12362980D02*
G01*
X1101412Y-12358878D01*
X1103403Y-12355301D01*
X1103914Y-12352304D01*
X1103078Y-12349452D01*
X1101072Y-12346840D01*
X1097465Y-12343861D01*
X1084262Y-12336259D01*
X1083602Y-12335921D02*
G01*
X1063856Y-12329020D01*
X1039743Y-12325918D01*
X1015646Y-12327069D01*
X995250Y-12332555D01*
X994564Y-12332865D02*
G01*
X983023Y-12340612D01*
X973924Y-12351143D01*
X967371Y-12363764D01*
X963267Y-12379004D01*
X962406Y-12395019D01*
X964918Y-12410937D01*
X970348Y-12424783D01*
X978872Y-12437115D01*
X979723Y-12438052D02*
G01*
X987590Y-12445466D01*
X990031Y-12447381D01*
X991468Y-12448087D01*
X991509Y-12448090D02*
G01*
X1002931Y-12443454D01*
X1024168Y-12433498D01*
X987579Y-12419721D02*
G01*
X985586Y-12416114D01*
X983378Y-12410282D01*
X981504Y-12403579D01*
X980201Y-12396863D01*
X980160Y-12396589D02*
G01*
X979639Y-12388324D01*
X980244Y-12380551D01*
X982126Y-12372774D01*
X984953Y-12366274D01*
X988781Y-12360501D01*
X994013Y-12355159D01*
X1000323Y-12350861D01*
X1007059Y-12347905D01*
X1007658Y-12347704D02*
G01*
X1023221Y-12344768D01*
X1044795Y-12344336D01*
X1064493Y-12346663D01*
X1075512Y-12350976D01*
X1075745Y-12351197D02*
G01*
X1076612Y-12354684D01*
X1074313Y-12361382D01*
X1061506Y-12379947D01*
X1042235Y-12399840D01*
X1024120Y-12413195D01*
X1023371Y-12413609D02*
G01*
X1008448Y-12421623D01*
X999233Y-12424961D01*
X995903Y-12425154D01*
X993112Y-12424435D01*
X990622Y-12422847D01*
X987790Y-12419967D01*
X933023Y-12581209D02*
G01*
X905558Y-12556634D01*
X892027Y-12542870D01*
X1730865Y-12383930D02*
G01*
X1733971Y-12336000D01*
X1734383Y-12312797D01*
D12*
G01*
X919962Y-11804015D03*
G01*
X1419961Y-11804015D03*
G36*
X1464818Y-13130022D02*
G01*
X1464310Y-13129768D01*
X1453642Y-13129006D01*
X1453134Y-13128751D01*
X1442720Y-13126466D01*
X1441958Y-13126212D01*
X1432052Y-13122656D01*
X1431290Y-13122401D01*
X1421892Y-13117576D01*
X1421384Y-13117322D01*
X1412494Y-13111226D01*
X1411986Y-13110972D01*
X1403858Y-13103860D01*
X1403604Y-13103606D01*
X1386078Y-13085826D01*
X1385824Y-13085571D01*
X1378712Y-13077698D01*
X1378458Y-13077190D01*
X1372362Y-13068300D01*
X1367028Y-13057632D01*
X1363218Y-13047726D01*
X1363218Y-13046963D01*
X1360932Y-13036550D01*
X1360678Y-13036042D01*
X1359662Y-13025374D01*
X1359662Y-13024612D01*
X1359916Y-13013944D01*
X1360170Y-13013436D01*
X1361694Y-13002768D01*
X1361948Y-13002260D01*
X1364996Y-12991846D01*
X1364996Y-12991338D01*
X1369314Y-12981686D01*
X1369568Y-12980924D01*
X1375156Y-12971780D01*
X1375410Y-12971272D01*
X1382014Y-12962890D01*
X1382268Y-12962382D01*
X1389888Y-12954762D01*
X1390396Y-12954508D01*
X1398778Y-12947904D01*
X1399286Y-12947396D01*
X1408684Y-12942062D01*
X1409192Y-12941808D01*
X1418844Y-12937490D01*
X1419606Y-12937236D01*
X1429766Y-12934442D01*
X1430528Y-12934188D01*
X1440942Y-12932664D01*
X1441704Y-12932410D01*
X1452372Y-12932156D01*
X1452880Y-12932156D01*
X1463548Y-12933172D01*
X1464056Y-12933172D01*
X1474470Y-12935712D01*
X1475232Y-12935712D01*
X1485138Y-12939268D01*
X1485900Y-12939776D01*
X1495298Y-12944602D01*
X1495806Y-12944856D01*
X1504696Y-12950698D01*
X1505204Y-12951206D01*
X1513078Y-12958318D01*
X1513332Y-12958572D01*
X1531112Y-12976098D01*
X1531366Y-12976352D01*
X1538478Y-12984480D01*
X1538732Y-12984988D01*
X1544828Y-12993624D01*
X1545082Y-12994386D01*
X1549908Y-13003784D01*
X1550162Y-13004292D01*
X1553718Y-13014452D01*
X1553972Y-13014960D01*
X1556258Y-13025374D01*
X1556512Y-13026136D01*
X1557528Y-13036804D01*
X1557528Y-13037312D01*
X1557020Y-13047980D01*
X1557020Y-13048742D01*
X1555496Y-13059156D01*
X1555242Y-13059918D01*
X1552194Y-13070078D01*
X1551940Y-13070586D01*
X1547876Y-13080492D01*
X1547622Y-13081000D01*
X1542034Y-13090144D01*
X1541780Y-13090652D01*
X1535176Y-13099288D01*
X1534668Y-13099542D01*
X1527302Y-13107162D01*
X1526794Y-13107669D01*
X1518412Y-13114274D01*
X1517650Y-13114528D01*
X1508506Y-13119862D01*
X1507998Y-13120369D01*
X1498346Y-13124434D01*
X1497584Y-13124688D01*
X1487424Y-13127736D01*
X1486662Y-13127736D01*
X1476248Y-13129513D01*
X1475486Y-13129513D01*
G37*
G36*
X1287526Y-13306551D02*
G01*
X1276858Y-13305536D01*
X1276350Y-13305536D01*
X1265936Y-13303250D01*
X1265174Y-13302996D01*
X1255268Y-13299440D01*
X1254506Y-13299186D01*
X1245108Y-13294360D01*
X1244600Y-13294106D01*
X1235710Y-13288010D01*
X1235202Y-13287501D01*
X1227074Y-13280644D01*
X1227074Y-13280390D01*
X1209040Y-13262356D01*
X1201928Y-13254482D01*
X1201674Y-13253974D01*
X1195578Y-13245084D01*
X1190244Y-13234416D01*
X1186434Y-13224510D01*
X1186434Y-13223748D01*
X1184148Y-13213334D01*
X1183894Y-13212826D01*
X1182878Y-13202157D01*
X1182878Y-13201396D01*
X1183386Y-13190728D01*
X1183386Y-13190219D01*
X1184910Y-13179551D01*
X1185164Y-13179044D01*
X1188212Y-13168884D01*
X1188212Y-13168122D01*
X1192530Y-13158469D01*
X1192784Y-13157707D01*
X1198372Y-13148563D01*
X1198626Y-13148056D01*
X1205230Y-13139674D01*
X1205738Y-13139166D01*
X1213104Y-13131546D01*
X1213612Y-13131292D01*
X1221994Y-13124688D01*
X1222502Y-13124180D01*
X1231900Y-13118846D01*
X1232408Y-13118592D01*
X1242060Y-13114274D01*
X1242822Y-13114019D01*
X1252982Y-13111226D01*
X1253744Y-13110972D01*
X1264158Y-13109448D01*
X1264920Y-13109194D01*
X1275588Y-13108940D01*
X1276096Y-13108940D01*
X1286764Y-13109956D01*
X1287272Y-13109956D01*
X1297686Y-13112496D01*
X1298448Y-13112496D01*
X1308354Y-13116306D01*
X1309116Y-13116306D01*
X1318514Y-13121386D01*
X1319022Y-13121640D01*
X1327912Y-13127482D01*
X1328420Y-13127990D01*
X1336294Y-13135101D01*
X1336548Y-13135356D01*
X1354328Y-13152882D01*
X1354582Y-13153136D01*
X1361694Y-13161263D01*
X1361948Y-13161772D01*
X1368044Y-13170407D01*
X1368298Y-13171169D01*
X1373124Y-13180568D01*
X1373378Y-13181076D01*
X1376934Y-13191236D01*
X1377188Y-13191744D01*
X1379474Y-13202157D01*
X1379728Y-13202919D01*
X1380744Y-13213588D01*
X1380744Y-13214096D01*
X1380236Y-13224763D01*
X1380236Y-13225526D01*
X1378712Y-13235940D01*
X1378458Y-13236701D01*
X1375410Y-13246862D01*
X1375410Y-13247369D01*
X1371092Y-13257276D01*
X1370838Y-13257784D01*
X1365250Y-13266928D01*
X1364996Y-13267436D01*
X1358392Y-13276072D01*
X1357884Y-13276326D01*
X1350518Y-13283946D01*
X1350010Y-13284454D01*
X1341628Y-13291057D01*
X1341120Y-13291312D01*
X1331722Y-13296646D01*
X1331214Y-13297154D01*
X1321562Y-13301218D01*
X1320800Y-13301472D01*
X1310640Y-13304519D01*
X1309878Y-13304519D01*
X1299464Y-13306298D01*
X1298702Y-13306298D01*
X1288034Y-13306551D01*
G37*
G36*
X1110742Y-13483336D02*
G01*
X1100074Y-13482319D01*
X1099566Y-13482319D01*
X1089152Y-13480034D01*
X1088390Y-13479780D01*
X1078484Y-13476224D01*
X1077722Y-13475969D01*
X1068324Y-13471144D01*
X1067816Y-13470890D01*
X1058926Y-13464794D01*
X1058418Y-13464286D01*
X1050290Y-13457428D01*
X1050290Y-13457174D01*
X1032256Y-13439140D01*
X1025144Y-13431266D01*
X1024890Y-13430757D01*
X1018794Y-13421868D01*
X1013460Y-13411200D01*
X1009650Y-13401294D01*
X1009650Y-13400532D01*
X1007364Y-13390118D01*
X1007110Y-13389610D01*
X1006094Y-13378942D01*
X1006094Y-13378180D01*
X1006602Y-13367512D01*
X1006602Y-13367004D01*
X1008126Y-13356336D01*
X1008380Y-13355828D01*
X1011428Y-13345413D01*
X1011428Y-13344906D01*
X1015746Y-13335254D01*
X1016000Y-13334492D01*
X1021587Y-13325348D01*
X1021842Y-13324840D01*
X1028446Y-13316457D01*
X1028953Y-13315950D01*
X1036319Y-13308330D01*
X1036828Y-13308076D01*
X1045210Y-13301472D01*
X1045718Y-13300963D01*
X1055116Y-13295630D01*
X1055624Y-13295376D01*
X1065276Y-13291057D01*
X1066038Y-13290804D01*
X1076198Y-13288010D01*
X1076960Y-13287756D01*
X1087374Y-13285978D01*
X1088136Y-13285978D01*
X1098804Y-13285724D01*
X1099312Y-13285724D01*
X1109980Y-13286740D01*
X1110488Y-13286740D01*
X1120902Y-13289280D01*
X1121664Y-13289280D01*
X1131570Y-13292836D01*
X1132332Y-13293090D01*
X1141730Y-13298169D01*
X1142238Y-13298424D01*
X1151128Y-13304266D01*
X1151636Y-13304774D01*
X1159764Y-13311886D01*
X1159764Y-13312140D01*
X1177544Y-13329666D01*
X1177798Y-13329919D01*
X1184910Y-13338048D01*
X1185164Y-13338556D01*
X1191260Y-13347192D01*
X1191514Y-13347954D01*
X1196340Y-13357351D01*
X1196594Y-13357860D01*
X1200150Y-13368019D01*
X1200404Y-13368528D01*
X1202690Y-13378942D01*
X1202944Y-13379704D01*
X1203960Y-13390372D01*
X1203960Y-13390880D01*
X1203452Y-13401548D01*
X1203452Y-13402310D01*
X1201928Y-13412724D01*
X1201674Y-13413486D01*
X1198626Y-13423646D01*
X1198372Y-13424154D01*
X1194308Y-13434060D01*
X1194054Y-13434568D01*
X1188466Y-13443712D01*
X1188212Y-13444219D01*
X1181608Y-13452856D01*
X1181100Y-13453110D01*
X1173734Y-13460730D01*
X1173226Y-13461238D01*
X1164844Y-13467842D01*
X1164336Y-13468096D01*
X1154938Y-13473430D01*
X1154430Y-13473938D01*
X1144778Y-13478001D01*
X1144016Y-13478256D01*
X1133856Y-13481304D01*
X1133094Y-13481304D01*
X1122680Y-13483082D01*
X1121918Y-13483082D01*
X1111250Y-13483336D01*
G37*
G36*
X933958Y-13660119D02*
G01*
X923290Y-13659104D01*
X922782Y-13659104D01*
X912368Y-13656818D01*
X911606Y-13656563D01*
X901700Y-13653007D01*
X900937Y-13652754D01*
X891540Y-13647928D01*
X891032Y-13647674D01*
X882142Y-13641578D01*
X881634Y-13641069D01*
X873760Y-13634212D01*
X855471Y-13615924D01*
X848360Y-13608050D01*
X848106Y-13607542D01*
X842010Y-13598651D01*
X836676Y-13587984D01*
X833119Y-13578078D01*
X832866Y-13577316D01*
X830580Y-13566901D01*
X830326Y-13566394D01*
X829310Y-13555726D01*
X829310Y-13554963D01*
X829818Y-13544296D01*
X829818Y-13543788D01*
X831342Y-13533119D01*
X831596Y-13532612D01*
X834644Y-13522198D01*
X834644Y-13521690D01*
X838962Y-13511784D01*
X839216Y-13511276D01*
X844803Y-13502132D01*
X845058Y-13501624D01*
X851662Y-13493242D01*
X852169Y-13492734D01*
X859536Y-13485113D01*
X860044Y-13484860D01*
X868426Y-13478256D01*
X868934Y-13477748D01*
X878332Y-13472413D01*
X878840Y-13472160D01*
X888492Y-13467842D01*
X889253Y-13467588D01*
X899414Y-13464794D01*
X900176Y-13464540D01*
X910590Y-13462762D01*
X911352Y-13462762D01*
X922019Y-13462507D01*
X922528Y-13462507D01*
X933196Y-13463524D01*
X933703Y-13463524D01*
X944118Y-13465810D01*
X944880Y-13466063D01*
X954786Y-13469619D01*
X955548Y-13469874D01*
X964946Y-13474954D01*
X965453Y-13475207D01*
X974344Y-13481050D01*
X974852Y-13481557D01*
X982980Y-13488669D01*
X982980Y-13488924D01*
X1000760Y-13506450D01*
X1001014Y-13506704D01*
X1008126Y-13514832D01*
X1008380Y-13515340D01*
X1014476Y-13523976D01*
X1014730Y-13524738D01*
X1019556Y-13534136D01*
X1019810Y-13534644D01*
X1023619Y-13544804D01*
X1023619Y-13545312D01*
X1025906Y-13555726D01*
X1026160Y-13556488D01*
X1027176Y-13567156D01*
X1027176Y-13567663D01*
X1026668Y-13578332D01*
X1026668Y-13579094D01*
X1025144Y-13589507D01*
X1024890Y-13590269D01*
X1021842Y-13600430D01*
X1021842Y-13600938D01*
X1017524Y-13610844D01*
X1017269Y-13611351D01*
X1011682Y-13620496D01*
X1011428Y-13621004D01*
X1004824Y-13629640D01*
X1004316Y-13629894D01*
X996950Y-13637513D01*
X996442Y-13638022D01*
X988060Y-13644626D01*
X987552Y-13644880D01*
X978153Y-13650213D01*
X977646Y-13650468D01*
X967994Y-13654786D01*
X967232Y-13655040D01*
X957071Y-13658088D01*
X956310Y-13658088D01*
X945896Y-13659866D01*
X945134Y-13659866D01*
X934466Y-13660119D01*
G37*
G36*
X-727710Y-12405614D02*
G01*
X-738378Y-12404344D01*
X-738886Y-12404090D01*
X-749300Y-12401550D01*
X-750062Y-12401296D01*
X-759968Y-12397486D01*
X-760476Y-12397232D01*
X-769874Y-12391898D01*
X-770382Y-12391644D01*
X-779018Y-12385294D01*
X-779526Y-12385040D01*
X-787146Y-12377674D01*
X-787654Y-12377166D01*
X-794512Y-12369038D01*
X-794766Y-12368530D01*
X-800608Y-12359386D01*
X-800862Y-12358878D01*
X-805434Y-12349226D01*
X-805688Y-12348718D01*
X-808990Y-12338558D01*
X-809244Y-12337796D01*
X-811022Y-12327382D01*
X-811276Y-12326620D01*
X-811784Y-12316206D01*
X-811784Y-12285472D01*
X-811276Y-12274804D01*
X-811022Y-12274296D01*
X-809244Y-12263628D01*
X-808990Y-12263120D01*
X-805688Y-12252960D01*
X-805434Y-12252452D01*
X-800862Y-12242800D01*
X-800608Y-12242038D01*
X-794766Y-12233148D01*
X-794512Y-12232640D01*
X-787654Y-12224258D01*
X-787146Y-12224004D01*
X-779526Y-12216638D01*
X-779018Y-12216130D01*
X-770382Y-12209780D01*
X-769874Y-12209526D01*
X-760476Y-12204446D01*
X-759968Y-12204192D01*
X-750062Y-12200128D01*
X-749300Y-12200128D01*
X-738886Y-12197334D01*
X-738378Y-12197334D01*
X-727710Y-12195810D01*
X-715772Y-12195810D01*
X-705358Y-12197334D01*
X-704596Y-12197334D01*
X-694182Y-12200128D01*
X-693674Y-12200128D01*
X-683768Y-12204192D01*
X-683260Y-12204446D01*
X-673862Y-12209526D01*
X-673354Y-12209780D01*
X-664718Y-12216130D01*
X-664210Y-12216638D01*
X-656336Y-12224004D01*
X-655828Y-12224258D01*
X-649224Y-12232640D01*
X-648716Y-12233148D01*
X-643128Y-12242038D01*
X-642620Y-12242800D01*
X-638302Y-12252452D01*
X-638048Y-12252960D01*
X-634746Y-12263120D01*
X-634492Y-12263628D01*
X-632460Y-12274296D01*
X-632460Y-12274804D01*
X-631698Y-12285472D01*
X-631698Y-12316206D01*
X-632460Y-12326620D01*
X-632460Y-12327382D01*
X-634492Y-12337796D01*
X-634746Y-12338558D01*
X-638048Y-12348718D01*
X-638302Y-12349226D01*
X-642620Y-12358878D01*
X-643128Y-12359386D01*
X-648716Y-12368530D01*
X-649224Y-12369038D01*
X-655828Y-12377166D01*
X-656336Y-12377674D01*
X-664210Y-12385040D01*
X-664718Y-12385294D01*
X-673354Y-12391644D01*
X-673862Y-12391898D01*
X-683260Y-12397232D01*
X-683768Y-12397486D01*
X-693674Y-12401296D01*
X-694182Y-12401550D01*
X-704596Y-12404090D01*
X-705358Y-12404344D01*
X-715772Y-12405614D01*
G37*
G36*
X-977900Y-12405614D02*
G01*
X-988314Y-12404344D01*
X-989076Y-12404090D01*
X-999236Y-12401550D01*
X-999998Y-12401296D01*
X-1009903Y-12397486D01*
X-1010412Y-12397232D01*
X-1019810Y-12391898D01*
X-1020318Y-12391644D01*
X-1028953Y-12385294D01*
X-1029462Y-12385040D01*
X-1037336Y-12377674D01*
X-1037590Y-12377166D01*
X-1044448Y-12369038D01*
X-1044956Y-12368530D01*
X-1050544Y-12359386D01*
X-1050798Y-12358878D01*
X-1055370Y-12349226D01*
X-1055624Y-12348718D01*
X-1058926Y-12338558D01*
X-1059180Y-12337796D01*
X-1061212Y-12327382D01*
X-1061212Y-12326620D01*
X-1061974Y-12316206D01*
X-1061974Y-12285472D01*
X-1061212Y-12274804D01*
X-1061212Y-12274296D01*
X-1059180Y-12263628D01*
X-1058926Y-12263120D01*
X-1055624Y-12252960D01*
X-1055370Y-12252198D01*
X-1050798Y-12242546D01*
X-1050544Y-12242038D01*
X-1044956Y-12233148D01*
X-1044448Y-12232640D01*
X-1037590Y-12224258D01*
X-1037336Y-12224004D01*
X-1029462Y-12216638D01*
X-1028953Y-12216130D01*
X-1020318Y-12209780D01*
X-1019810Y-12209526D01*
X-1010412Y-12204446D01*
X-1009903Y-12204192D01*
X-999998Y-12200128D01*
X-999236Y-12200128D01*
X-989076Y-12197334D01*
X-988314Y-12197334D01*
X-977900Y-12195810D01*
X-965708Y-12195810D01*
X-955294Y-12197334D01*
X-954532Y-12197334D01*
X-944371Y-12200128D01*
X-943610Y-12200128D01*
X-933703Y-12204192D01*
X-933196Y-12204446D01*
X-923798Y-12209526D01*
X-923290Y-12209780D01*
X-914653Y-12216130D01*
X-914146Y-12216638D01*
X-906271Y-12224004D01*
X-906018Y-12224258D01*
X-899160Y-12232640D01*
X-898652Y-12233148D01*
X-893064Y-12242038D01*
X-892810Y-12242546D01*
X-888237Y-12252198D01*
X-887984Y-12252960D01*
X-884682Y-12263120D01*
X-884428Y-12263628D01*
X-882396Y-12274296D01*
X-882396Y-12274804D01*
X-881634Y-12285472D01*
X-881634Y-12316206D01*
X-882396Y-12326620D01*
X-882396Y-12327382D01*
X-884428Y-12337796D01*
X-884682Y-12338558D01*
X-887984Y-12348718D01*
X-888237Y-12349226D01*
X-892810Y-12358878D01*
X-893064Y-12359386D01*
X-898652Y-12368530D01*
X-899160Y-12369038D01*
X-906018Y-12377166D01*
X-906271Y-12377674D01*
X-914146Y-12385040D01*
X-914653Y-12385294D01*
X-923290Y-12391644D01*
X-923798Y-12391898D01*
X-933196Y-12397232D01*
X-933703Y-12397486D01*
X-943610Y-12401296D01*
X-944371Y-12401550D01*
X-954532Y-12404090D01*
X-955294Y-12404344D01*
X-965708Y-12405614D01*
G37*
G36*
X2269998Y-11812016D02*
G01*
X2269490Y-11811762D01*
X2258822Y-11810492D01*
X2258314Y-11810492D01*
X2247900Y-11807698D01*
X2247138Y-11807444D01*
X2237232Y-11803634D01*
X2236724Y-11803380D01*
X2227326Y-11798300D01*
X2226818Y-11797792D01*
X2218182Y-11791696D01*
X2217674Y-11791188D01*
X2210054Y-11783822D01*
X2209546Y-11783314D01*
X2202688Y-11775186D01*
X2202434Y-11774678D01*
X2196592Y-11765534D01*
X2196338Y-11765026D01*
X2191766Y-11755374D01*
X2191512Y-11754866D01*
X2188210Y-11744706D01*
X2187956Y-11743944D01*
X2186178Y-11733530D01*
X2185924Y-11733022D01*
X2185416Y-11722354D01*
X2185416Y-11691620D01*
X2185924Y-11680952D01*
X2186178Y-11680444D01*
X2187956Y-11669776D01*
X2188210Y-11669268D01*
X2191512Y-11659108D01*
X2191766Y-11658600D01*
X2196338Y-11648948D01*
X2196592Y-11648186D01*
X2202434Y-11639296D01*
X2202688Y-11638788D01*
X2209546Y-11630660D01*
X2210054Y-11630152D01*
X2217674Y-11622786D01*
X2218182Y-11622278D01*
X2226818Y-11616182D01*
X2227326Y-11615674D01*
X2236724Y-11610594D01*
X2237232Y-11610340D01*
X2247138Y-11606530D01*
X2247900Y-11606276D01*
X2258314Y-11603482D01*
X2258822Y-11603482D01*
X2269490Y-11602212D01*
X2269998Y-11601958D01*
X2280666Y-11601958D01*
X2281428Y-11602212D01*
X2291842Y-11603482D01*
X2292604Y-11603482D01*
X2303018Y-11606276D01*
X2303526Y-11606530D01*
X2313432Y-11610340D01*
X2313940Y-11610594D01*
X2323338Y-11615674D01*
X2323846Y-11616182D01*
X2332482Y-11622278D01*
X2332990Y-11622786D01*
X2340864Y-11630152D01*
X2341372Y-11630660D01*
X2347976Y-11638788D01*
X2348484Y-11639296D01*
X2354072Y-11648186D01*
X2354580Y-11648948D01*
X2358898Y-11658600D01*
X2359152Y-11659108D01*
X2362454Y-11669268D01*
X2362708Y-11669776D01*
X2364740Y-11680444D01*
X2364740Y-11680952D01*
X2365502Y-11691620D01*
X2365502Y-11722354D01*
X2364740Y-11733022D01*
X2364740Y-11733530D01*
X2362708Y-11743944D01*
X2362454Y-11744706D01*
X2359152Y-11754866D01*
X2358898Y-11755374D01*
X2354580Y-11765026D01*
X2354072Y-11765534D01*
X2348484Y-11774678D01*
X2347976Y-11775186D01*
X2341372Y-11783314D01*
X2340864Y-11783822D01*
X2332990Y-11791188D01*
X2332482Y-11791696D01*
X2323846Y-11797792D01*
X2323338Y-11798300D01*
X2313940Y-11803380D01*
X2313432Y-11803634D01*
X2303526Y-11807444D01*
X2303018Y-11807698D01*
X2292604Y-11810492D01*
X2291842Y-11810492D01*
X2281428Y-11811762D01*
X2280666Y-11812016D01*
G37*
G36*
X2020062Y-11812016D02*
G01*
X2019300Y-11811762D01*
X2008886Y-11810492D01*
X2008124Y-11810492D01*
X1997964Y-11807698D01*
X1997202Y-11807444D01*
X1987296Y-11803634D01*
X1986788Y-11803380D01*
X1977389Y-11798300D01*
X1976882Y-11797792D01*
X1968246Y-11791696D01*
X1967738Y-11791188D01*
X1959864Y-11783822D01*
X1959610Y-11783314D01*
X1952752Y-11775186D01*
X1952243Y-11774678D01*
X1946656Y-11765534D01*
X1946402Y-11765026D01*
X1941830Y-11755374D01*
X1941575Y-11754866D01*
X1938274Y-11744706D01*
X1938020Y-11743944D01*
X1935988Y-11733530D01*
X1935988Y-11733022D01*
X1935225Y-11722354D01*
X1935225Y-11691620D01*
X1935988Y-11680952D01*
X1935988Y-11680444D01*
X1938020Y-11669776D01*
X1938274Y-11669268D01*
X1941575Y-11659108D01*
X1941830Y-11658600D01*
X1946402Y-11648948D01*
X1946656Y-11648186D01*
X1952243Y-11639296D01*
X1952752Y-11638788D01*
X1959610Y-11630660D01*
X1959864Y-11630152D01*
X1967738Y-11622786D01*
X1968246Y-11622278D01*
X1976882Y-11616182D01*
X1977389Y-11615674D01*
X1986788Y-11610594D01*
X1987296Y-11610340D01*
X1997202Y-11606530D01*
X1997964Y-11606276D01*
X2008124Y-11603482D01*
X2008886Y-11603482D01*
X2019300Y-11602212D01*
X2020062Y-11601958D01*
X2030730Y-11601958D01*
X2031492Y-11602212D01*
X2041906Y-11603482D01*
X2042668Y-11603482D01*
X2052828Y-11606276D01*
X2053589Y-11606530D01*
X2063496Y-11610340D01*
X2064004Y-11610594D01*
X2073402Y-11615674D01*
X2073910Y-11616182D01*
X2082546Y-11622278D01*
X2083054Y-11622786D01*
X2090928Y-11630152D01*
X2091182Y-11630660D01*
X2098040Y-11638788D01*
X2098548Y-11639296D01*
X2104136Y-11648186D01*
X2104390Y-11648948D01*
X2108962Y-11658600D01*
X2109216Y-11659108D01*
X2112518Y-11669268D01*
X2112772Y-11669776D01*
X2114804Y-11680444D01*
X2114804Y-11680952D01*
X2115566Y-11691620D01*
X2115566Y-11722354D01*
X2114804Y-11733022D01*
X2114804Y-11733530D01*
X2112772Y-11743944D01*
X2112518Y-11744706D01*
X2109216Y-11754866D01*
X2108962Y-11755374D01*
X2104390Y-11765026D01*
X2104136Y-11765534D01*
X2098548Y-11774678D01*
X2098040Y-11775186D01*
X2091182Y-11783314D01*
X2090928Y-11783822D01*
X2083054Y-11791188D01*
X2082546Y-11791696D01*
X2073910Y-11797792D01*
X2073402Y-11798300D01*
X2064004Y-11803380D01*
X2063496Y-11803634D01*
X2053589Y-11807444D01*
X2052828Y-11807698D01*
X2042668Y-11810492D01*
X2041906Y-11810492D01*
X2031492Y-11811762D01*
X2030730Y-11812016D01*
G37*
G36*
X-1882139Y-11837416D02*
G01*
X-1882902Y-11837162D01*
X-1893316Y-11835892D01*
X-1894078Y-11835892D01*
X-1904238Y-11833098D01*
X-1905000Y-11832844D01*
X-1914906Y-11829034D01*
X-1915414Y-11828780D01*
X-1924812Y-11823700D01*
X-1925320Y-11823192D01*
X-1933956Y-11817096D01*
X-1934464Y-11816588D01*
X-1942338Y-11809222D01*
X-1942592Y-11808714D01*
X-1949450Y-11800586D01*
X-1949957Y-11800078D01*
X-1955546Y-11790934D01*
X-1955800Y-11790426D01*
X-1960372Y-11780774D01*
X-1960625Y-11780266D01*
X-1963928Y-11770106D01*
X-1964182Y-11769344D01*
X-1966214Y-11758930D01*
X-1966214Y-11758422D01*
X-1966975Y-11747754D01*
X-1966975Y-11717020D01*
X-1966214Y-11706352D01*
X-1966214Y-11705844D01*
X-1964182Y-11695176D01*
X-1963928Y-11694668D01*
X-1960625Y-11684508D01*
X-1960372Y-11684000D01*
X-1955800Y-11674348D01*
X-1955546Y-11673586D01*
X-1949957Y-11664696D01*
X-1949450Y-11664188D01*
X-1942592Y-11656060D01*
X-1942338Y-11655552D01*
X-1934464Y-11648186D01*
X-1933956Y-11647678D01*
X-1925320Y-11641582D01*
X-1924812Y-11641074D01*
X-1915414Y-11635994D01*
X-1914906Y-11635740D01*
X-1905000Y-11631930D01*
X-1904238Y-11631676D01*
X-1894078Y-11628882D01*
X-1893316Y-11628882D01*
X-1882902Y-11627612D01*
X-1882139Y-11627358D01*
X-1871472Y-11627358D01*
X-1870710Y-11627612D01*
X-1860296Y-11628882D01*
X-1859534Y-11628882D01*
X-1849374Y-11631676D01*
X-1848612Y-11631930D01*
X-1838706Y-11635740D01*
X-1838198Y-11635994D01*
X-1828800Y-11641074D01*
X-1828292Y-11641582D01*
X-1819656Y-11647678D01*
X-1819148Y-11648186D01*
X-1811274Y-11655552D01*
X-1811020Y-11656060D01*
X-1804162Y-11664188D01*
X-1803654Y-11664696D01*
X-1798066Y-11673586D01*
X-1797812Y-11674348D01*
X-1793239Y-11684000D01*
X-1792986Y-11684508D01*
X-1789684Y-11694668D01*
X-1789430Y-11695176D01*
X-1787398Y-11705844D01*
X-1787398Y-11706352D01*
X-1786636Y-11717020D01*
X-1786636Y-11747754D01*
X-1787398Y-11758422D01*
X-1787398Y-11758930D01*
X-1789430Y-11769344D01*
X-1789684Y-11770106D01*
X-1792986Y-11780266D01*
X-1793239Y-11780774D01*
X-1797812Y-11790426D01*
X-1798066Y-11790934D01*
X-1803654Y-11800078D01*
X-1804162Y-11800586D01*
X-1811020Y-11808714D01*
X-1811274Y-11809222D01*
X-1819148Y-11816588D01*
X-1819656Y-11817096D01*
X-1828292Y-11823192D01*
X-1828800Y-11823700D01*
X-1838198Y-11828780D01*
X-1838706Y-11829034D01*
X-1848612Y-11832844D01*
X-1849374Y-11833098D01*
X-1859534Y-11835892D01*
X-1860296Y-11835892D01*
X-1870710Y-11837162D01*
X-1871472Y-11837416D01*
G37*
G36*
X-2132076Y-11837416D02*
G01*
X-2132838Y-11837162D01*
X-2143506Y-11835892D01*
X-2144014Y-11835892D01*
X-2154428Y-11833098D01*
X-2154936Y-11832844D01*
X-2164842Y-11829034D01*
X-2165350Y-11828780D01*
X-2174748Y-11823700D01*
X-2175256Y-11823192D01*
X-2183892Y-11817096D01*
X-2184400Y-11816588D01*
X-2192274Y-11809222D01*
X-2192782Y-11808714D01*
X-2199386Y-11800586D01*
X-2199894Y-11800078D01*
X-2205482Y-11790934D01*
X-2205990Y-11790426D01*
X-2210562Y-11780774D01*
X-2210562Y-11780266D01*
X-2213864Y-11770106D01*
X-2214118Y-11769344D01*
X-2216150Y-11758930D01*
X-2216150Y-11758422D01*
X-2216912Y-11747754D01*
X-2216912Y-11717020D01*
X-2216150Y-11706352D01*
X-2216150Y-11705844D01*
X-2214118Y-11695176D01*
X-2213864Y-11694668D01*
X-2210562Y-11684508D01*
X-2210562Y-11684000D01*
X-2205990Y-11674348D01*
X-2205482Y-11673586D01*
X-2199894Y-11664696D01*
X-2199386Y-11664188D01*
X-2192782Y-11656060D01*
X-2192274Y-11655552D01*
X-2184400Y-11648186D01*
X-2183892Y-11647678D01*
X-2175256Y-11641582D01*
X-2174748Y-11641074D01*
X-2165350Y-11635994D01*
X-2164842Y-11635740D01*
X-2154936Y-11631930D01*
X-2154428Y-11631676D01*
X-2144014Y-11628882D01*
X-2143506Y-11628882D01*
X-2132838Y-11627612D01*
X-2132076Y-11627358D01*
X-2121408Y-11627358D01*
X-2120900Y-11627612D01*
X-2110232Y-11628882D01*
X-2109724Y-11628882D01*
X-2099310Y-11631676D01*
X-2098802Y-11631930D01*
X-2088642Y-11635740D01*
X-2088134Y-11635994D01*
X-2078736Y-11641074D01*
X-2078228Y-11641582D01*
X-2069592Y-11647678D01*
X-2069084Y-11648186D01*
X-2061464Y-11655552D01*
X-2060956Y-11656060D01*
X-2054098Y-11664188D01*
X-2053843Y-11664696D01*
X-2048002Y-11673586D01*
X-2047748Y-11674348D01*
X-2043175Y-11684000D01*
X-2042922Y-11684508D01*
X-2039620Y-11694668D01*
X-2039620Y-11695176D01*
X-2037588Y-11705844D01*
X-2037334Y-11706352D01*
X-2036825Y-11717020D01*
X-2036825Y-11747754D01*
X-2037334Y-11758422D01*
X-2037588Y-11758930D01*
X-2039620Y-11769344D01*
X-2039620Y-11770106D01*
X-2042922Y-11780266D01*
X-2043175Y-11780774D01*
X-2047748Y-11790426D01*
X-2048002Y-11790934D01*
X-2053843Y-11800078D01*
X-2054098Y-11800586D01*
X-2060956Y-11808714D01*
X-2061464Y-11809222D01*
X-2069084Y-11816588D01*
X-2069592Y-11817096D01*
X-2078228Y-11823192D01*
X-2078736Y-11823700D01*
X-2088134Y-11828780D01*
X-2088642Y-11829034D01*
X-2098802Y-11832844D01*
X-2099310Y-11833098D01*
X-2109724Y-11835892D01*
X-2110232Y-11835892D01*
X-2120900Y-11837162D01*
X-2121408Y-11837416D01*
G37*
G36*
X-739902Y-13650213D02*
G01*
X-750316Y-13648944D01*
X-751078Y-13648690D01*
X-761238Y-13646150D01*
X-762000Y-13645896D01*
X-771906Y-13642086D01*
X-772414Y-13641832D01*
X-781812Y-13636498D01*
X-782320Y-13636244D01*
X-790956Y-13629894D01*
X-791464Y-13629640D01*
X-799338Y-13622274D01*
X-799592Y-13621766D01*
X-806450Y-13613638D01*
X-806958Y-13613130D01*
X-812546Y-13603986D01*
X-812800Y-13603478D01*
X-817372Y-13593826D01*
X-817625Y-13593318D01*
X-820928Y-13583157D01*
X-821182Y-13582396D01*
X-823214Y-13571982D01*
X-823214Y-13571219D01*
X-823976Y-13560806D01*
X-823976Y-13530072D01*
X-823214Y-13519404D01*
X-823214Y-13518896D01*
X-821182Y-13508228D01*
X-820928Y-13507719D01*
X-817625Y-13497560D01*
X-817372Y-13496798D01*
X-812800Y-13487146D01*
X-812546Y-13486638D01*
X-806958Y-13477748D01*
X-806450Y-13477240D01*
X-799592Y-13468857D01*
X-799338Y-13468604D01*
X-791464Y-13461238D01*
X-790956Y-13460730D01*
X-782320Y-13454380D01*
X-781812Y-13454126D01*
X-772414Y-13449046D01*
X-771906Y-13448792D01*
X-762000Y-13444728D01*
X-761238Y-13444728D01*
X-751078Y-13441934D01*
X-750316Y-13441934D01*
X-739902Y-13440410D01*
X-727710Y-13440410D01*
X-717296Y-13441934D01*
X-716534Y-13441934D01*
X-706374Y-13444728D01*
X-705612Y-13444728D01*
X-695706Y-13448792D01*
X-695198Y-13449046D01*
X-685800Y-13454126D01*
X-685292Y-13454380D01*
X-676656Y-13460730D01*
X-676148Y-13461238D01*
X-668274Y-13468604D01*
X-668020Y-13468857D01*
X-661162Y-13477240D01*
X-660654Y-13477748D01*
X-655066Y-13486638D01*
X-654812Y-13487146D01*
X-650240Y-13496798D01*
X-649986Y-13497560D01*
X-646684Y-13507719D01*
X-646430Y-13508228D01*
X-644398Y-13518896D01*
X-644398Y-13519404D01*
X-643636Y-13530072D01*
X-643636Y-13560806D01*
X-644398Y-13571219D01*
X-644398Y-13571982D01*
X-646430Y-13582396D01*
X-646684Y-13583157D01*
X-649986Y-13593318D01*
X-650240Y-13593826D01*
X-654812Y-13603478D01*
X-655066Y-13603986D01*
X-660654Y-13613130D01*
X-661162Y-13613638D01*
X-668020Y-13621766D01*
X-668274Y-13622274D01*
X-676148Y-13629640D01*
X-676656Y-13629894D01*
X-685292Y-13636244D01*
X-685800Y-13636498D01*
X-695198Y-13641832D01*
X-695706Y-13642086D01*
X-705612Y-13645896D01*
X-706374Y-13646150D01*
X-716534Y-13648690D01*
X-717296Y-13648944D01*
X-727710Y-13650213D01*
G37*
G36*
X-989837Y-13650213D02*
G01*
X-1000506Y-13648944D01*
X-1001014Y-13648690D01*
X-1011428Y-13646150D01*
X-1011936Y-13645896D01*
X-1021842Y-13642086D01*
X-1022350Y-13641832D01*
X-1031748Y-13636498D01*
X-1032256Y-13636244D01*
X-1040892Y-13629894D01*
X-1041400Y-13629640D01*
X-1049274Y-13622274D01*
X-1049782Y-13621766D01*
X-1056386Y-13613638D01*
X-1056894Y-13613130D01*
X-1062482Y-13603986D01*
X-1062990Y-13603478D01*
X-1067562Y-13593826D01*
X-1067562Y-13593318D01*
X-1070864Y-13583157D01*
X-1071118Y-13582396D01*
X-1073150Y-13571982D01*
X-1073150Y-13571219D01*
X-1073912Y-13560806D01*
X-1073912Y-13530072D01*
X-1073150Y-13519404D01*
X-1073150Y-13518896D01*
X-1071118Y-13508228D01*
X-1070864Y-13507719D01*
X-1067562Y-13497560D01*
X-1067562Y-13497051D01*
X-1062990Y-13487400D01*
X-1062482Y-13486638D01*
X-1056894Y-13477748D01*
X-1056386Y-13477240D01*
X-1049782Y-13468857D01*
X-1049274Y-13468604D01*
X-1041400Y-13461238D01*
X-1040892Y-13460730D01*
X-1032256Y-13454380D01*
X-1031748Y-13454126D01*
X-1022350Y-13449046D01*
X-1021842Y-13448792D01*
X-1011936Y-13444728D01*
X-1011428Y-13444728D01*
X-1001014Y-13441934D01*
X-1000506Y-13441934D01*
X-989837Y-13440410D01*
X-977900Y-13440410D01*
X-967232Y-13441934D01*
X-966724Y-13441934D01*
X-956310Y-13444728D01*
X-955802Y-13444728D01*
X-945642Y-13448792D01*
X-945134Y-13449046D01*
X-935736Y-13454126D01*
X-935228Y-13454380D01*
X-926592Y-13460730D01*
X-926084Y-13461238D01*
X-918464Y-13468604D01*
X-917956Y-13468857D01*
X-911098Y-13477240D01*
X-910844Y-13477748D01*
X-905002Y-13486638D01*
X-904748Y-13487400D01*
X-900176Y-13497051D01*
X-899921Y-13497560D01*
X-896619Y-13507719D01*
X-896619Y-13508228D01*
X-894587Y-13518896D01*
X-894334Y-13519404D01*
X-893826Y-13530072D01*
X-893826Y-13560806D01*
X-894334Y-13571219D01*
X-894587Y-13571982D01*
X-896619Y-13582396D01*
X-896619Y-13583157D01*
X-899921Y-13593318D01*
X-900176Y-13593826D01*
X-904748Y-13603478D01*
X-905002Y-13603986D01*
X-910844Y-13613130D01*
X-911098Y-13613638D01*
X-917956Y-13621766D01*
X-918464Y-13622274D01*
X-926084Y-13629640D01*
X-926592Y-13629894D01*
X-935228Y-13636244D01*
X-935736Y-13636498D01*
X-945134Y-13641832D01*
X-945642Y-13642086D01*
X-955802Y-13645896D01*
X-956310Y-13646150D01*
X-966724Y-13648690D01*
X-967232Y-13648944D01*
X-977900Y-13650213D01*
G37*
G36*
X-741172Y-13012674D02*
G01*
X-751840Y-13011404D01*
X-752348Y-13011404D01*
X-762762Y-13008610D01*
X-763270Y-13008356D01*
X-773176Y-13004546D01*
X-773938Y-13004292D01*
X-783336Y-12999212D01*
X-783844Y-12998704D01*
X-792480Y-12992354D01*
X-792988Y-12992100D01*
X-800608Y-12984734D01*
X-801116Y-12984226D01*
X-807974Y-12976098D01*
X-808228Y-12975590D01*
X-814069Y-12966446D01*
X-814324Y-12965938D01*
X-818896Y-12956286D01*
X-819150Y-12955778D01*
X-822452Y-12945618D01*
X-822452Y-12944856D01*
X-824484Y-12934442D01*
X-824737Y-12933934D01*
X-825246Y-12923266D01*
X-825246Y-12897612D01*
X-824737Y-12886944D01*
X-824484Y-12886182D01*
X-822452Y-12875768D01*
X-822452Y-12875260D01*
X-819150Y-12865100D01*
X-818896Y-12864338D01*
X-814324Y-12854686D01*
X-814069Y-12854178D01*
X-808228Y-12845288D01*
X-807974Y-12844780D01*
X-801116Y-12836398D01*
X-800608Y-12835890D01*
X-792988Y-12828778D01*
X-792480Y-12828270D01*
X-783844Y-12821920D01*
X-783336Y-12821666D01*
X-773938Y-12816586D01*
X-773176Y-12816332D01*
X-763270Y-12812268D01*
X-762762Y-12812014D01*
X-752348Y-12809474D01*
X-751840Y-12809220D01*
X-741172Y-12807950D01*
X-729234Y-12807950D01*
X-718566Y-12809220D01*
X-718058Y-12809474D01*
X-707644Y-12812014D01*
X-707136Y-12812268D01*
X-697230Y-12816332D01*
X-696468Y-12816586D01*
X-687324Y-12821666D01*
X-686562Y-12821920D01*
X-677926Y-12828270D01*
X-677418Y-12828778D01*
X-669798Y-12835890D01*
X-669290Y-12836398D01*
X-662432Y-12844780D01*
X-662178Y-12845288D01*
X-656336Y-12854178D01*
X-656082Y-12854686D01*
X-651510Y-12864338D01*
X-651256Y-12865100D01*
X-647954Y-12875260D01*
X-647954Y-12875768D01*
X-645922Y-12886182D01*
X-645922Y-12886944D01*
X-645160Y-12897612D01*
X-645160Y-12923266D01*
X-645922Y-12933934D01*
X-645922Y-12934442D01*
X-647954Y-12944856D01*
X-647954Y-12945618D01*
X-651256Y-12955778D01*
X-651510Y-12956286D01*
X-656082Y-12965938D01*
X-656336Y-12966446D01*
X-662178Y-12975590D01*
X-662432Y-12976098D01*
X-669290Y-12984226D01*
X-669798Y-12984734D01*
X-677418Y-12992100D01*
X-677926Y-12992354D01*
X-686562Y-12998704D01*
X-687324Y-12999212D01*
X-696468Y-13004292D01*
X-697230Y-13004546D01*
X-707136Y-13008356D01*
X-707644Y-13008610D01*
X-718058Y-13011404D01*
X-718566Y-13011404D01*
X-729234Y-13012674D01*
G37*
G36*
X-991108Y-13012674D02*
G01*
X-1001776Y-13011404D01*
X-1002284Y-13011404D01*
X-1012698Y-13008610D01*
X-1013460Y-13008356D01*
X-1023366Y-13004546D01*
X-1023874Y-13004292D01*
X-1033271Y-12999212D01*
X-1033780Y-12998704D01*
X-1042416Y-12992354D01*
X-1042924Y-12992100D01*
X-1050544Y-12984734D01*
X-1051052Y-12984226D01*
X-1057910Y-12976098D01*
X-1058164Y-12975590D01*
X-1064006Y-12966446D01*
X-1064260Y-12965938D01*
X-1068832Y-12956286D01*
X-1069086Y-12955778D01*
X-1072388Y-12945618D01*
X-1072642Y-12944856D01*
X-1074420Y-12934442D01*
X-1074674Y-12933934D01*
X-1075182Y-12923266D01*
X-1075182Y-12897612D01*
X-1074674Y-12886944D01*
X-1074420Y-12886182D01*
X-1072642Y-12875768D01*
X-1072388Y-12875260D01*
X-1069086Y-12865100D01*
X-1068832Y-12864338D01*
X-1064260Y-12854686D01*
X-1064006Y-12854178D01*
X-1058164Y-12845288D01*
X-1057910Y-12844780D01*
X-1051052Y-12836398D01*
X-1050544Y-12835890D01*
X-1042924Y-12828778D01*
X-1042416Y-12828270D01*
X-1033780Y-12821920D01*
X-1033271Y-12821666D01*
X-1023874Y-12816586D01*
X-1023366Y-12816332D01*
X-1013460Y-12812268D01*
X-1012698Y-12812014D01*
X-1002284Y-12809474D01*
X-1001776Y-12809220D01*
X-991108Y-12807950D01*
X-979169Y-12807950D01*
X-968756Y-12809220D01*
X-967994Y-12809474D01*
X-957580Y-12812014D01*
X-957071Y-12812268D01*
X-947166Y-12816332D01*
X-946658Y-12816586D01*
X-937260Y-12821666D01*
X-936752Y-12821920D01*
X-928116Y-12828270D01*
X-927608Y-12828778D01*
X-919734Y-12835890D01*
X-919480Y-12836398D01*
X-912621Y-12844780D01*
X-912114Y-12845288D01*
X-906526Y-12854178D01*
X-906018Y-12854686D01*
X-901700Y-12864338D01*
X-901446Y-12865100D01*
X-898144Y-12875260D01*
X-897890Y-12875768D01*
X-895858Y-12886182D01*
X-895858Y-12886944D01*
X-895096Y-12897612D01*
X-895096Y-12923266D01*
X-895858Y-12933934D01*
X-895858Y-12934442D01*
X-897890Y-12944856D01*
X-898144Y-12945618D01*
X-901446Y-12955778D01*
X-901700Y-12956286D01*
X-906018Y-12965938D01*
X-906526Y-12966446D01*
X-912114Y-12975590D01*
X-912621Y-12976098D01*
X-919480Y-12984226D01*
X-919734Y-12984734D01*
X-927608Y-12992100D01*
X-928116Y-12992354D01*
X-936752Y-12998704D01*
X-937260Y-12999212D01*
X-946658Y-13004292D01*
X-947166Y-13004546D01*
X-957071Y-13008356D01*
X-957580Y-13008610D01*
X-967994Y-13011404D01*
X-968756Y-13011404D01*
X-979169Y-13012674D01*
G37*
G36*
X-1241298Y-13012674D02*
G01*
X-1251712Y-13011404D01*
X-1252474Y-13011404D01*
X-1262634Y-13008610D01*
X-1263396Y-13008356D01*
X-1273302Y-13004546D01*
X-1273810Y-13004292D01*
X-1283208Y-12999212D01*
X-1283716Y-12998704D01*
X-1292352Y-12992354D01*
X-1292860Y-12992100D01*
X-1300734Y-12984734D01*
X-1300988Y-12984226D01*
X-1307846Y-12976098D01*
X-1308354Y-12975590D01*
X-1313942Y-12966446D01*
X-1314196Y-12965938D01*
X-1318768Y-12956286D01*
X-1319022Y-12955778D01*
X-1322324Y-12945618D01*
X-1322578Y-12944856D01*
X-1324610Y-12934442D01*
X-1324610Y-12933934D01*
X-1325372Y-12923266D01*
X-1325372Y-12897612D01*
X-1324610Y-12886944D01*
X-1324610Y-12886182D01*
X-1322578Y-12875768D01*
X-1322324Y-12875260D01*
X-1319022Y-12865100D01*
X-1318768Y-12864338D01*
X-1314196Y-12854686D01*
X-1313942Y-12854178D01*
X-1308354Y-12845288D01*
X-1307846Y-12844780D01*
X-1300988Y-12836398D01*
X-1300734Y-12835890D01*
X-1292860Y-12828778D01*
X-1292352Y-12828270D01*
X-1283716Y-12821920D01*
X-1283208Y-12821666D01*
X-1273810Y-12816586D01*
X-1273302Y-12816332D01*
X-1263396Y-12812268D01*
X-1262634Y-12812014D01*
X-1252474Y-12809474D01*
X-1251712Y-12809220D01*
X-1241298Y-12807950D01*
X-1229360Y-12807950D01*
X-1218692Y-12809220D01*
X-1217930Y-12809474D01*
X-1207770Y-12812014D01*
X-1207008Y-12812268D01*
X-1197102Y-12816332D01*
X-1196594Y-12816586D01*
X-1187196Y-12821666D01*
X-1186688Y-12821920D01*
X-1178052Y-12828270D01*
X-1177544Y-12828778D01*
X-1169670Y-12835890D01*
X-1169416Y-12836398D01*
X-1162558Y-12844780D01*
X-1162050Y-12845288D01*
X-1156462Y-12854178D01*
X-1156208Y-12854686D01*
X-1151636Y-12864338D01*
X-1151382Y-12865100D01*
X-1148080Y-12875260D01*
X-1147826Y-12875768D01*
X-1145794Y-12886182D01*
X-1145794Y-12886944D01*
X-1145032Y-12897612D01*
X-1145032Y-12923266D01*
X-1145794Y-12933934D01*
X-1145794Y-12934442D01*
X-1147826Y-12944856D01*
X-1148080Y-12945618D01*
X-1151382Y-12955778D01*
X-1151636Y-12956286D01*
X-1156208Y-12965938D01*
X-1156462Y-12966446D01*
X-1162050Y-12975590D01*
X-1162558Y-12976098D01*
X-1169416Y-12984226D01*
X-1169670Y-12984734D01*
X-1177544Y-12992100D01*
X-1178052Y-12992354D01*
X-1186688Y-12998704D01*
X-1187196Y-12999212D01*
X-1196594Y-13004292D01*
X-1197102Y-13004546D01*
X-1207008Y-13008356D01*
X-1207770Y-13008610D01*
X-1217930Y-13011404D01*
X-1218692Y-13011404D01*
X-1229360Y-13012674D01*
G37*
G36*
X-715264Y-11809476D02*
G01*
X-715772Y-11809222D01*
X-726440Y-11807952D01*
X-726948Y-11807952D01*
X-737362Y-11805158D01*
X-737870Y-11805158D01*
X-747776Y-11801094D01*
X-748538Y-11800840D01*
X-757936Y-11795760D01*
X-758444Y-11795252D01*
X-767080Y-11789156D01*
X-767588Y-11788648D01*
X-775208Y-11781282D01*
X-775716Y-11780774D01*
X-782574Y-11772646D01*
X-782828Y-11772138D01*
X-788670Y-11763248D01*
X-788924Y-11762486D01*
X-793496Y-11752834D01*
X-793750Y-11752326D01*
X-797052Y-11742166D01*
X-797052Y-11741658D01*
X-799084Y-11730990D01*
X-799338Y-11730482D01*
X-799846Y-11719814D01*
X-799846Y-11694160D01*
X-799338Y-11683492D01*
X-799084Y-11682984D01*
X-797052Y-11672316D01*
X-797052Y-11671808D01*
X-793750Y-11661648D01*
X-793496Y-11660886D01*
X-788924Y-11651234D01*
X-788670Y-11650726D01*
X-782828Y-11641836D01*
X-782574Y-11641328D01*
X-775716Y-11632946D01*
X-775208Y-11632692D01*
X-767588Y-11625326D01*
X-767080Y-11624818D01*
X-758444Y-11618722D01*
X-757936Y-11618214D01*
X-748538Y-11613134D01*
X-747776Y-11612880D01*
X-737870Y-11608816D01*
X-737362Y-11608816D01*
X-726948Y-11606022D01*
X-726440Y-11606022D01*
X-715772Y-11604498D01*
X-703834Y-11604498D01*
X-693166Y-11606022D01*
X-692658Y-11606022D01*
X-682244Y-11608816D01*
X-681736Y-11608816D01*
X-671830Y-11612880D01*
X-671068Y-11613134D01*
X-661924Y-11618214D01*
X-661162Y-11618722D01*
X-652526Y-11624818D01*
X-652018Y-11625326D01*
X-644398Y-11632692D01*
X-643890Y-11632946D01*
X-637032Y-11641328D01*
X-636778Y-11641836D01*
X-630936Y-11650726D01*
X-630682Y-11651234D01*
X-626110Y-11660886D01*
X-625856Y-11661648D01*
X-622554Y-11671808D01*
X-622554Y-11672316D01*
X-620522Y-11682984D01*
X-620522Y-11683492D01*
X-619760Y-11694160D01*
X-619760Y-11719814D01*
X-620522Y-11730482D01*
X-620522Y-11730990D01*
X-622554Y-11741658D01*
X-622554Y-11742166D01*
X-625856Y-11752326D01*
X-626110Y-11752834D01*
X-630682Y-11762486D01*
X-630936Y-11763248D01*
X-636778Y-11772138D01*
X-637032Y-11772646D01*
X-643890Y-11780774D01*
X-644398Y-11781282D01*
X-652018Y-11788648D01*
X-652526Y-11789156D01*
X-661162Y-11795252D01*
X-661924Y-11795760D01*
X-671068Y-11800840D01*
X-671830Y-11801094D01*
X-681736Y-11805158D01*
X-682244Y-11805158D01*
X-692658Y-11807952D01*
X-693166Y-11807952D01*
X-703834Y-11809222D01*
X-704596Y-11809476D01*
G37*
G36*
X-965200Y-11809476D02*
G01*
X-965708Y-11809222D01*
X-976376Y-11807952D01*
X-976884Y-11807952D01*
X-987298Y-11805158D01*
X-988060Y-11805158D01*
X-997966Y-11801094D01*
X-998474Y-11800840D01*
X-1007871Y-11795760D01*
X-1008380Y-11795252D01*
X-1017016Y-11789156D01*
X-1017524Y-11788648D01*
X-1025144Y-11781282D01*
X-1025652Y-11780774D01*
X-1032510Y-11772646D01*
X-1032764Y-11772138D01*
X-1038606Y-11763248D01*
X-1038860Y-11762486D01*
X-1043432Y-11752834D01*
X-1043686Y-11752326D01*
X-1046987Y-11742166D01*
X-1047242Y-11741658D01*
X-1049020Y-11730990D01*
X-1049274Y-11730482D01*
X-1049782Y-11719814D01*
X-1049782Y-11694160D01*
X-1049274Y-11683492D01*
X-1049020Y-11682984D01*
X-1047242Y-11672316D01*
X-1046987Y-11671808D01*
X-1043686Y-11661648D01*
X-1043432Y-11661140D01*
X-1038860Y-11651488D01*
X-1038606Y-11650726D01*
X-1032764Y-11641836D01*
X-1032510Y-11641328D01*
X-1025652Y-11632946D01*
X-1025144Y-11632692D01*
X-1017524Y-11625326D01*
X-1017016Y-11624818D01*
X-1008380Y-11618722D01*
X-1007871Y-11618214D01*
X-998474Y-11613134D01*
X-997966Y-11612880D01*
X-988060Y-11608816D01*
X-987298Y-11608816D01*
X-976884Y-11606022D01*
X-976376Y-11606022D01*
X-965708Y-11604498D01*
X-953769Y-11604498D01*
X-943356Y-11606022D01*
X-942594Y-11606022D01*
X-932180Y-11608816D01*
X-931671Y-11608816D01*
X-921766Y-11612880D01*
X-921258Y-11613134D01*
X-911860Y-11618214D01*
X-911352Y-11618722D01*
X-902716Y-11624818D01*
X-902208Y-11625326D01*
X-894334Y-11632692D01*
X-894080Y-11632946D01*
X-887221Y-11641328D01*
X-886714Y-11641836D01*
X-881126Y-11650726D01*
X-880618Y-11651488D01*
X-876300Y-11661140D01*
X-876046Y-11661648D01*
X-872744Y-11671808D01*
X-872490Y-11672316D01*
X-870458Y-11682984D01*
X-870458Y-11683492D01*
X-869696Y-11694160D01*
X-869696Y-11719814D01*
X-870458Y-11730482D01*
X-870458Y-11730990D01*
X-872490Y-11741658D01*
X-872744Y-11742166D01*
X-876046Y-11752326D01*
X-876300Y-11752834D01*
X-880618Y-11762486D01*
X-881126Y-11763248D01*
X-886714Y-11772138D01*
X-887221Y-11772646D01*
X-894080Y-11780774D01*
X-894334Y-11781282D01*
X-902208Y-11788648D01*
X-902716Y-11789156D01*
X-911352Y-11795252D01*
X-911860Y-11795760D01*
X-921258Y-11800840D01*
X-921766Y-11801094D01*
X-931671Y-11805158D01*
X-932180Y-11805158D01*
X-942594Y-11807952D01*
X-943356Y-11807952D01*
X-953769Y-11809222D01*
X-954532Y-11809476D01*
G37*
G36*
X-1215136Y-11809476D02*
G01*
X-1215898Y-11809222D01*
X-1226312Y-11807952D01*
X-1227074Y-11807952D01*
X-1237234Y-11805158D01*
X-1237996Y-11805158D01*
X-1247902Y-11801094D01*
X-1248410Y-11800840D01*
X-1257808Y-11795760D01*
X-1258316Y-11795252D01*
X-1266952Y-11789156D01*
X-1267460Y-11788648D01*
X-1275334Y-11781282D01*
X-1275588Y-11780774D01*
X-1282446Y-11772646D01*
X-1282954Y-11772138D01*
X-1288542Y-11763248D01*
X-1288796Y-11762486D01*
X-1293368Y-11752834D01*
X-1293622Y-11752326D01*
X-1296924Y-11742166D01*
X-1297178Y-11741658D01*
X-1299210Y-11730990D01*
X-1299210Y-11730482D01*
X-1299972Y-11719814D01*
X-1299972Y-11694160D01*
X-1299210Y-11683492D01*
X-1299210Y-11682984D01*
X-1297178Y-11672316D01*
X-1296924Y-11671808D01*
X-1293622Y-11661648D01*
X-1293368Y-11660886D01*
X-1288796Y-11651234D01*
X-1288542Y-11650726D01*
X-1282954Y-11641836D01*
X-1282446Y-11641328D01*
X-1275588Y-11632946D01*
X-1275334Y-11632692D01*
X-1267460Y-11625326D01*
X-1266952Y-11624818D01*
X-1258316Y-11618722D01*
X-1257808Y-11618214D01*
X-1248410Y-11613134D01*
X-1247902Y-11612880D01*
X-1237996Y-11608816D01*
X-1237234Y-11608816D01*
X-1227074Y-11606022D01*
X-1226312Y-11606022D01*
X-1215898Y-11604498D01*
X-1203960Y-11604498D01*
X-1193292Y-11606022D01*
X-1192530Y-11606022D01*
X-1182370Y-11608816D01*
X-1181608Y-11608816D01*
X-1171702Y-11612880D01*
X-1171194Y-11613134D01*
X-1161796Y-11618214D01*
X-1161288Y-11618722D01*
X-1152652Y-11624818D01*
X-1152144Y-11625326D01*
X-1144270Y-11632692D01*
X-1144016Y-11632946D01*
X-1137158Y-11641328D01*
X-1136650Y-11641836D01*
X-1131062Y-11650726D01*
X-1130808Y-11651234D01*
X-1126236Y-11660886D01*
X-1125982Y-11661648D01*
X-1122680Y-11671808D01*
X-1122426Y-11672316D01*
X-1120394Y-11682984D01*
X-1120394Y-11683492D01*
X-1119632Y-11694160D01*
X-1119632Y-11719814D01*
X-1120394Y-11730482D01*
X-1120394Y-11730990D01*
X-1122426Y-11741658D01*
X-1122680Y-11742166D01*
X-1125982Y-11752326D01*
X-1126236Y-11752834D01*
X-1130808Y-11762486D01*
X-1131062Y-11763248D01*
X-1136650Y-11772138D01*
X-1137158Y-11772646D01*
X-1144016Y-11780774D01*
X-1144270Y-11781282D01*
X-1152144Y-11788648D01*
X-1152652Y-11789156D01*
X-1161288Y-11795252D01*
X-1161796Y-11795760D01*
X-1171194Y-11800840D01*
X-1171702Y-11801094D01*
X-1181608Y-11805158D01*
X-1182370Y-11805158D01*
X-1192530Y-11807952D01*
X-1193292Y-11807952D01*
X-1203960Y-11809222D01*
X-1204468Y-11809476D01*
G37*
D13*
G01*
X139598Y-13741400D03*
G01*
X-114401Y-13487400D03*
G01*
X139598Y-13487400D03*
G01*
X139598Y-13233400D03*
G01*
X139598Y-12979400D03*
G01*
X139598Y-12725400D03*
G01*
X139598Y-12471400D03*
G01*
X139598Y-12217400D03*
G01*
X139598Y-11963400D03*
G01*
X139598Y-11709400D03*
G01*
X139598Y-11455400D03*
G01*
X-114401Y-11455400D03*
G01*
X-114401Y-11709400D03*
G01*
X-114401Y-11963400D03*
G01*
X-114401Y-12217400D03*
G01*
X-114401Y-12471400D03*
G01*
X-114401Y-12725400D03*
G01*
X-114401Y-12979400D03*
G01*
X-114401Y-13233400D03*
G01*
X-114401Y-13741400D03*
G36*
X1511300Y-14212824D02*
G01*
X1500886Y-14211807D01*
X1500124Y-14211807D01*
X1489710Y-14209522D01*
X1489202Y-14209268D01*
X1479042Y-14205712D01*
X1468882Y-14200632D01*
X1468374Y-14200124D01*
X1459484Y-14194282D01*
X1458976Y-14193774D01*
X1451102Y-14186662D01*
X1450848Y-14186662D01*
X1432814Y-14168628D01*
X1425956Y-14160754D01*
X1425448Y-14160246D01*
X1419352Y-14151356D01*
X1414018Y-14140688D01*
X1410462Y-14130528D01*
X1410208Y-14130019D01*
X1407922Y-14119606D01*
X1407922Y-14118844D01*
X1406906Y-14108430D01*
X1406906Y-14107668D01*
X1407160Y-14097000D01*
X1407160Y-14096492D01*
X1408938Y-14085824D01*
X1408938Y-14085316D01*
X1411986Y-14074901D01*
X1412240Y-14074394D01*
X1416558Y-14064488D01*
X1416812Y-14063980D01*
X1422146Y-14054836D01*
X1422400Y-14054328D01*
X1429004Y-14045946D01*
X1437640Y-14037310D01*
X1446022Y-14030960D01*
X1446530Y-14030451D01*
X1455674Y-14025118D01*
X1456182Y-14024863D01*
X1466088Y-14020546D01*
X1466596Y-14020292D01*
X1477010Y-14017244D01*
X1477518Y-14017244D01*
X1488186Y-14015466D01*
X1488694Y-14015466D01*
X1499362Y-14015212D01*
X1500124Y-14015212D01*
X1510538Y-14016228D01*
X1511300Y-14016228D01*
X1521714Y-14018513D01*
X1522222Y-14018768D01*
X1532382Y-14022324D01*
X1542542Y-14027404D01*
X1543050Y-14027912D01*
X1551686Y-14033754D01*
X1552194Y-14034262D01*
X1560322Y-14041374D01*
X1560576Y-14041374D01*
X1578356Y-14059154D01*
X1578356Y-14059407D01*
X1585468Y-14067282D01*
X1585976Y-14067790D01*
X1591818Y-14076680D01*
X1592326Y-14077188D01*
X1597406Y-14087348D01*
X1600962Y-14097507D01*
X1601216Y-14098016D01*
X1603502Y-14108430D01*
X1603502Y-14109192D01*
X1604518Y-14119606D01*
X1604518Y-14120368D01*
X1604264Y-14131036D01*
X1604264Y-14131544D01*
X1602486Y-14142212D01*
X1602486Y-14142719D01*
X1599438Y-14153134D01*
X1599184Y-14153642D01*
X1594866Y-14163548D01*
X1594612Y-14164056D01*
X1589278Y-14173200D01*
X1588770Y-14173707D01*
X1582420Y-14182090D01*
X1573784Y-14190726D01*
X1565402Y-14197076D01*
X1564894Y-14197584D01*
X1555750Y-14202918D01*
X1555242Y-14203172D01*
X1545336Y-14207490D01*
X1544828Y-14207744D01*
X1534414Y-14210792D01*
X1533906Y-14210792D01*
X1523238Y-14212569D01*
X1522730Y-14212569D01*
X1512062Y-14212824D01*
G37*
G36*
X1688084Y-14036040D02*
G01*
X1677670Y-14035024D01*
X1676907Y-14035024D01*
X1666493Y-14032738D01*
X1665732Y-14032484D01*
X1655825Y-14028928D01*
X1645666Y-14023848D01*
X1645157Y-14023340D01*
X1636268Y-14017498D01*
X1635760Y-14016990D01*
X1627886Y-14009878D01*
X1627632Y-14009878D01*
X1609598Y-13991844D01*
X1602740Y-13983969D01*
X1602232Y-13983462D01*
X1596136Y-13974572D01*
X1590802Y-13963904D01*
X1587246Y-13953744D01*
X1586992Y-13953236D01*
X1584706Y-13942822D01*
X1584706Y-13942060D01*
X1583690Y-13931646D01*
X1583690Y-13930884D01*
X1583944Y-13920216D01*
X1583944Y-13919707D01*
X1585722Y-13909040D01*
X1585722Y-13908532D01*
X1588770Y-13898118D01*
X1589024Y-13897610D01*
X1593342Y-13887704D01*
X1593596Y-13887196D01*
X1598930Y-13878051D01*
X1599438Y-13877544D01*
X1605788Y-13869162D01*
X1613916Y-13861034D01*
X1614424Y-13860780D01*
X1622806Y-13854176D01*
X1623314Y-13853668D01*
X1632457Y-13848334D01*
X1632966Y-13848080D01*
X1642872Y-13843762D01*
X1643380Y-13843507D01*
X1653793Y-13840460D01*
X1654302Y-13840460D01*
X1664716Y-13838682D01*
X1665478Y-13838682D01*
X1676146Y-13838428D01*
X1676654Y-13838428D01*
X1687322Y-13839444D01*
X1688084Y-13839444D01*
X1698498Y-13841730D01*
X1699006Y-13841984D01*
X1709166Y-13845540D01*
X1709674Y-13845794D01*
X1719072Y-13850619D01*
X1719834Y-13851128D01*
X1728470Y-13856969D01*
X1728978Y-13857478D01*
X1737106Y-13864590D01*
X1755139Y-13882624D01*
X1762252Y-13890751D01*
X1762760Y-13891260D01*
X1768602Y-13899896D01*
X1769110Y-13900404D01*
X1774189Y-13910563D01*
X1777746Y-13920724D01*
X1778000Y-13921232D01*
X1780286Y-13931646D01*
X1780286Y-13932407D01*
X1781302Y-13943076D01*
X1781302Y-13943584D01*
X1781048Y-13954251D01*
X1781048Y-13955013D01*
X1779270Y-13965428D01*
X1779016Y-13965936D01*
X1776222Y-13976350D01*
X1775968Y-13976857D01*
X1771650Y-13986763D01*
X1771396Y-13987272D01*
X1766062Y-13996416D01*
X1765554Y-13996924D01*
X1758950Y-14005306D01*
X1758696Y-14005813D01*
X1750568Y-14013942D01*
X1742186Y-14020292D01*
X1741678Y-14020800D01*
X1732534Y-14026134D01*
X1732025Y-14026388D01*
X1722120Y-14030706D01*
X1721612Y-14030960D01*
X1711198Y-14034007D01*
X1710689Y-14034007D01*
X1700022Y-14035786D01*
X1699514Y-14035786D01*
X1688846Y-14036040D01*
G37*
G36*
X1864868Y-13859256D02*
G01*
X1854200Y-13858240D01*
X1853692Y-13858240D01*
X1843278Y-13855954D01*
X1842770Y-13855700D01*
X1832610Y-13852144D01*
X1821942Y-13846810D01*
X1813052Y-13840713D01*
X1812543Y-13840206D01*
X1804670Y-13833348D01*
X1786382Y-13815060D01*
X1779524Y-13807186D01*
X1779016Y-13806678D01*
X1772920Y-13797788D01*
X1767586Y-13787119D01*
X1764030Y-13776960D01*
X1763775Y-13776451D01*
X1761489Y-13766038D01*
X1761489Y-13765530D01*
X1760474Y-13754862D01*
X1760474Y-13754100D01*
X1760728Y-13743432D01*
X1760728Y-13742924D01*
X1762506Y-13732256D01*
X1762506Y-13731748D01*
X1765554Y-13721334D01*
X1765807Y-13720826D01*
X1770125Y-13710919D01*
X1770380Y-13710412D01*
X1775714Y-13701268D01*
X1775968Y-13700760D01*
X1782572Y-13692378D01*
X1790700Y-13684250D01*
X1791207Y-13683996D01*
X1799589Y-13677392D01*
X1800098Y-13676884D01*
X1809242Y-13671550D01*
X1809750Y-13671296D01*
X1819656Y-13666978D01*
X1820164Y-13666724D01*
X1830578Y-13663930D01*
X1831086Y-13663676D01*
X1841500Y-13661898D01*
X1842262Y-13661898D01*
X1852930Y-13661644D01*
X1853438Y-13661644D01*
X1864106Y-13662660D01*
X1864868Y-13662660D01*
X1875282Y-13664946D01*
X1875789Y-13665200D01*
X1885950Y-13668756D01*
X1886457Y-13669010D01*
X1895856Y-13673836D01*
X1896618Y-13674344D01*
X1905254Y-13680186D01*
X1905762Y-13680694D01*
X1913889Y-13687806D01*
X1931924Y-13705840D01*
X1939036Y-13713968D01*
X1939543Y-13714476D01*
X1945386Y-13723112D01*
X1945893Y-13723619D01*
X1950974Y-13733780D01*
X1954530Y-13743940D01*
X1954784Y-13744448D01*
X1957070Y-13754862D01*
X1957070Y-13755624D01*
X1958086Y-13766292D01*
X1958086Y-13766800D01*
X1957832Y-13777468D01*
X1957832Y-13777976D01*
X1956054Y-13788644D01*
X1955800Y-13789151D01*
X1953006Y-13799566D01*
X1952752Y-13800074D01*
X1948434Y-13809980D01*
X1948180Y-13810488D01*
X1942846Y-13819632D01*
X1942338Y-13820140D01*
X1935734Y-13828522D01*
X1935480Y-13829030D01*
X1927352Y-13837157D01*
X1918970Y-13843762D01*
X1918462Y-13844016D01*
X1909318Y-13849350D01*
X1908556Y-13849604D01*
X1898904Y-13853922D01*
X1898396Y-13854176D01*
X1887982Y-13857224D01*
X1887474Y-13857224D01*
X1876806Y-13859001D01*
X1876298Y-13859001D01*
X1865630Y-13859256D01*
G37*
G36*
X2041652Y-13682472D02*
G01*
X2030984Y-13681456D01*
X2030475Y-13681456D01*
X2020062Y-13679169D01*
X2019300Y-13678916D01*
X2009393Y-13675360D01*
X1998725Y-13670026D01*
X1989836Y-13663930D01*
X1989328Y-13663422D01*
X1981454Y-13656563D01*
X1963166Y-13638276D01*
X1956307Y-13630401D01*
X1955800Y-13629894D01*
X1949704Y-13621004D01*
X1944370Y-13610336D01*
X1940814Y-13600430D01*
X1940560Y-13599668D01*
X1938274Y-13589254D01*
X1938274Y-13588492D01*
X1937257Y-13578078D01*
X1937257Y-13577316D01*
X1937512Y-13566648D01*
X1937512Y-13566140D01*
X1939289Y-13555472D01*
X1939289Y-13554963D01*
X1942338Y-13544550D01*
X1942592Y-13544042D01*
X1946910Y-13534136D01*
X1947164Y-13533628D01*
X1952498Y-13524484D01*
X1952752Y-13523976D01*
X1959356Y-13515594D01*
X1967738Y-13507212D01*
X1976374Y-13500607D01*
X1976882Y-13500100D01*
X1986025Y-13494766D01*
X1986534Y-13494512D01*
X1996439Y-13490194D01*
X1996948Y-13489940D01*
X2007107Y-13487146D01*
X2007870Y-13486892D01*
X2018284Y-13485113D01*
X2019046Y-13485113D01*
X2029714Y-13484860D01*
X2030222Y-13484860D01*
X2040889Y-13485876D01*
X2041652Y-13485876D01*
X2052066Y-13488162D01*
X2052574Y-13488416D01*
X2062734Y-13491972D01*
X2063242Y-13492226D01*
X2072639Y-13497051D01*
X2073402Y-13497560D01*
X2082038Y-13503401D01*
X2082546Y-13503910D01*
X2090674Y-13511022D01*
X2108708Y-13529056D01*
X2115820Y-13537184D01*
X2116328Y-13537692D01*
X2122170Y-13546328D01*
X2122424Y-13547090D01*
X2127504Y-13556488D01*
X2127758Y-13556996D01*
X2131314Y-13567156D01*
X2131568Y-13567663D01*
X2133854Y-13578078D01*
X2133854Y-13578840D01*
X2134870Y-13589507D01*
X2134870Y-13590016D01*
X2134616Y-13600684D01*
X2134616Y-13601446D01*
X2132838Y-13611860D01*
X2132584Y-13612368D01*
X2129790Y-13622782D01*
X2129536Y-13623290D01*
X2125218Y-13633196D01*
X2124964Y-13633704D01*
X2119630Y-13642848D01*
X2119122Y-13643356D01*
X2112518Y-13651992D01*
X2104136Y-13660374D01*
X2095754Y-13666978D01*
X2095246Y-13667232D01*
X2086102Y-13672566D01*
X2085339Y-13672819D01*
X2075688Y-13677138D01*
X2075180Y-13677392D01*
X2064766Y-13680440D01*
X2064257Y-13680440D01*
X2053589Y-13682218D01*
X2053082Y-13682218D01*
X2042414Y-13682472D01*
G37*
M02*
