G04 Layer: TopSilkscreenLayer*
G04 EasyEDA v6.5.22, 2022-11-10 11:50:32*
G04 78093d0df57e497ba92d4915601d0112,b20a208c93c440fcb0453c65c4fa92e7,10*
G04 Gerber Generator version 0.2*
G04 Scale: 100 percent, Rotated: No, Reflected: No *
G04 Dimensions in millimeters *
G04 leading zeros omitted , absolute positions ,4 integer and 5 decimal *
%FSLAX45Y45*%
%MOMM*%

%ADD10C,0.1501*%
%ADD11C,0.1778*%
%ADD12C,0.1001*%
%ADD13C,0.1199*%

%LPD*%
D10*
X-2118106Y-12130024D02*
G01*
X-2118106Y-12212066D01*
X-2159000Y-12170918D02*
G01*
X-2077212Y-12170918D01*
X-1977136Y-12170918D02*
G01*
X-1895348Y-12170918D01*
X1554246Y-14254246D02*
G01*
X1621744Y-14321744D01*
X1554246Y-14254246D02*
G01*
X1583174Y-14225320D01*
X1596029Y-14218892D01*
X1602458Y-14218892D01*
X1612099Y-14222105D01*
X1618528Y-14228533D01*
X1621744Y-14238175D01*
X1621744Y-14244604D01*
X1615315Y-14257461D01*
X1586387Y-14286387D02*
G01*
X1615315Y-14257461D01*
X1628170Y-14251033D01*
X1634599Y-14251033D01*
X1644241Y-14254246D01*
X1653885Y-14263888D01*
X1657098Y-14273532D01*
X1657098Y-14279958D01*
X1650669Y-14292816D01*
X1621744Y-14321744D01*
X1639742Y-14200891D02*
G01*
X1636527Y-14197677D01*
X1633313Y-14188036D01*
X1633313Y-14181607D01*
X1636527Y-14171965D01*
X1649384Y-14159108D01*
X1659026Y-14155894D01*
X1665455Y-14155894D01*
X1675096Y-14159108D01*
X1681525Y-14165536D01*
X1684738Y-14175178D01*
X1687954Y-14191249D01*
X1687954Y-14255531D01*
X1732950Y-14210535D01*
X1736166Y-14072328D02*
G01*
X1803661Y-14139824D01*
X1736166Y-14072328D02*
G01*
X1765091Y-14043400D01*
X1777949Y-14036972D01*
X1784377Y-14036972D01*
X1794019Y-14040187D01*
X1800448Y-14046614D01*
X1803661Y-14056258D01*
X1803661Y-14062684D01*
X1797232Y-14075542D01*
X1768307Y-14104467D02*
G01*
X1797232Y-14075542D01*
X1810090Y-14069113D01*
X1816519Y-14069113D01*
X1826160Y-14072328D01*
X1835802Y-14081970D01*
X1839018Y-14091612D01*
X1839018Y-14098041D01*
X1832589Y-14110896D01*
X1803661Y-14139824D01*
X1815233Y-14018973D02*
G01*
X1818446Y-14009331D01*
X1818446Y-13990045D01*
X1885942Y-14057543D01*
X1914870Y-13893622D02*
G01*
X1956653Y-13986832D01*
X1914870Y-13893622D02*
G01*
X2008080Y-13935405D01*
X1943798Y-13954691D02*
G01*
X1975939Y-13922550D01*
X1981080Y-13859553D02*
G01*
X1977867Y-13856340D01*
X1974651Y-13846695D01*
X1974651Y-13840269D01*
X1977867Y-13830625D01*
X1990722Y-13817770D01*
X2000366Y-13814554D01*
X2006793Y-13814554D01*
X2016437Y-13817770D01*
X2022863Y-13824198D01*
X2026079Y-13833840D01*
X2029292Y-13849911D01*
X2029292Y-13914193D01*
X2074291Y-13869195D01*
X2103216Y-13705276D02*
G01*
X2145002Y-13798483D01*
X2103216Y-13705276D02*
G01*
X2196426Y-13747059D01*
X2132144Y-13766342D02*
G01*
X2164285Y-13734201D01*
X2163000Y-13671207D02*
G01*
X2166213Y-13661562D01*
X2166213Y-13642279D01*
X2233711Y-13709774D01*
X990600Y-12348718D02*
G01*
X1072388Y-12348718D01*
X1353312Y-12307824D02*
G01*
X1353312Y-12389866D01*
X1312418Y-12348718D02*
G01*
X1394206Y-12348718D01*
X-609600Y-11302238D02*
G01*
X-609600Y-11206734D01*
X-609600Y-11302238D02*
G01*
X-650494Y-11302238D01*
X-664210Y-11297666D01*
X-668782Y-11293094D01*
X-673354Y-11284204D01*
X-673354Y-11270488D01*
X-668782Y-11261344D01*
X-664210Y-11256772D01*
X-650494Y-11252200D01*
X-609600Y-11252200D01*
X-703326Y-11302238D02*
G01*
X-703326Y-11206734D01*
X-703326Y-11302238D02*
G01*
X-744220Y-11302238D01*
X-757682Y-11297666D01*
X-762254Y-11293094D01*
X-766826Y-11284204D01*
X-766826Y-11275060D01*
X-762254Y-11265916D01*
X-757682Y-11261344D01*
X-744220Y-11256772D01*
X-703326Y-11256772D01*
X-735076Y-11256772D02*
G01*
X-766826Y-11206734D01*
X-824230Y-11302238D02*
G01*
X-815086Y-11297666D01*
X-805942Y-11288776D01*
X-801370Y-11279632D01*
X-796798Y-11265916D01*
X-796798Y-11243310D01*
X-801370Y-11229594D01*
X-805942Y-11220450D01*
X-815086Y-11211306D01*
X-824230Y-11206734D01*
X-842264Y-11206734D01*
X-851408Y-11211306D01*
X-860552Y-11220450D01*
X-865124Y-11229594D01*
X-869696Y-11243310D01*
X-869696Y-11265916D01*
X-865124Y-11279632D01*
X-860552Y-11288776D01*
X-851408Y-11297666D01*
X-842264Y-11302238D01*
X-824230Y-11302238D01*
X-899668Y-11302238D02*
G01*
X-899668Y-11206734D01*
X-899668Y-11302238D02*
G01*
X-940562Y-11302238D01*
X-954024Y-11297666D01*
X-958596Y-11293094D01*
X-963168Y-11284204D01*
X-963168Y-11275060D01*
X-958596Y-11265916D01*
X-954024Y-11261344D01*
X-940562Y-11256772D01*
X-899668Y-11256772D02*
G01*
X-940562Y-11256772D01*
X-954024Y-11252200D01*
X-958596Y-11247882D01*
X-963168Y-11238738D01*
X-963168Y-11225022D01*
X-958596Y-11215878D01*
X-954024Y-11211306D01*
X-940562Y-11206734D01*
X-899668Y-11206734D01*
X-993140Y-11302238D02*
G01*
X-993140Y-11206734D01*
X-993140Y-11302238D02*
G01*
X-1052322Y-11302238D01*
X-993140Y-11256772D02*
G01*
X-1029716Y-11256772D01*
X-993140Y-11206734D02*
G01*
X-1052322Y-11206734D01*
X-1127506Y-11342624D02*
G01*
X-1127506Y-11424666D01*
X-1168400Y-11383518D02*
G01*
X-1086612Y-11383518D01*
X-986536Y-11383518D02*
G01*
X-904748Y-11383518D01*
X-741172Y-11342624D02*
G01*
X-750316Y-11333734D01*
X-763778Y-11329162D01*
X-782066Y-11329162D01*
X-795782Y-11333734D01*
X-804672Y-11342624D01*
X-804672Y-11351768D01*
X-800100Y-11360912D01*
X-795782Y-11365484D01*
X-786638Y-11370056D01*
X-759206Y-11379200D01*
X-750316Y-11383518D01*
X-745744Y-11388090D01*
X-741172Y-11397234D01*
X-741172Y-11410950D01*
X-750316Y-11420094D01*
X-763778Y-11424666D01*
X-782066Y-11424666D01*
X-795782Y-11420094D01*
X-804672Y-11410950D01*
X1900102Y-13279302D02*
G01*
X1832571Y-13211771D01*
X1900102Y-13279302D02*
G01*
X1858256Y-13321151D01*
X1867954Y-13247154D02*
G01*
X1842269Y-13272838D01*
X1782640Y-13377727D02*
G01*
X1795393Y-13377547D01*
X1808144Y-13371261D01*
X1821075Y-13358329D01*
X1827362Y-13345576D01*
X1827542Y-13332825D01*
X1821075Y-13326358D01*
X1811378Y-13323128D01*
X1804911Y-13323128D01*
X1795393Y-13326181D01*
X1769529Y-13339112D01*
X1760192Y-13342345D01*
X1753725Y-13342345D01*
X1744027Y-13339112D01*
X1734327Y-13329412D01*
X1734327Y-13316480D01*
X1740613Y-13303730D01*
X1753544Y-13290798D01*
X1766298Y-13284512D01*
X1779229Y-13284512D01*
X1721396Y-13458009D02*
G01*
X1608782Y-13435558D01*
X1676316Y-13503092D02*
G01*
X1653865Y-13390478D01*
X1600700Y-13559668D02*
G01*
X1613453Y-13559487D01*
X1626204Y-13553201D01*
X1639138Y-13540270D01*
X1645602Y-13527338D01*
X1645602Y-13514765D01*
X1639138Y-13508299D01*
X1629437Y-13505065D01*
X1623151Y-13504887D01*
X1613453Y-13508121D01*
X1587591Y-13521052D01*
X1578251Y-13524285D01*
X1571785Y-13524285D01*
X1562087Y-13521052D01*
X1552387Y-13511352D01*
X1552387Y-13498421D01*
X1558673Y-13485670D01*
X1571604Y-13472739D01*
X1584535Y-13466272D01*
X1597289Y-13466452D01*
X1475336Y-13672098D02*
G01*
X1485036Y-13675332D01*
X1497609Y-13675332D01*
X1507307Y-13672098D01*
X1520238Y-13659167D01*
X1523471Y-13649469D01*
X1523471Y-13636896D01*
X1520238Y-13627199D01*
X1513771Y-13614267D01*
X1497787Y-13598281D01*
X1484856Y-13591816D01*
X1475158Y-13588583D01*
X1462405Y-13588403D01*
X1452707Y-13591636D01*
X1439776Y-13604567D01*
X1436542Y-13614267D01*
X1436723Y-13627018D01*
X1439953Y-13636716D01*
X1449654Y-13646416D01*
X1465638Y-13630432D02*
G01*
X1449654Y-13646416D01*
X1470129Y-13709279D02*
G01*
X1402598Y-13641745D01*
X1470129Y-13709279D02*
G01*
X1357515Y-13686828D01*
X1425046Y-13754359D02*
G01*
X1357515Y-13686828D01*
X1403855Y-13775552D02*
G01*
X1336321Y-13708021D01*
X1403855Y-13775552D02*
G01*
X1381404Y-13798003D01*
X1368473Y-13804468D01*
X1355719Y-13804648D01*
X1346022Y-13801415D01*
X1333091Y-13794948D01*
X1317104Y-13778964D01*
X1310640Y-13766032D01*
X1307406Y-13756335D01*
X1307406Y-13743404D01*
X1313870Y-13730470D01*
X1336321Y-13708021D01*
X1249573Y-13929832D02*
G01*
X1281722Y-13897683D01*
X1256040Y-13865534D01*
X1256040Y-13871999D01*
X1249573Y-13884932D01*
X1240053Y-13894450D01*
X1227122Y-13900917D01*
X1214191Y-13900917D01*
X1201440Y-13894630D01*
X1194973Y-13888163D01*
X1188506Y-13875232D01*
X1188506Y-13862301D01*
X1194973Y-13849370D01*
X1204493Y-13839850D01*
X1217424Y-13833386D01*
X1223888Y-13833386D01*
X1233589Y-13836616D01*
X1199464Y-13935041D02*
G01*
X1135164Y-13909177D01*
X1160848Y-13973657D02*
G01*
X1135164Y-13909177D01*
X-1940306Y-12739624D02*
G01*
X-1940306Y-12821666D01*
X-1981200Y-12780518D02*
G01*
X-1899412Y-12780518D01*
X-1799336Y-12780518D02*
G01*
X-1717548Y-12780518D01*
X-1553972Y-12739624D02*
G01*
X-1563116Y-12730734D01*
X-1576578Y-12726162D01*
X-1594866Y-12726162D01*
X-1608582Y-12730734D01*
X-1617472Y-12739624D01*
X-1617472Y-12748768D01*
X-1612900Y-12757912D01*
X-1608582Y-12762484D01*
X-1599438Y-12767056D01*
X-1572006Y-12776200D01*
X-1563116Y-12780518D01*
X-1558544Y-12785090D01*
X-1553972Y-12794234D01*
X-1553972Y-12807950D01*
X-1563116Y-12817094D01*
X-1576578Y-12821666D01*
X-1594866Y-12821666D01*
X-1608582Y-12817094D01*
X-1617472Y-12807950D01*
X-949706Y-13933424D02*
G01*
X-949706Y-14015466D01*
X-990600Y-13974318D02*
G01*
X-908812Y-13974318D01*
X-808736Y-13974318D02*
G01*
X-726948Y-13974318D01*
X1904961Y-12877154D02*
G01*
X1904961Y-12781650D01*
X1904961Y-12877154D02*
G01*
X1846033Y-12877154D01*
X1904961Y-12831688D02*
G01*
X1868639Y-12831688D01*
X1752307Y-12863438D02*
G01*
X1761451Y-12872582D01*
X1774913Y-12877154D01*
X1793201Y-12877154D01*
X1806917Y-12872582D01*
X1815807Y-12863438D01*
X1815807Y-12854294D01*
X1811489Y-12845404D01*
X1806917Y-12840832D01*
X1797773Y-12836260D01*
X1770341Y-12827116D01*
X1761451Y-12822544D01*
X1756879Y-12817972D01*
X1752307Y-12808828D01*
X1752307Y-12795366D01*
X1761451Y-12786222D01*
X1774913Y-12781650D01*
X1793201Y-12781650D01*
X1806917Y-12786222D01*
X1815807Y-12795366D01*
X-1327150Y-12470638D02*
G01*
X-1327150Y-12375134D01*
X-1295400Y-12470638D02*
G01*
X-1359154Y-12470638D01*
X-1389126Y-12470638D02*
G01*
X-1389126Y-12375134D01*
X-1389126Y-12420600D02*
G01*
X-1402588Y-12434316D01*
X-1411732Y-12438888D01*
X-1425448Y-12438888D01*
X-1434592Y-12434316D01*
X-1438910Y-12420600D01*
X-1438910Y-12375134D01*
X-1469136Y-12411710D02*
G01*
X-1523492Y-12411710D01*
X-1523492Y-12420600D01*
X-1518920Y-12429744D01*
X-1514602Y-12434316D01*
X-1505458Y-12438888D01*
X-1491742Y-12438888D01*
X-1482598Y-12434316D01*
X-1473708Y-12425172D01*
X-1469136Y-12411710D01*
X-1469136Y-12402566D01*
X-1473708Y-12388850D01*
X-1482598Y-12379706D01*
X-1491742Y-12375134D01*
X-1505458Y-12375134D01*
X-1514602Y-12379706D01*
X-1523492Y-12388850D01*
X-1553464Y-12438888D02*
G01*
X-1553464Y-12375134D01*
X-1553464Y-12411710D02*
G01*
X-1558036Y-12425172D01*
X-1567180Y-12434316D01*
X-1576324Y-12438888D01*
X-1590040Y-12438888D01*
X-1620012Y-12438888D02*
G01*
X-1620012Y-12375134D01*
X-1620012Y-12420600D02*
G01*
X-1633474Y-12434316D01*
X-1642618Y-12438888D01*
X-1656334Y-12438888D01*
X-1665478Y-12434316D01*
X-1670050Y-12420600D01*
X-1670050Y-12375134D01*
X-1670050Y-12420600D02*
G01*
X-1683512Y-12434316D01*
X-1692656Y-12438888D01*
X-1706372Y-12438888D01*
X-1715516Y-12434316D01*
X-1719834Y-12420600D01*
X-1719834Y-12375134D01*
X-1750060Y-12470638D02*
G01*
X-1754378Y-12466066D01*
X-1758950Y-12470638D01*
X-1754378Y-12475210D01*
X-1750060Y-12470638D01*
X-1754378Y-12438888D02*
G01*
X-1754378Y-12375134D01*
X-1838960Y-12425172D02*
G01*
X-1834388Y-12434316D01*
X-1820925Y-12438888D01*
X-1807210Y-12438888D01*
X-1793493Y-12434316D01*
X-1788922Y-12425172D01*
X-1793493Y-12416282D01*
X-1802638Y-12411710D01*
X-1825498Y-12407138D01*
X-1834388Y-12402566D01*
X-1838960Y-12393422D01*
X-1838960Y-12388850D01*
X-1834388Y-12379706D01*
X-1820925Y-12375134D01*
X-1807210Y-12375134D01*
X-1793493Y-12379706D01*
X-1788922Y-12388850D01*
X-1882648Y-12470638D02*
G01*
X-1882648Y-12393422D01*
X-1887220Y-12379706D01*
X-1896364Y-12375134D01*
X-1905507Y-12375134D01*
X-1868932Y-12438888D02*
G01*
X-1900936Y-12438888D01*
X-1958086Y-12438888D02*
G01*
X-1948942Y-12434316D01*
X-1940052Y-12425172D01*
X-1935480Y-12411710D01*
X-1935480Y-12402566D01*
X-1940052Y-12388850D01*
X-1948942Y-12379706D01*
X-1958086Y-12375134D01*
X-1971802Y-12375134D01*
X-1980946Y-12379706D01*
X-1989836Y-12388850D01*
X-1994407Y-12402566D01*
X-1994407Y-12411710D01*
X-1989836Y-12425172D01*
X-1980946Y-12434316D01*
X-1971802Y-12438888D01*
X-1958086Y-12438888D01*
X-2024380Y-12438888D02*
G01*
X-2024380Y-12375134D01*
X-2024380Y-12411710D02*
G01*
X-2028952Y-12425172D01*
X-2038096Y-12434316D01*
X-2047239Y-12438888D01*
X-2060956Y-12438888D01*
X2072893Y-12130024D02*
G01*
X2072893Y-12212066D01*
X2032000Y-12170918D02*
G01*
X2113788Y-12170918D01*
X2213864Y-12170918D02*
G01*
X2295652Y-12170918D01*
X2413101Y-12343663D02*
G01*
X2413101Y-12248159D01*
X2413101Y-12343663D02*
G01*
X2372207Y-12343663D01*
X2358491Y-12339091D01*
X2353919Y-12334519D01*
X2349347Y-12325629D01*
X2349347Y-12311913D01*
X2353919Y-12302769D01*
X2358491Y-12298197D01*
X2372207Y-12293625D01*
X2413101Y-12293625D01*
X2251303Y-12321057D02*
G01*
X2255621Y-12329947D01*
X2264765Y-12339091D01*
X2273909Y-12343663D01*
X2292197Y-12343663D01*
X2301087Y-12339091D01*
X2310231Y-12329947D01*
X2314803Y-12321057D01*
X2319375Y-12307341D01*
X2319375Y-12284735D01*
X2314803Y-12271019D01*
X2310231Y-12261875D01*
X2301087Y-12252731D01*
X2292197Y-12248159D01*
X2273909Y-12248159D01*
X2264765Y-12252731D01*
X2255621Y-12261875D01*
X2251303Y-12271019D01*
X2151227Y-12343663D02*
G01*
X2151227Y-12248159D01*
X2151227Y-12343663D02*
G01*
X2092045Y-12343663D01*
X2151227Y-12298197D02*
G01*
X2114905Y-12298197D01*
X2025751Y-12343663D02*
G01*
X2062073Y-12248159D01*
X2025751Y-12343663D02*
G01*
X1989429Y-12248159D01*
X2048357Y-12280163D02*
G01*
X2002891Y-12280163D01*
X1959457Y-12343663D02*
G01*
X1959457Y-12248159D01*
X1959457Y-12343663D02*
G01*
X1895703Y-12248159D01*
X1895703Y-12343663D02*
G01*
X1895703Y-12248159D01*
X-1727200Y-12343638D02*
G01*
X-1727200Y-12248134D01*
X-1727200Y-12343638D02*
G01*
X-1768093Y-12343638D01*
X-1781810Y-12339066D01*
X-1786382Y-12334494D01*
X-1790954Y-12325604D01*
X-1790954Y-12311888D01*
X-1786382Y-12302744D01*
X-1781810Y-12298172D01*
X-1768093Y-12293600D01*
X-1727200Y-12293600D01*
X-1888998Y-12321032D02*
G01*
X-1884425Y-12330176D01*
X-1875282Y-12339066D01*
X-1866392Y-12343638D01*
X-1848104Y-12343638D01*
X-1838960Y-12339066D01*
X-1829816Y-12330176D01*
X-1825498Y-12321032D01*
X-1820925Y-12307316D01*
X-1820925Y-12284710D01*
X-1825498Y-12270994D01*
X-1829816Y-12261850D01*
X-1838960Y-12252706D01*
X-1848104Y-12248134D01*
X-1866392Y-12248134D01*
X-1875282Y-12252706D01*
X-1884425Y-12261850D01*
X-1888998Y-12270994D01*
X-1989074Y-12343638D02*
G01*
X-1989074Y-12248134D01*
X-1989074Y-12343638D02*
G01*
X-2048002Y-12343638D01*
X-1989074Y-12298172D02*
G01*
X-2025396Y-12298172D01*
X-2114550Y-12343638D02*
G01*
X-2078228Y-12248134D01*
X-2114550Y-12343638D02*
G01*
X-2150872Y-12248134D01*
X-2091689Y-12280138D02*
G01*
X-2137156Y-12280138D01*
X-2180844Y-12343638D02*
G01*
X-2180844Y-12248134D01*
X-2180844Y-12343638D02*
G01*
X-2244598Y-12248134D01*
X-2244598Y-12343638D02*
G01*
X-2244598Y-12248134D01*
X-2274570Y-12325604D02*
G01*
X-2283460Y-12330176D01*
X-2297176Y-12343638D01*
X-2297176Y-12248134D01*
X-482600Y-14147038D02*
G01*
X-482600Y-14051534D01*
X-546354Y-14147038D02*
G01*
X-546354Y-14051534D01*
X-482600Y-14101572D02*
G01*
X-546354Y-14101572D01*
X-576326Y-14147038D02*
G01*
X-576326Y-14051534D01*
X-576326Y-14147038D02*
G01*
X-635254Y-14147038D01*
X-576326Y-14101572D02*
G01*
X-612648Y-14101572D01*
X-576326Y-14051534D02*
G01*
X-635254Y-14051534D01*
X-735330Y-14147038D02*
G01*
X-735330Y-14051534D01*
X-735330Y-14147038D02*
G01*
X-794512Y-14147038D01*
X-735330Y-14101572D02*
G01*
X-771652Y-14101572D01*
X-878840Y-14115288D02*
G01*
X-878840Y-14051534D01*
X-878840Y-14101572D02*
G01*
X-869950Y-14110716D01*
X-860806Y-14115288D01*
X-847090Y-14115288D01*
X-837946Y-14110716D01*
X-829056Y-14101572D01*
X-824484Y-14088110D01*
X-824484Y-14078966D01*
X-829056Y-14065250D01*
X-837946Y-14056106D01*
X-847090Y-14051534D01*
X-860806Y-14051534D01*
X-869950Y-14056106D01*
X-878840Y-14065250D01*
X-909066Y-14115288D02*
G01*
X-909066Y-14051534D01*
X-909066Y-14097000D02*
G01*
X-922528Y-14110716D01*
X-931671Y-14115288D01*
X-945387Y-14115288D01*
X-954532Y-14110716D01*
X-958850Y-14097000D01*
X-958850Y-14051534D01*
X-1549298Y-13054990D02*
G01*
X-1549298Y-12959486D01*
X-1549298Y-13054990D02*
G01*
X-1613052Y-12959486D01*
X-1613052Y-13054990D02*
G01*
X-1613052Y-12959486D01*
X-1643024Y-12995808D02*
G01*
X-1697634Y-12995808D01*
X-1697634Y-13004952D01*
X-1693062Y-13014096D01*
X-1688490Y-13018668D01*
X-1679346Y-13022986D01*
X-1665884Y-13022986D01*
X-1656740Y-13018668D01*
X-1647596Y-13009524D01*
X-1643024Y-12995808D01*
X-1643024Y-12986664D01*
X-1647596Y-12973202D01*
X-1656740Y-12964058D01*
X-1665884Y-12959486D01*
X-1679346Y-12959486D01*
X-1688490Y-12964058D01*
X-1697634Y-12973202D01*
X-1750212Y-13022986D02*
G01*
X-1741322Y-13018668D01*
X-1732178Y-13009524D01*
X-1727606Y-12995808D01*
X-1727606Y-12986664D01*
X-1732178Y-12973202D01*
X-1741322Y-12964058D01*
X-1750212Y-12959486D01*
X-1763928Y-12959486D01*
X-1773072Y-12964058D01*
X-1782216Y-12973202D01*
X-1786788Y-12986664D01*
X-1786788Y-12995808D01*
X-1782216Y-13009524D01*
X-1773072Y-13018668D01*
X-1763928Y-13022986D01*
X-1750212Y-13022986D01*
X-1816760Y-13022986D02*
G01*
X-1816760Y-12927736D01*
X-1816760Y-13009524D02*
G01*
X-1825650Y-13018668D01*
X-1834794Y-13022986D01*
X-1848510Y-13022986D01*
X-1857654Y-13018668D01*
X-1866798Y-13009524D01*
X-1871116Y-12995808D01*
X-1871116Y-12986664D01*
X-1866798Y-12973202D01*
X-1857654Y-12964058D01*
X-1848510Y-12959486D01*
X-1834794Y-12959486D01*
X-1825650Y-12964058D01*
X-1816760Y-12973202D01*
X-1901342Y-13054990D02*
G01*
X-1905660Y-13050418D01*
X-1910232Y-13054990D01*
X-1905660Y-13059562D01*
X-1901342Y-13054990D01*
X-1905660Y-13022986D02*
G01*
X-1905660Y-12959486D01*
X-1940204Y-13022986D02*
G01*
X-1990242Y-12959486D01*
X-1990242Y-13022986D02*
G01*
X-1940204Y-12959486D01*
X-2020214Y-12995808D02*
G01*
X-2074824Y-12995808D01*
X-2074824Y-13004952D01*
X-2070252Y-13014096D01*
X-2065680Y-13018668D01*
X-2056790Y-13022986D01*
X-2043074Y-13022986D01*
X-2033930Y-13018668D01*
X-2024786Y-13009524D01*
X-2020214Y-12995808D01*
X-2020214Y-12986664D01*
X-2024786Y-12973202D01*
X-2033930Y-12964058D01*
X-2043074Y-12959486D01*
X-2056790Y-12959486D01*
X-2065680Y-12964058D01*
X-2074824Y-12973202D01*
X-2104796Y-13054990D02*
G01*
X-2104796Y-12959486D01*
D11*
X623316Y-14020787D02*
G01*
X514350Y-14020787D01*
X623316Y-14055077D02*
G01*
X514350Y-14055077D01*
X623316Y-14055077D02*
G01*
X623316Y-14091399D01*
X618236Y-14107147D01*
X607822Y-14117561D01*
X597408Y-14122641D01*
X581660Y-14127721D01*
X555752Y-14127721D01*
X540258Y-14122641D01*
X529844Y-14117561D01*
X519430Y-14107147D01*
X514350Y-14091399D01*
X514350Y-14055077D01*
X597408Y-14239989D02*
G01*
X607822Y-14234909D01*
X618236Y-14224495D01*
X623316Y-14214081D01*
X623316Y-14193253D01*
X618236Y-14182839D01*
X607822Y-14172425D01*
X597408Y-14167345D01*
X581660Y-14162011D01*
X555752Y-14162011D01*
X540258Y-14167345D01*
X529844Y-14172425D01*
X519430Y-14182839D01*
X514350Y-14193253D01*
X514350Y-14214081D01*
X519430Y-14224495D01*
X529844Y-14234909D01*
X540258Y-14239989D01*
D12*
X1694967Y-12214021D02*
G01*
X644982Y-12214021D01*
X644982Y-11454028D01*
X1694967Y-11454028D01*
X1694967Y-12214021D01*
D13*
X573267Y-13568428D02*
G01*
X995410Y-13990571D01*
X1887778Y-13098203D01*
X1465635Y-12676060D01*
X573267Y-13568428D01*
X808045Y-13335086D02*
G01*
X861082Y-13388124D01*
X1285346Y-12963860D01*
X1232308Y-12910822D01*
X808045Y-13335086D01*
X574702Y-13568428D02*
G01*
X627740Y-13621466D01*
X755009Y-13494197D01*
X701972Y-13441159D01*
X574702Y-13568428D01*
X1338366Y-12804764D02*
G01*
X1391404Y-12857802D01*
X1518691Y-12730518D01*
X1465651Y-12677480D01*
X1338366Y-12804764D01*
X733798Y-13727523D02*
G01*
X786818Y-13674504D01*
X995410Y-13883098D01*
X1387866Y-13490641D01*
X1780303Y-13098205D01*
X1571708Y-12889611D01*
X1624746Y-12836573D01*
X620664Y-13480044D02*
G01*
X532279Y-13568428D01*
X620664Y-13656810D01*
X-1227810Y-12054763D02*
G01*
X-1227810Y-12651765D01*
X-465810Y-12651765D01*
X-465810Y-12054763D01*
X-1227810Y-12054763D01*
X-896823Y-12055779D02*
G01*
X-896823Y-12130786D01*
X-796823Y-12130786D01*
X-796823Y-12055779D01*
X-896823Y-12055779D01*
X-1226820Y-12055779D02*
G01*
X-1226820Y-12130786D01*
X-1046810Y-12130786D01*
X-1046810Y-12055779D01*
X-1226820Y-12055779D01*
X-646811Y-12055779D02*
G01*
X-646811Y-12130786D01*
X-466826Y-12130786D01*
X-466826Y-12055779D01*
X-646811Y-12055779D01*
X-1226820Y-12280773D02*
G01*
X-1151813Y-12280773D01*
X-1151813Y-12575768D01*
X-846810Y-12575768D01*
X-541807Y-12575768D01*
X-541807Y-12280773D01*
X-466826Y-12280773D01*
X-1131824Y-12025782D02*
G01*
X-1256817Y-12025782D01*
X-1256817Y-12150775D01*
X1769389Y-11460962D02*
G01*
X1769389Y-12057964D01*
X2531389Y-12057964D01*
X2531389Y-11460962D01*
X1769389Y-11460962D01*
X2100376Y-11461978D02*
G01*
X2100376Y-11536984D01*
X2200376Y-11536984D01*
X2200376Y-11461978D01*
X2100376Y-11461978D01*
X1770380Y-11461978D02*
G01*
X1770380Y-11536984D01*
X1950389Y-11536984D01*
X1950389Y-11461978D01*
X1770380Y-11461978D01*
X2350389Y-11461978D02*
G01*
X2350389Y-11536984D01*
X2530373Y-11536984D01*
X2530373Y-11461978D01*
X2350389Y-11461978D01*
X1770380Y-11686971D02*
G01*
X1845386Y-11686971D01*
X1845386Y-11981967D01*
X2150389Y-11981967D01*
X2455392Y-11981967D01*
X2455392Y-11686971D01*
X2530373Y-11686971D01*
X1865375Y-11431981D02*
G01*
X1740382Y-11431981D01*
X1740382Y-11556974D01*
X-2382824Y-11486362D02*
G01*
X-2382824Y-12083364D01*
X-1620824Y-12083364D01*
X-1620824Y-11486362D01*
X-2382824Y-11486362D01*
X-2051812Y-11487378D02*
G01*
X-2051812Y-11562384D01*
X-1951812Y-11562384D01*
X-1951812Y-11487378D01*
X-2051812Y-11487378D01*
X-2381808Y-11487378D02*
G01*
X-2381808Y-11562384D01*
X-2201824Y-11562384D01*
X-2201824Y-11487378D01*
X-2381808Y-11487378D01*
X-1801825Y-11487378D02*
G01*
X-1801825Y-11562384D01*
X-1621815Y-11562384D01*
X-1621815Y-11487378D01*
X-1801825Y-11487378D01*
X-2381808Y-11712371D02*
G01*
X-2306828Y-11712371D01*
X-2306828Y-12007367D01*
X-2001824Y-12007367D01*
X-1696821Y-12007367D01*
X-1696821Y-11712371D01*
X-1621815Y-11712371D01*
X-2286812Y-11457381D02*
G01*
X-2411806Y-11457381D01*
X-2411806Y-11582374D01*
X-1239824Y-13299363D02*
G01*
X-1239824Y-13896365D01*
X-477824Y-13896365D01*
X-477824Y-13299363D01*
X-1239824Y-13299363D01*
X-908812Y-13300379D02*
G01*
X-908812Y-13375386D01*
X-808812Y-13375386D01*
X-808812Y-13300379D01*
X-908812Y-13300379D01*
X-1238808Y-13300379D02*
G01*
X-1238808Y-13375386D01*
X-1058824Y-13375386D01*
X-1058824Y-13300379D01*
X-1238808Y-13300379D01*
X-658825Y-13300379D02*
G01*
X-658825Y-13375386D01*
X-478815Y-13375386D01*
X-478815Y-13300379D01*
X-658825Y-13300379D01*
X-1238808Y-13525373D02*
G01*
X-1163828Y-13525373D01*
X-1163828Y-13820368D01*
X-858824Y-13820368D01*
X-553821Y-13820368D01*
X-553821Y-13525373D01*
X-478815Y-13525373D01*
X-1143812Y-13270382D02*
G01*
X-1268806Y-13270382D01*
X-1268806Y-13395375D01*
X-1491208Y-12664363D02*
G01*
X-1491208Y-13261365D01*
X-479221Y-13261365D01*
X-479221Y-12664363D01*
X-1491208Y-12664363D01*
X-1160221Y-12665379D02*
G01*
X-1160221Y-12740386D01*
X-810209Y-12740386D01*
X-810209Y-12665379D01*
X-1160221Y-12665379D01*
X-1490218Y-12665379D02*
G01*
X-1490218Y-12740386D01*
X-1310208Y-12740386D01*
X-1310208Y-12665379D01*
X-1490218Y-12665379D01*
X-660222Y-12665379D02*
G01*
X-660222Y-12740386D01*
X-480212Y-12740386D01*
X-480212Y-12665379D01*
X-660222Y-12665379D01*
X-1490218Y-12890373D02*
G01*
X-1415211Y-12890373D01*
X-1415211Y-13185368D01*
X-985215Y-13185368D01*
X-555218Y-13185368D01*
X-555218Y-12890373D01*
X-480212Y-12890373D01*
X-1395222Y-12635382D02*
G01*
X-1520215Y-12635382D01*
X-1520215Y-12760375D01*
X-1465808Y-11460962D02*
G01*
X-1465808Y-12057964D01*
X-453821Y-12057964D01*
X-453821Y-11460962D01*
X-1465808Y-11460962D01*
X-1134821Y-11461978D02*
G01*
X-1134821Y-11536984D01*
X-784809Y-11536984D01*
X-784809Y-11461978D01*
X-1134821Y-11461978D01*
X-1464818Y-11461978D02*
G01*
X-1464818Y-11536984D01*
X-1284808Y-11536984D01*
X-1284808Y-11461978D01*
X-1464818Y-11461978D01*
X-634822Y-11461978D02*
G01*
X-634822Y-11536984D01*
X-454812Y-11536984D01*
X-454812Y-11461978D01*
X-634822Y-11461978D01*
X-1464818Y-11686971D02*
G01*
X-1389811Y-11686971D01*
X-1389811Y-11981967D01*
X-959815Y-11981967D01*
X-529818Y-11981967D01*
X-529818Y-11686971D01*
X-454812Y-11686971D01*
X-1369822Y-11431981D02*
G01*
X-1494815Y-11431981D01*
X-1494815Y-11556974D01*
X468591Y-12803403D02*
G01*
X337604Y-12803403D01*
X337604Y-14132382D01*
X-312407Y-14132382D01*
X-312407Y-11064392D01*
X337604Y-11064392D01*
X337604Y-12393396D01*
X337604Y-12393396D01*
X468591Y-12393396D01*
X468591Y-14262404D02*
G01*
X-443395Y-14262404D01*
X-443395Y-10934395D01*
X468591Y-10934395D01*
X468591Y-14262404D01*
X507580Y-13741400D02*
G01*
X607580Y-13791387D01*
X607580Y-13691387D01*
X507580Y-13741400D01*
M02*
