  0
SECTION
  2
HEADER
  9
$ACADVER
  1
AC1009
  9
$INSBASE
 10
0.0
 20
0.0
 30
0.0
  9
$EXTMIN
 10
-201.500003814697294
 20
-160.0000000000100044
 30
-0.0000076293944863
  9
$EXTMAX
 10
281.4999961853026775
 20
159.9999999999899956
 30
0.0
  9
$LIMMIN
 10
0.0
 20
0.0
  9
$LIMMAX
 10
12.0
 20
9.0
  9
$ORTHOMODE
 70
     0
  9
$REGENMODE
 70
     1
  9
$FILLMODE
 70
     1
  9
$QTEXTMODE
 70
     0
  9
$MIRRTEXT
 70
     0
  9
$DRAGMODE
 70
     2
  9
$LTSCALE
 40
1.0
  9
$OSMODE
 70
   295
  9
$ATTMODE
 70
     1
  9
$TEXTSIZE
 40
0.2
  9
$TRACEWID
 40
0.05
  9
$TEXTSTYLE
  7
STANDARD
  9
$CLAYER
  8
0
  9
$CELTYPE
  6
CONTINUOUS
  9
$CECOLOR
 62
   256
  9
$DIMSCALE
 40
1.0
  9
$DIMASZ
 40
0.18
  9
$DIMEXO
 40
0.0625
  9
$DIMDLI
 40
0.38
  9
$DIMRND
 40
0.0
  9
$DIMDLE
 40
0.0
  9
$DIMEXE
 40
0.18
  9
$DIMTP
 40
0.0
  9
$DIMTM
 40
0.0
  9
$DIMTXT
 40
0.18
  9
$DIMCEN
 40
0.09
  9
$DIMTSZ
 40
0.0
  9
$DIMTOL
 70
     0
  9
$DIMLIM
 70
     0
  9
$DIMTIH
 70
     1
  9
$DIMTOH
 70
     1
  9
$DIMSE1
 70
     0
  9
$DIMSE2
 70
     0
  9
$DIMTAD
 70
     0
  9
$DIMZIN
 70
     0
  9
$DIMBLK
  1

  9
$DIMASO
 70
     1
  9
$DIMSHO
 70
     1
  9
$DIMPOST
  1

  9
$DIMAPOST
  1

  9
$DIMALT
 70
     0
  9
$DIMALTD
 70
     2
  9
$DIMALTF
 40
25.3999999999999986
  9
$DIMLFAC
 40
1.0
  9
$DIMTOFL
 70
     0
  9
$DIMTVP
 40
0.0
  9
$DIMTIX
 70
     0
  9
$DIMSOXD
 70
     0
  9
$DIMSAH
 70
     0
  9
$DIMBLK1
  1

  9
$DIMBLK2
  1

  9
$DIMSTYLE
  2
STANDARD
  9
$DIMCLRD
 70
     0
  9
$DIMCLRE
 70
     0
  9
$DIMCLRT
 70
     0
  9
$DIMTFAC
 40
1.0
  9
$DIMGAP
 40
0.09
  9
$LUNITS
 70
     2
  9
$LUPREC
 70
     4
  9
$SKETCHINC
 40
0.1
  9
$FILLETRAD
 40
0.0
  9
$AUNITS
 70
     0
  9
$AUPREC
 70
     0
  9
$MENU
  1
.
  9
$ELEVATION
 40
0.0
  9
$PELEVATION
 40
0.0
  9
$THICKNESS
 40
0.0
  9
$LIMCHECK
 70
     0
  9
$BLIPMODE
 70
     0
  9
$CHAMFERA
 40
0.0
  9
$CHAMFERB
 40
0.0
  9
$SKPOLY
 70
     0
  9
$TDCREATE
 40
2459542.348958333954215
  9
$TDUPDATE
 40
2459711.3715162039734423
  9
$TDINDWG
 40
0.0006712963
  9
$TDUSRTIMER
 40
0.0006712963
  9
$USRTIMER
 70
     1
  9
$ANGBASE
 50
0.0
  9
$ANGDIR
 70
     0
  9
$PDMODE
 70
     0
  9
$PDSIZE
 40
0.0
  9
$PLINEWID
 40
0.0
  9
$COORDS
 70
     1
  9
$SPLFRAME
 70
     0
  9
$SPLINETYPE
 70
     6
  9
$SPLINESEGS
 70
     8
  9
$ATTDIA
 70
     1
  9
$ATTREQ
 70
     1
  9
$HANDLING
 70
     1
  9
$HANDSEED
  5
101E9
  9
$SURFTAB1
 70
     6
  9
$SURFTAB2
 70
     6
  9
$SURFTYPE
 70
     6
  9
$SURFU
 70
     6
  9
$SURFV
 70
     6
  9
$UCSNAME
  2

  9
$UCSORG
 10
0.0
 20
0.0
 30
0.0
  9
$UCSXDIR
 10
1.0
 20
0.0
 30
0.0
  9
$UCSYDIR
 10
0.0
 20
1.0
 30
0.0
  9
$PUCSNAME
  2

  9
$PUCSORG
 10
0.0
 20
0.0
 30
0.0
  9
$PUCSXDIR
 10
1.0
 20
0.0
 30
0.0
  9
$PUCSYDIR
 10
0.0
 20
1.0
 30
0.0
  9
$USERI1
 70
     0
  9
$USERI2
 70
     0
  9
$USERI3
 70
     0
  9
$USERI4
 70
     0
  9
$USERI5
 70
     0
  9
$USERR1
 40
0.0
  9
$USERR2
 40
0.0
  9
$USERR3
 40
0.0
  9
$USERR4
 40
0.0
  9
$USERR5
 40
0.0
  9
$WORLDVIEW
 70
     1
  9
$SHADEDGE
 70
     3
  9
$SHADEDIF
 70
    70
  9
$TILEMODE
 70
     1
  9
$MAXACTVP
 70
    64
  9
$PLIMCHECK
 70
     0
  9
$PEXTMIN
 10
1.0000000000000000E+20
 20
1.0000000000000000E+20
 30
1.0000000000000000E+20
  9
$PEXTMAX
 10
-1.0000000000000000E+20
 20
-1.0000000000000000E+20
 30
-1.0000000000000000E+20
  9
$PLIMMIN
 10
0.0
 20
0.0
  9
$PLIMMAX
 10
12.0
 20
9.0
  9
$UNITMODE
 70
     0
  9
$VISRETAIN
 70
     1
  9
$PLINEGEN
 70
     0
  9
$PSLTSCALE
 70
     1
  0
ENDSEC
  0
SECTION
  2
TABLES
  0
TABLE
  2
VPORT
 70
     1
  0
VPORT
  2
*ACTIVE
 70
     0
 10
0.0
 20
0.0
 11
1.0
 21
1.0
 12
341.1162375127473751
 22
171.5457627284667979
 13
0.0
 23
0.0
 14
1.0
 24
1.0
 15
0.0
 25
0.0
 16
0.0
 26
0.0
 36
1.0
 17
0.0
 27
0.0
 37
0.0
 40
978.5405562990731596
 41
1.8876941457586609
 42
50.0
 43
0.0
 44
0.0
 50
0.0
 51
0.0
 71
     0
 72
  1000
 73
     1
 74
     3
 75
     0
 76
     0
 77
     0
 78
     0
  0
ENDTAB
  0
TABLE
  2
LTYPE
 70
     1
  0
LTYPE
  2
CONTINUOUS
 70
     0
  3
Solid line
 72
    65
 73
     0
 40
0.0
  0
ENDTAB
  0
TABLE
  2
LAYER
 70
     1
  0
LAYER
  2
0
 70
     0
 62
     7
  6
CONTINUOUS
  0
ENDTAB
  0
TABLE
  2
STYLE
 70
     2
  0
STYLE
  2
STANDARD
 70
     0
 40
0.0
 41
1.0
 50
0.0
 71
     0
 42
0.2
  3
txt
  4

  0
STYLE
  2
ANNOTATIVE
 70
     0
 40
0.0
 41
1.0
 50
0.0
 71
     0
 42
0.2
  3
txt
  4

  0
ENDTAB
  0
TABLE
  2
VIEW
 70
     0
  0
ENDTAB
  0
TABLE
  2
UCS
 70
     0
  0
ENDTAB
  0
TABLE
  2
APPID
 70
     5
  0
APPID
  2
ACAD
 70
     0
  0
APPID
  2
ACADANNOTATIVE
 70
     0
  0
APPID
  2
ACAD_NAV_VCDISPLAY
 70
     0
  0
APPID
  2
ACAD_EXEMPT_FROM_CAD_STANDARDS
 70
     0
  0
APPID
  2
ACAD_MLEADERVER
 70
     0
  0
ENDTAB
  0
TABLE
  2
DIMSTYLE
 70
     2
  0
DIMSTYLE
  2
STANDARD
 70
     0
  3

  4

  5

  6

  7

 40
1.0
 41
0.18
 42
0.0625
 43
0.38
 44
0.18
 45
0.0
 46
0.0
 47
0.0
 48
0.0
140
0.18
141
0.09
142
0.0
143
25.3999999999999986
144
1.0
145
0.0
146
1.0
147
0.09
 71
     0
 72
     0
 73
     1
 74
     1
 75
     0
 76
     0
 77
     0
 78
     0
170
     0
171
     2
172
     0
173
     0
174
     0
175
     0
176
     0
177
     0
178
     0
  0
DIMSTYLE
  2
ANNOTATIVE
 70
     0
  3

  4

  5

  6

  7

 40
1.0
 41
0.18
 42
0.0625
 43
0.38
 44
0.18
 45
0.0
 46
0.0
 47
0.0
 48
0.0
140
0.18
141
0.09
142
0.0
143
25.3999999999999986
144
1.0
145
0.0
146
1.0
147
0.09
 71
     0
 72
     0
 73
     1
 74
     1
 75
     0
 76
     0
 77
     0
 78
     0
170
     0
171
     2
172
     0
173
     0
174
     0
175
     0
176
     0
177
     0
178
     0
  0
ENDTAB
  0
ENDSEC
  0
SECTION
  2
BLOCKS
  0
BLOCK
  8
0
  2
$MODEL_SPACE
 70
     0
 10
0.0
 20
0.0
 30
0.0
  3
$MODEL_SPACE
  1

  0
ENDBLK
  5
10155
  8
0
  0
BLOCK
 67
     1
  8
0
  2
$PAPER_SPACE
 70
     0
 10
0.0
 20
0.0
 30
0.0
  3
$PAPER_SPACE
  1

  0
ENDBLK
  5
10151
 67
     1
  8
0
  0
ENDSEC
  0
SECTION
  2
ENTITIES
  0
LINE
  5
100
  8
0
 10
182.499996185302706
 20
-2.999999999989952
 30
-0.0000076293944667
 11
182.499996185302706
 21
3.0000000000099529
 31
-0.0000076293944679
  0
ARC
  5
101
  8
0
 10
185.499996185302706
 20
3.0000000000099529
 30
-0.000003814697252
 40
3.0000000000000422
 50
90.0
 51
179.9999271435372066
  0
LINE
  5
102
  8
0
 10
185.499996185302706
 20
6.0000000000099947
 30
-0.0000038146972514
 11
214.499996185302507
 21
6.0000000000099947
 31
-0.0000076293944679
  0
ARC
  5
103
  8
0
 10
214.499996185302507
 20
3.0000000000099529
 30
-0.000003814697252
 40
3.0000000000000422
 50
0.0
 51
90.0
  0
LINE
  5
104
  8
0
 10
217.4999961853027912
 20
3.0000000000099529
 30
-0.000003814697252
 11
217.4999961853027912
 21
-2.999999999989952
 31
-0.0000076293944667
  0
ARC
  5
105
  8
0
 10
214.499996185302507
 20
-2.999999999989952
 30
-0.0000038146972509
 40
3.0000000000000422
 50
270.0
 51
0.0000728514601474
  0
LINE
  5
106
  8
0
 10
214.499996185302507
 20
-5.9999999999899938
 30
-0.0000038146972514
 11
185.499996185302706
 21
-5.9999999999899938
 31
-0.0000076293944667
  0
ARC
  5
107
  8
0
 10
185.4999961851478076
 20
-2.999999999989952
 30
-0.0002396901369157
 40
3.000000000002395
210
-0.0000012715657386
220
0.0
230
0.9999999999991915
 50
180.0
 51
269.9999999999076863
  0
LINE
  5
108
  8
0
 10
204.5
 20
109.0000000000100044
 30
-0.0000076293944806
 11
204.5
 21
123.0000000000100044
 31
-0.0000076293944823
  0
ARC
  5
109
  8
0
 10
207.5
 20
123.0000000000100044
 30
-0.0000038146972664
 40
2.9999999999999711
 50
90.0
 51
179.9999271435372066
  0
LINE
  5
110
  8
0
 10
207.5
 20
126.000000000009905
 30
-0.0000038146972664
 11
221.5
 21
126.000000000009905
 31
-0.0000076293944828
  0
ARC
  5
111
  8
0
 10
221.5
 20
123.0000000000100044
 30
-0.0000038146972664
 40
2.9999999999999711
 50
0.0
 51
90.0
  0
LINE
  5
112
  8
0
 10
224.5
 20
123.0000000000100044
 30
-0.0000038146972664
 11
224.5
 21
109.0000000000100044
 31
-0.0000076293944806
  0
ARC
  5
113
  8
0
 10
221.5
 20
109.0000000000100044
 30
-0.0000038146972647
 40
2.9999999999999711
 50
270.0
 51
0.0000728514601474
  0
LINE
  5
114
  8
0
 10
221.5
 20
106.0000000000100044
 30
-0.0000038146972647
 11
207.5
 21
106.000000000009905
 31
-0.0000076293944801
  0
ARC
  5
115
  8
0
 10
207.499999999827395
 20
109.0000000000100044
 30
-0.00026766458803
 40
3.0000000000025371
210
-0.0000012715657386
220
0.0
230
0.9999999999991915
 50
180.0
 51
269.9999999999050146
  0
LINE
  5
116
  8
0
 10
221.5
 20
-125.9999999999897966
 30
-0.0000076293944518
 11
207.5
 21
-125.9999999999897966
 31
-0.0000076293944518
  0
ARC
  5
117
  8
0
 10
207.5
 20
-122.9999999999899956
 30
-0.0000038146972364
 40
2.9999999999999711
 50
180.0
 51
270.0
  0
LINE
  5
118
  8
0
 10
204.5
 20
-122.9999999999899956
 30
-0.0000038146972364
 11
204.5
 21
-108.9999999999899956
 31
-0.000007629394454
  0
ARC
  5
119
  8
0
 10
207.5000000000001137
 20
-108.9999999999899956
 30
-0.0000038146972381
 40
3.0000000000000422
 50
90.0000000000021743
 51
179.9999271485397969
  0
LINE
  5
120
  8
0
 10
207.5
 20
-105.9999999999898961
 30
-0.0000038146972381
 11
221.5
 21
-105.9999999999899956
 31
-0.0000076293944545
  0
ARC
  5
121
  8
0
 10
221.5
 20
-108.9999999999899956
 30
-0.0000038146972381
 40
2.9999999999999711
 50
0.0
 51
90.0
  0
LINE
  5
122
  8
0
 10
224.5
 20
-108.9999999999899956
 30
-0.0000038146972381
 11
224.5
 21
-122.9999999999899956
 31
-0.0000076293944523
  0
ARC
  5
123
  8
0
 10
221.5
 20
-122.9999999998953939
 30
0.000152587888592
 40
3.000000000002395
210
0.0
220
-0.0000012715657384
230
0.9999999999991915
 50
270.0
 51
359.9999271485398253
  0
POLYLINE
  5
124
  8
0
 66
     1
 10
0.0
 20
0.0
 30
0.0
 70
     1
  0
VERTEX
  5
1017C
  8
0
 10
281.4999961853026775
 20
158.9999999999899956
 30
0.0
  0
VERTEX
  5
1017D
  8
0
 10
281.4999961853026775
 20
-159.0000000000100044
 30
0.0
 42
-0.4142135623730847
  0
VERTEX
  5
1017E
  8
0
 10
280.4999961853026775
 20
-160.0000000000100044
 30
0.0
  0
VERTEX
  5
1017F
  8
0
 10
-200.500003814697294
 20
-160.0000000000100044
 30
0.0
 42
-0.4142135623730951
  0
VERTEX
  5
10180
  8
0
 10
-201.500003814697294
 20
-159.0000000000100044
 30
0.0
  0
VERTEX
  5
10181
  8
0
 10
-201.500003814697294
 20
158.9999999999899956
 30
0.0
 42
-0.4142135623730847
  0
VERTEX
  5
10182
  8
0
 10
-200.5000038146974077
 20
159.9999999999899956
 30
0.0
  0
VERTEX
  5
10183
  8
0
 10
280.4999961853026775
 20
159.9999999999899956
 30
0.0
 42
-0.4142135623730951
  0
SEQEND
  5
10184
  8
0
  0
CIRCLE
  5
126
  8
0
 10
246.4999961853027912
 20
0.0000000000100364
 30
-0.0000038146972514
 40
18.9999999999999716
  0
CIRCLE
  5
127
  8
0
 10
226.499996185302706
 20
149.9999999999899956
 30
-0.0000038146972509
 40
1.7000000000000071
  0
CIRCLE
  5
128
  8
0
 10
-126.6776733446972969
 20
-79.9644660900099638
 30
-0.0000038146972514
 40
12.5000000000000107
  0
CIRCLE
  5
129
  8
0
 10
-61.5000038146972869
 20
116.1776695299899984
 30
-0.0000038146972525
 40
2.7500000000000022
  0
CIRCLE
  5
130
  8
0
 10
-61.5000038146972869
 20
38.7258898433233583
 30
-0.000003814697252
 40
2.7500000000000022
  0
CIRCLE
  5
131
  8
0
 10
-61.5000038146972869
 20
-38.72588984334336
 30
-0.000003814697252
 40
2.7500000000000022
  0
CIRCLE
  5
132
  8
0
 10
-61.5000038146972869
 20
-116.1776695300099931
 30
-0.0000038146972514
 40
2.7500000000000022
  0
CIRCLE
  5
133
  8
0
 10
23.4999961853027202
 20
116.1776695299894016
 30
-0.0000038146972525
 40
2.7499999999999991
  0
CIRCLE
  5
134
  8
0
 10
23.4999961853027202
 20
38.7258898433227472
 30
-0.000003814697252
 40
2.7499999999999991
  0
CIRCLE
  5
135
  8
0
 10
23.4999961853027202
 20
-38.7258898433439711
 30
-0.000003814697252
 40
2.7499999999999991
  0
CIRCLE
  5
136
  8
0
 10
23.4999961853027202
 20
-116.1776695300106041
 30
-0.0000038146972514
 40
2.7499999999999991
  0
CIRCLE
  5
137
  8
0
 10
-0.0000038146972592
 20
149.9999999999899956
 30
-0.0000038146972509
 40
1.6999999999999991
  0
CIRCLE
  5
138
  8
0
 10
-85.750003814697294
 20
149.9999999999899956
 30
-0.0000038146972509
 40
1.6999999999999931
  0
CIRCLE
  5
139
  8
0
 10
85.7499961853027202
 20
-150.0000000000098908
 30
-0.0000038146972509
 40
1.6999999999999931
  0
CIRCLE
  5
140
  8
0
 10
171.499996185302706
 20
74.9999999999899956
 30
-0.000003814697252
 40
1.7000000000000071
  0
CIRCLE
  5
141
  8
0
 10
171.499996185302706
 20
-0.0000000000099454
 30
-0.0000038146972514
 40
1.7000000000000071
  0
CIRCLE
  5
142
  8
0
 10
171.499996185302706
 20
-75.0000000000099902
 30
-0.0000038146972509
 40
1.7000000000000071
  0
CIRCLE
  5
143
  8
0
 10
85.7499961853027202
 20
149.9999999999899956
 30
-0.0000038146972509
 40
1.6999999999999931
  0
CIRCLE
  5
144
  8
0
 10
-0.0000038146972869
 20
-150.0000000000098908
 30
-0.0000038146972509
 40
1.6999999999999991
  0
CIRCLE
  5
145
  8
0
 10
-85.750003814697294
 20
-150.0000000000098908
 30
-0.0000038146972509
 40
1.6999999999999931
  0
CIRCLE
  5
146
  8
0
 10
-171.500003814697294
 20
-75.0000000000099902
 30
-0.0000038146972509
 40
1.7000000000000071
  0
CIRCLE
  5
147
  8
0
 10
-171.500003814697294
 20
-0.0000000000099176
 30
-0.0000038146972514
 40
1.7000000000000071
  0
CIRCLE
  5
148
  8
0
 10
-171.500003814697294
 20
74.9999999999899956
 30
-0.000003814697252
 40
1.7000000000000071
  0
CIRCLE
  5
149
  8
0
 10
-191.5000038146972088
 20
149.9999999999899956
 30
-0.0000038146972509
 40
1.7000000000000071
  0
CIRCLE
  5
150
  8
0
 10
-191.5000038146972088
 20
-150.0000000000098908
 30
-0.0000038146972509
 40
1.7000000000000071
  0
CIRCLE
  5
151
  8
0
 10
226.499996185302706
 20
-150.0000000000098908
 30
-0.0000038146972509
 40
1.7000000000000071
  0
CIRCLE
  5
152
  8
0
 10
271.4999961853027912
 20
-150.0000000000098908
 30
-0.0000038146972509
 40
1.6999999999999791
  0
CIRCLE
  5
153
  8
0
 10
271.4999961853027912
 20
149.9999999999899956
 30
-0.0000038146972509
 40
1.6999999999999791
  0
CIRCLE
  5
154
  8
0
 10
-136.464469904697296
 20
-136.1776695300100073
 30
-0.0000038146972514
 40
2.7500000000000022
  0
CIRCLE
  5
155
  8
0
 10
-157.6776733446972969
 20
-114.9644660900100064
 30
-0.000003814697252
 40
2.7500000000000022
  0
CIRCLE
  5
156
  8
0
 10
236.4644622753027932
 20
-136.1776695300100073
 30
-0.0000038146972514
 40
2.7500000000000022
  0
CIRCLE
  5
157
  8
0
 10
257.6776657153026804
 20
-114.9644660900100064
 30
-0.000003814697252
 40
2.7499999999999729
  0
CIRCLE
  5
158
  8
0
 10
257.6776657153026804
 20
114.9644660899899975
 30
-0.000003814697252
 40
2.7499999999999729
  0
CIRCLE
  5
159
  8
0
 10
236.4644622753027932
 20
136.1776695299899984
 30
-0.0000038146972514
 40
2.7500000000000022
  0
CIRCLE
  5
160
  8
0
 10
-157.6776733446972969
 20
114.9644660899899975
 30
-0.000003814697252
 40
2.7500000000000022
  0
CIRCLE
  5
161
  8
0
 10
-136.464469904697296
 20
136.1776695299899984
 30
-0.0000038146972514
 40
2.7500000000000022
  0
POLYLINE
  5
162
  8
0
 66
     1
 10
0.0
 20
0.0
 30
0.0
 70
     1
  0
VERTEX
  5
10185
  8
0
 10
182.499996185302706
 20
-2.999999999989952
 30
0.0
  0
VERTEX
  5
10186
  8
0
 10
182.499996185302706
 20
3.0000000000099529
 30
0.0
 42
-0.4142135623730951
  0
VERTEX
  5
10187
  8
0
 10
185.499996185302706
 20
6.0000000000099947
 30
0.0
  0
VERTEX
  5
10188
  8
0
 10
214.499996185302507
 20
6.0000000000100684
 30
0.0
 42
-0.4142135623730951
  0
VERTEX
  5
10189
  8
0
 10
217.4999961853027912
 20
3.0000000000099529
 30
0.0
  0
VERTEX
  5
1018A
  8
0
 10
217.4999961853027912
 20
-2.999999999989952
 30
0.0
 42
-0.4142135623730951
  0
VERTEX
  5
1018B
  8
0
 10
214.499996185302507
 20
-5.9999999999899938
 30
0.0
  0
VERTEX
  5
1018C
  8
0
 10
185.499996185302706
 20
-5.9999999999899227
 30
0.0
 42
-0.4142135623730951
  0
SEQEND
  5
1018D
  8
0
  0
POLYLINE
  5
163
  8
0
 66
     1
 10
0.0
 20
0.0
 30
0.0
 70
     1
  0
VERTEX
  5
1018E
  8
0
 10
204.5
 20
109.0000000000100044
 30
0.0
  0
VERTEX
  5
1018F
  8
0
 10
204.5
 20
123.0000000000100044
 30
0.0
 42
-0.4142135623730951
  0
VERTEX
  5
10190
  8
0
 10
207.5
 20
126.000000000009905
 30
0.0
  0
VERTEX
  5
10191
  8
0
 10
221.5
 20
126.000000000009905
 30
0.0
 42
-0.4142135623730951
  0
VERTEX
  5
10192
  8
0
 10
224.5
 20
123.0000000000100044
 30
0.0
  0
VERTEX
  5
10193
  8
0
 10
224.5
 20
109.0000000000100044
 30
0.0
 42
-0.4142135623730951
  0
VERTEX
  5
10194
  8
0
 10
221.5
 20
106.0000000000100044
 30
0.0
  0
VERTEX
  5
10195
  8
0
 10
207.5
 20
106.000000000009905
 30
0.0
 42
-0.4142135623730814
  0
SEQEND
  5
10196
  8
0
  0
POLYLINE
  5
164
  8
0
 66
     1
 10
0.0
 20
0.0
 30
0.0
 70
     1
  0
VERTEX
  5
10197
  8
0
 10
221.5
 20
-125.9999999999897966
 30
0.0
  0
VERTEX
  5
10198
  8
0
 10
207.5
 20
-125.9999999999897966
 30
0.0
 42
-0.4142135623730951
  0
VERTEX
  5
10199
  8
0
 10
204.5
 20
-122.9999999999899956
 30
0.0
  0
VERTEX
  5
1019A
  8
0
 10
204.5
 20
-108.9999999999899956
 30
0.0
 42
-0.4142135623730814
  0
VERTEX
  5
1019B
  8
0
 10
207.5
 20
-105.9999999999899956
 30
0.0
  0
VERTEX
  5
1019C
  8
0
 10
221.5
 20
-105.9999999999899956
 30
0.0
 42
-0.4142135623730951
  0
VERTEX
  5
1019D
  8
0
 10
224.5
 20
-108.9999999999899956
 30
0.0
  0
VERTEX
  5
1019E
  8
0
 10
224.5
 20
-122.9999999999899956
 30
0.0
 42
-0.4142135623730951
  0
SEQEND
  5
1019F
  8
0
  0
CIRCLE
  5
166
  8
0
 10
246.4999961853027912
 20
0.000000000010036
 30
0.0
 40
18.9999999999999716
  0
CIRCLE
  5
167
  8
0
 10
-126.6776733446972969
 20
-79.9644660900099638
 30
0.0
 40
12.5000000000000107
  0
CIRCLE
  5
168
  8
0
 10
-61.5000038146972869
 20
116.1776695299899984
 30
0.0
 40
2.7500000000000022
  0
CIRCLE
  5
169
  8
0
 10
-61.5000038146972869
 20
38.7258898433233583
 30
0.0
 40
2.7500000000000022
  0
CIRCLE
  5
170
  8
0
 10
-61.5000038146972869
 20
-38.72588984334336
 30
0.0
 40
2.7500000000000022
  0
CIRCLE
  5
171
  8
0
 10
-61.5000038146972869
 20
-116.1776695300099931
 30
0.0
 40
2.7500000000000022
  0
CIRCLE
  5
172
  8
0
 10
23.4999961853027202
 20
116.1776695299894016
 30
0.0
 40
2.7499999999999991
  0
CIRCLE
  5
173
  8
0
 10
23.4999961853027202
 20
38.7258898433227472
 30
0.0
 40
2.7499999999999991
  0
CIRCLE
  5
174
  8
0
 10
23.4999961853027202
 20
-38.7258898433439711
 30
0.0
 40
2.7499999999999991
  0
CIRCLE
  5
175
  8
0
 10
23.4999961853027202
 20
-116.1776695300106041
 30
0.0
 40
2.7499999999999991
  0
CIRCLE
  5
176
  8
0
 10
-0.0000038146972592
 20
149.9999999999899956
 30
0.0
 40
1.6999999999999991
  0
CIRCLE
  5
177
  8
0
 10
-85.750003814697294
 20
149.9999999999899956
 30
0.0
 40
1.6999999999999931
  0
CIRCLE
  5
178
  8
0
 10
85.7499961853027202
 20
-150.0000000000098908
 30
0.0
 40
1.6999999999999931
  0
CIRCLE
  5
179
  8
0
 10
171.499996185302706
 20
74.9999999999899956
 30
0.0
 40
1.7000000000000071
  0
CIRCLE
  5
180
  8
0
 10
171.499996185302706
 20
-0.0000000000099454
 30
0.0
 40
1.7000000000000071
  0
CIRCLE
  5
181
  8
0
 10
171.499996185302706
 20
-75.0000000000099902
 30
0.0
 40
1.7000000000000071
  0
CIRCLE
  5
182
  8
0
 10
85.7499961853027202
 20
149.9999999999899956
 30
0.0
 40
1.6999999999999931
  0
CIRCLE
  5
183
  8
0
 10
-0.0000038146972869
 20
-150.0000000000098908
 30
0.0
 40
1.6999999999999991
  0
CIRCLE
  5
184
  8
0
 10
-85.750003814697294
 20
-150.0000000000098908
 30
0.0
 40
1.6999999999999931
  0
CIRCLE
  5
185
  8
0
 10
-171.500003814697294
 20
-75.0000000000099902
 30
0.0
 40
1.7000000000000071
  0
CIRCLE
  5
186
  8
0
 10
-171.500003814697294
 20
-0.0000000000099176
 30
0.0
 40
1.7000000000000071
  0
CIRCLE
  5
187
  8
0
 10
-171.500003814697294
 20
74.9999999999899956
 30
0.0
 40
1.7000000000000071
  0
CIRCLE
  5
188
  8
0
 10
-191.5000038146972088
 20
149.9999999999899956
 30
0.0
 40
1.7000000000000071
  0
CIRCLE
  5
189
  8
0
 10
-191.5000038146972088
 20
-150.0000000000098908
 30
0.0
 40
1.7000000000000071
  0
CIRCLE
  5
190
  8
0
 10
226.499996185302706
 20
-150.0000000000098908
 30
0.0
 40
1.7000000000000071
  0
CIRCLE
  5
191
  8
0
 10
271.4999961853027912
 20
-150.0000000000098908
 30
0.0
 40
1.6999999999999791
  0
CIRCLE
  5
192
  8
0
 10
271.4999961853027912
 20
149.9999999999899956
 30
0.0
 40
1.6999999999999791
  0
CIRCLE
  5
193
  8
0
 10
226.499996185302706
 20
149.9999999999899956
 30
0.0
 40
1.7000000000000071
  0
CIRCLE
  5
194
  8
0
 10
-136.464469904697296
 20
-136.1776695300100073
 30
0.0
 40
2.7500000000000022
  0
CIRCLE
  5
195
  8
0
 10
-157.6776733446972969
 20
-114.9644660900100064
 30
0.0
 40
2.7500000000000022
  0
CIRCLE
  5
196
  8
0
 10
236.4644622753027932
 20
-136.1776695300100073
 30
0.0
 40
2.7500000000000022
  0
CIRCLE
  5
197
  8
0
 10
257.6776657153026804
 20
-114.9644660900100064
 30
0.0
 40
2.7499999999999729
  0
CIRCLE
  5
198
  8
0
 10
257.6776657153026804
 20
114.9644660899899975
 30
0.0
 40
2.7499999999999729
  0
CIRCLE
  5
199
  8
0
 10
236.4644622753027932
 20
136.1776695299899984
 30
0.0
 40
2.7500000000000022
  0
CIRCLE
  5
200
  8
0
 10
-157.6776733446972969
 20
114.9644660899899975
 30
0.0
 40
2.7500000000000022
  0
CIRCLE
  5
201
  8
0
 10
-136.464469904697296
 20
136.1776695299899984
 30
0.0
 40
2.7500000000000022
  0
POLYLINE
  5
202
  8
0
 66
     1
 10
0.0
 20
0.0
 30
0.0
 70
     1
  0
VERTEX
  5
101A0
  8
0
 10
281.4999961853026775
 20
-159.0000000000100044
 30
0.0
  0
VERTEX
  5
101A1
  8
0
 10
281.4999961853026775
 20
158.9999999999899956
 30
0.0
 42
0.4142135623730793
  0
VERTEX
  5
101A2
  8
0
 10
280.4999961853026775
 20
159.9999999999899103
 30
0.0
  0
VERTEX
  5
101A3
  8
0
 10
-200.500003814697294
 20
159.9999999999899956
 30
0.0
 42
0.414213562373069
  0
VERTEX
  5
101A4
  8
0
 10
-201.500003814697294
 20
158.9999999999899956
 30
0.0
  0
VERTEX
  5
101A5
  8
0
 10
-201.500003814697294
 20
-159.0000000000100044
 30
0.0
 42
0.414213562373069
  0
VERTEX
  5
101A6
  8
0
 10
-200.500003814697294
 20
-160.0000000000100044
 30
0.0
  0
VERTEX
  5
101A7
  8
0
 10
280.4999961853026775
 20
-160.0000000000100044
 30
0.0
 42
0.4142135623730793
  0
SEQEND
  5
101A8
  8
0
  0
ENDSEC
  0
EOF
